<?xml version="1.0" encoding="utf-8"?>
<?xml-stylesheet href="../css/animation.css" type="text/css"?>

<svg width="681" viewBox="0 0 681 430" fill="none" xmlns="http://www.w3.org/2000/svg">
<path class="movingGear" d="M678.615 287.832L681 280.028L676.209 278.098C676.402 275.661 676.154 273.262 675.52 270.973L679.856 268.165L676.028 260.967L671.276 262.991C669.733 261.186 667.882 259.64 665.755 258.437L666.832 253.386L659.029 251L657.098 255.79C654.671 255.601 652.262 255.845 649.974 256.479L647.166 252.145L639.968 255.973L641.991 260.725C640.186 262.268 638.639 264.118 637.436 266.245L632.385 265.168L630 272.972L634.79 274.902C634.6 277.331 634.846 279.738 635.479 282.027L631.145 284.835L634.973 292.033L639.724 290.009C641.268 291.814 643.127 293.363 645.246 294.563L644.168 299.614L651.972 302L653.903 297.209C656.339 297.402 658.739 297.154 661.028 296.521L663.836 300.855L671.034 297.027L669.01 292.275C670.815 290.731 672.365 288.873 673.565 286.754L678.615 287.832ZM651.195 290.583C643.418 288.206 639.04 279.972 641.417 272.196C643.794 264.42 652.027 260.042 659.804 262.419C667.581 264.796 671.96 273.029 669.582 280.805C667.205 288.582 658.973 292.959 651.195 290.583Z" fill="#EDF1F4"/>
<path class="movingGear" d="M361.55 289.388L363 284.645L360.088 283.471C360.205 281.99 360.055 280.532 359.669 279.14L362.304 277.434L359.978 273.059L357.089 274.289C356.151 273.191 355.026 272.252 353.733 271.52L354.388 268.45L349.645 267L348.471 269.912C346.996 269.797 345.532 269.945 344.141 270.331L342.434 267.696L338.059 270.023L339.289 272.911C338.191 273.849 337.251 274.974 336.52 276.267L333.45 275.612L332 280.355L334.911 281.529C334.796 283.005 334.945 284.468 335.33 285.86L332.696 287.566L335.023 291.941L337.911 290.711C338.849 291.809 339.979 292.75 341.267 293.48L340.612 296.55L345.356 298L346.529 295.088C348.01 295.205 349.469 295.054 350.86 294.669L352.567 297.304L356.942 294.977L355.712 292.089C356.809 291.15 357.751 290.021 358.481 288.733L361.55 289.388ZM344.883 291.06C340.156 289.615 337.495 284.611 338.94 279.884C340.385 275.157 345.389 272.496 350.116 273.941C354.844 275.386 357.505 280.39 356.06 285.117C354.615 289.844 349.611 292.505 344.883 291.06Z" fill="#EDF1F4"/>
<path class="sheet del06" d="M61.7453 328.754C59.8307 329.578 58.1044 331.618 56.6413 333.479C56.3834 329.981 55.9932 326.496 55.4187 323.049C55.5202 322.87 55.5657 322.674 55.5564 322.473C59.3523 318.318 63.4328 314.273 66.8934 309.839C68.3779 307.936 69.9358 304.598 67.5094 302.662C62.3813 298.571 56.7749 312.703 54.6064 318.707C53.8354 315.133 52.844 311.608 51.5747 308.157C51.1338 306.959 50.6407 305.789 50.1436 304.621C54.3017 302.362 58.1819 299.616 61.6451 296.321C63.2057 294.835 67.7592 291.116 65.4156 288.453C63.3861 286.148 58.9782 287.309 57.121 289.151C53.7165 292.533 51.5627 298.051 49.7442 302.445C49.7015 302.548 49.6907 302.648 49.6813 302.749C49.5865 302.801 49.4957 302.86 49.4008 302.912C47.4754 298.678 45.196 294.644 42.5785 290.858C47.8883 286.163 57.1971 274.586 49.9098 269.231C42.3821 263.697 40.295 280.853 39.7913 287.076C37.1097 283.657 34.1622 280.452 30.9461 277.518C30.8673 277.446 30.7831 277.41 30.7002 277.371C30.8232 277.225 30.9101 277.035 30.9034 276.782C30.8058 273.167 29.2706 269.779 26.4915 267.545C24.0196 265.558 19.9538 264.279 17.1973 266.453C14.1509 268.856 18.3865 272.95 20.0927 274.836C22.7115 277.732 26.0919 279.582 29.944 279.1C33.2817 282.175 36.3134 285.563 39.0604 289.174C35.5224 288.549 14.7081 283.743 18.0203 292.565C19.5956 296.761 26.5636 296.682 29.952 296.721C34.2891 296.771 38.2494 295.785 40.8656 292.167C40.9551 292.139 41.046 292.104 41.1395 292.035C41.1448 292.032 41.1501 292.027 41.1555 292.023C43.5271 295.453 45.5941 299.102 47.3845 302.906C46.6029 302.602 45.7384 302.453 44.8926 302.352C44.7871 302.216 44.6468 302.101 44.4317 302.053C40.0145 301.05 32.8154 299.084 28.5237 301.206C26.2002 302.355 25.1433 304.927 26.6411 307.239C28.5264 310.149 32.7231 311.302 35.9125 310.999C38.4872 310.754 40.7427 309.523 42.9981 308.309C44.6054 307.444 47.0826 306.548 48.4201 305.112C49.1162 306.728 49.7588 308.372 50.3387 310.049C51.4784 313.35 52.3349 316.715 53.0204 320.116C50.3254 317.53 47.0051 315.811 43.2907 315.316C40.7827 314.982 35.9085 314.725 35.0494 318.107C32.997 326.19 48.2063 325.268 53.7005 323.86C54.1414 326.589 54.434 329.342 54.6705 332.101C54.2897 331.803 53.8755 331.544 53.4319 331.331C51.8833 330.586 49.3754 329.855 47.6865 330.513C46.3985 331.013 45.5541 332.573 46.317 333.897C47.2991 335.598 52.9188 336.771 53.0551 336.353C53.623 336.499 54.2015 336.606 54.7881 336.694C54.8348 336.866 54.9096 337.026 55.0459 337.137C55.2918 342.005 55.3078 346.89 55.2049 351.744C55.1796 352.945 56.9793 352.945 57.0047 351.744C57.1076 346.903 57.1009 342.025 56.8657 337.163C59.2868 336.851 61.6264 336.135 63.7695 334.877C65.1057 334.091 67.8474 332.647 66.7237 330.634C65.7884 328.956 63.4449 328.024 61.7453 328.754Z" fill="#56CCF2"/>
<path class="sheet" d="M61.7961 334.255C63.0908 334.847 64.2573 336.314 65.2474 337.654C65.4211 335.137 65.6856 332.632 66.0731 330.153C66.0049 330.024 65.9742 329.883 65.9809 329.738C63.4155 326.75 60.6565 323.84 58.3182 320.649C57.3148 319.283 56.2619 316.88 57.9013 315.488C61.3673 312.547 65.1565 322.71 66.6222 327.029C67.1433 324.459 67.8141 321.924 68.6719 319.44C68.9698 318.577 69.3025 317.737 69.6392 316.896C66.8293 315.272 64.2079 313.297 61.8656 310.926C60.8101 309.857 57.733 307.181 59.3176 305.268C60.6885 303.61 63.6681 304.443 64.924 305.77C67.2262 308.202 68.6812 312.172 69.9105 315.332C69.9385 315.406 69.9452 315.479 69.9519 315.551C70.016 315.588 70.0775 315.631 70.143 315.667C71.4444 312.623 72.9849 309.721 74.7539 306.997C71.1651 303.62 64.8733 295.294 69.7982 291.44C74.8862 287.46 76.2972 299.8 76.6366 304.276C78.4484 301.818 80.4419 299.513 82.6158 297.401C82.6692 297.349 82.7267 297.322 82.7828 297.294C82.7 297.19 82.6411 297.053 82.6452 296.87C82.7106 294.271 83.7488 291.833 85.6261 290.226C87.2963 288.797 90.046 287.877 91.9072 289.44C93.9676 291.169 91.1042 294.114 89.9512 295.471C88.1808 297.554 85.8973 298.885 83.2932 298.538C81.0378 300.75 78.9882 303.186 77.1323 305.785C79.524 305.336 93.5921 301.878 91.3528 308.225C90.2879 311.243 85.578 311.186 83.2879 311.214C80.3564 311.25 77.6801 310.54 75.9111 307.937C75.851 307.917 75.7895 307.893 75.7267 307.844C75.724 307.841 75.72 307.837 75.716 307.835C74.1126 310.304 72.715 312.927 71.5072 315.662C72.0349 315.444 72.6202 315.337 73.1907 315.263C73.2615 315.167 73.3577 315.083 73.502 315.048C76.4882 314.327 81.3531 312.913 84.2538 314.44C85.8251 315.266 86.5387 317.117 85.5259 318.779C84.2512 320.871 81.4146 321.702 79.2594 321.483C77.5198 321.307 75.9952 320.421 74.4707 319.548C73.3844 318.927 71.7103 318.282 70.8057 317.249C70.3354 318.413 69.9011 319.595 69.5096 320.8C68.74 323.175 68.1601 325.596 67.6978 328.042C69.519 326.181 71.7637 324.946 74.2743 324.59C75.9698 324.349 79.2634 324.165 79.8433 326.597C81.2316 332.411 70.9513 331.749 67.2369 330.736C66.9389 332.699 66.7411 334.679 66.5808 336.664C66.8374 336.451 67.1167 336.263 67.4173 336.11C68.4648 335.575 70.159 335.049 71.3001 335.522C72.1699 335.883 72.7418 337.004 72.226 337.956C71.562 339.18 67.7633 340.025 67.6712 339.721C67.2877 339.827 66.8961 339.904 66.5006 339.967C66.4686 340.092 66.4178 340.208 66.3256 340.287C66.16 343.787 66.1479 347.301 66.2174 350.793C66.2348 351.656 65.0176 351.656 65.0002 350.793C64.9307 347.311 64.9361 343.802 65.0937 340.303C63.457 340.079 61.875 339.564 60.4266 338.659C59.5234 338.095 57.6702 337.056 58.4291 335.609C59.0638 334.401 60.6471 333.729 61.7961 334.255Z" fill="#343751"/>
<path class="sheet del02" d="M46.3076 336.688C44.9955 337.656 44.0535 339.429 43.2812 341.024C42.4275 338.648 41.4761 336.31 40.3899 334.035C40.4339 333.891 40.4313 333.744 40.3872 333.607C42.517 329.937 44.886 326.285 46.7071 322.489C47.4874 320.861 48.0566 318.22 45.8333 317.379C41.1368 315.599 39.4906 326.571 38.9535 331.189C37.6935 328.867 36.2733 326.625 34.6539 324.488C34.0914 323.747 33.4941 323.037 32.8942 322.329C35.656 319.9 38.1144 317.192 40.1507 314.187C41.0686 312.832 43.8611 309.307 41.5657 307.943C39.5802 306.762 36.4175 308.477 35.3406 310.143C33.3645 313.195 32.7498 317.472 32.1793 320.899C32.1659 320.982 32.178 321.053 32.1887 321.124C32.1259 321.18 32.0671 321.24 32.003 321.296C29.7342 318.755 27.2316 316.425 24.5153 314.335C27.7046 309.976 32.6684 300.013 26.0799 297.8C19.275 295.514 20.8904 307.859 21.672 312.287C18.977 310.467 16.1164 308.851 13.102 307.477C13.0286 307.443 12.9578 307.435 12.8856 307.426C12.9524 307.297 12.9831 307.149 12.931 306.973C12.1788 304.485 10.3683 302.447 7.81892 301.472C5.55283 300.603 2.19651 300.555 0.492937 302.634C-1.39235 304.934 2.62139 306.901 4.28221 307.857C6.83289 309.328 9.76838 309.914 12.629 308.782C15.7636 310.228 18.7218 311.953 21.5036 313.893C18.675 314.191 1.82507 315.155 6.01786 320.599C8.01137 323.188 13.3358 321.69 15.9399 321.017C19.2723 320.155 22.1222 318.651 23.449 315.596C23.5131 315.559 23.576 315.516 23.6348 315.449C23.6374 315.447 23.6414 315.441 23.6441 315.439C26.1052 317.329 28.3727 319.435 30.4571 321.706C29.8011 321.657 29.1102 321.733 28.4448 321.839C28.3379 321.765 28.2097 321.714 28.0346 321.725C24.4618 321.941 18.5761 322.067 15.6861 324.427C14.1201 325.707 13.7928 327.71 15.3748 329.006C17.3643 330.637 20.7968 330.569 23.1844 329.7C25.1112 328.999 26.609 327.676 28.1095 326.368C29.1784 325.435 30.9087 324.298 31.6649 323.026C32.5 324.006 33.303 325.013 34.0593 326.059C35.5504 328.116 36.8385 330.275 38.0009 332.496C35.4516 331.257 32.5841 330.749 29.646 331.176C27.6618 331.461 23.8793 332.291 23.8552 334.818C23.7978 340.856 35.2791 337.072 39.2247 334.957C40.0732 336.761 40.8134 338.611 41.5122 340.479C41.1648 340.351 40.7988 340.256 40.4193 340.2C39.0925 340.005 37.0348 340.014 35.863 340.82C34.9705 341.433 34.6151 342.692 35.4475 343.455C36.5191 344.433 41.0459 344.085 41.0713 343.765C41.5336 343.749 41.9972 343.704 42.4635 343.643C42.5317 343.753 42.6199 343.849 42.7442 343.898C43.8438 347.226 44.7738 350.615 45.6035 354.007C45.8093 354.848 47.1895 354.475 46.9824 353.636C46.154 350.253 45.2334 346.866 44.1431 343.537C45.9402 342.82 47.5983 341.839 49.0052 340.522C49.8817 339.7 51.7123 338.13 50.475 336.965C49.4435 335.994 47.4727 335.829 46.3076 336.688Z" fill="#343751"/>
<path d="M65.5947 404.025H40.8482L33.736 347.313H72.7083L65.5947 404.025Z" fill="#BED0E2"/>
<g class="message1">
<path d="M449.691 0H333.918C324.735 0 317.289 7.44819 317.289 16.6314V80.0884C317.289 89.2739 324.735 96.7198 333.918 96.7198H406.315L423.86 120.339C425.725 122.854 429.717 121.529 429.713 118.399L429.685 96.7175H449.689C458.874 96.7175 466.318 89.2716 466.318 80.0861V16.6291C466.32 7.44824 458.876 0 449.691 0Z" fill="#EDF1F4"/>
</g>
<g class="boyLeftHand del02">
<path d="M331.806 171.326C331.907 171.301 332.009 171.299 332.112 171.271C333.619 170.838 332.928 167.988 331.417 168.424C331.312 168.456 331.205 168.442 331.1 168.465C331.455 167.724 331.173 166.399 329.597 166.326C329.141 166.306 322.678 166.092 318.082 162.948C319.343 162.838 321.449 162.686 322.872 163.046C324.379 163.426 325.131 161.085 323.611 160.718C323.371 160.661 321.388 160.232 321.098 160.258C313.996 159.172 306.188 160.419 299.346 162.699C298.204 162.984 297.066 163.315 295.938 163.734C295.534 163.882 295.299 164.373 295.27 164.767C295.106 166.785 295.799 171.208 296.287 173.164C296.334 173.36 296.437 173.517 296.556 173.658C295.594 174.509 296.604 176.287 297.894 175.614C301.339 173.813 308.044 171.488 308.105 171.481C314.491 174.032 320.72 176.399 327.637 176.624C329.032 176.67 329.451 174.481 328.384 174.023C328.378 174.009 328.375 173.996 328.366 173.982C328.387 173.982 328.41 173.98 328.428 173.98C328.836 174.028 330.739 173.927 331.309 173.809C332.411 173.576 332.417 171.921 331.806 171.326Z" fill="#F2994A"/>
<path d="M330.436 168.757C328.394 168.757 322.161 168.549 317.469 166.178C317.327 166.108 317.273 165.937 317.341 165.795C317.414 165.656 317.583 165.592 317.724 165.67C323.257 168.463 331.011 168.175 331.091 168.178C331.246 168.191 331.38 168.294 331.387 168.451C331.394 168.606 331.271 168.741 331.113 168.748C331.1 168.748 330.856 168.757 330.436 168.757Z" fill="#2A2B3C"/>
<path d="M330.571 171.627C327.659 171.627 320.43 171.404 316.719 169.299C316.582 169.224 316.534 169.049 316.611 168.912C316.689 168.77 316.86 168.72 316.999 168.805C321.477 171.34 331.695 171.039 331.797 171.039C331.932 171.037 332.085 171.157 332.091 171.315C332.096 171.472 331.973 171.604 331.816 171.609C331.734 171.613 331.28 171.627 330.571 171.627Z" fill="#2A2B3C"/>
<path d="M328.384 174.306C328.378 174.306 328.371 174.306 328.364 174.306C328.026 174.279 320.033 173.663 316.386 171.951C316.242 171.885 316.183 171.714 316.249 171.572C316.317 171.429 316.491 171.369 316.63 171.433C320.184 173.1 328.325 173.731 328.407 173.736C328.564 173.75 328.683 173.884 328.669 174.044C328.658 174.192 328.533 174.306 328.384 174.306Z" fill="#2A2B3C"/>
<path d="M195.456 110.961C221.704 105.133 241.393 141.303 251.415 160.221C261.439 179.141 251.009 190.5 242.535 187.249C215.954 177.049 179.548 114.492 195.456 110.961Z" fill="#BB6BD9"/>
<path d="M303.302 153.906C283.884 152.248 256.565 154.097 239.656 153.507C227.762 153.092 239.792 187.233 243.705 187.951C247.617 188.667 285.086 191.302 307.709 179.228C307.706 179.228 307.105 154.23 303.302 153.906Z" fill="#BB6BD9"/>
<path d="M307.706 179.228C307.706 179.228 274.298 195.837 241.165 187.034C237.05 185.942 219.34 165.556 219.34 165.556L229.264 148.61C229.264 148.61 236.676 175.916 243.839 180.266C251.002 184.615 307.706 179.228 307.706 179.228Z" fill="#C0C0FF"/>
<path d="M232.971 204.947C232.971 204.947 190.135 216.385 144.928 208.328L146.326 197.615L232.971 204.947Z" fill="#2A2B3B"/>
<path d="M216.093 114.624C216.093 114.624 225.463 119.841 231.156 143.259C234.141 155.531 234.834 169.11 234.834 169.11L226.159 163.752L216.093 114.624Z" fill="#17171D"/>
</g>
<path d="M122.203 388.629C123.186 385.975 124.321 384.117 127.478 381.365C127.499 381.324 127.529 381.315 127.529 381.315C129.991 379.186 133.171 376.582 137.134 372.786C142.997 374.804 150.158 375.312 151.467 381.315C148.578 384.561 143.134 391.273 142.505 393.676C142.395 394.059 142.327 394.463 142.302 394.885C141.86 400.495 147.254 407.814 148.432 412.515C148.797 413.768 148.82 414.833 148.364 415.611C146.089 419.609 119.891 395.019 122.203 388.629Z" fill="#F2994A"/>
<path d="M148.54 415.102C148.508 415.296 148.442 415.428 148.344 415.59C145.995 419.931 119.107 394.903 121.357 388.736V388.702C121.423 388.344 121.553 387.986 121.717 387.626C123.056 384.591 126.938 381.751 127.492 381.361C127.492 381.327 127.526 381.327 127.526 381.327C132.095 391.18 142.306 394.867 142.306 394.867C141.917 399.796 145.995 406.029 147.821 410.629C148.638 412.36 148.964 413.926 148.54 415.102Z" fill="#FFD357"/>
<path d="M229.113 190.085C229.25 189.563 229.104 189.027 228.591 188.655C228.432 188.229 228.288 187.803 228.126 187.379C227.568 185.942 225.696 186.038 225.071 186.982C213.41 181.857 200.527 178.46 189.524 187.189C178.399 196.015 175.375 210.758 176.383 224.234C177.719 242.097 182.03 260.931 186.617 278.226C190.682 293.544 197.2 308.044 208.693 319.217C209.204 319.712 210.05 319.853 210.67 319.47C229.063 308.146 232.549 282.133 235.242 262.602C238.607 238.192 237.51 213.337 229.113 190.085Z" fill="#3F4261"/>
<path d="M224.223 205.578C224.223 205.578 235.372 255.516 234.886 265.178C234.403 274.84 228.968 293.742 228.968 293.742L208.659 268.949L203.345 209.263L224.223 205.578Z" fill="#343751"/>
<path d="M195.899 217.899C195.155 219.287 194.428 220.687 193.724 222.098C185.771 238.064 178.257 254.371 171.52 270.887C165.13 286.547 160.837 303.121 153.323 318.3C145.177 334.752 124.515 368.115 125.771 367.556C123.719 373.573 163.368 392.988 167.421 388.759C181.214 372.7 189.795 353.508 197.627 334.031C206.27 312.539 215.434 291.667 226.768 271.425C226.825 271.322 226.886 271.219 226.943 271.117C219.926 251.51 209.904 233.582 195.899 217.899Z" fill="#3F4261"/>
<path d="M148.54 415.102C148.508 415.296 148.442 415.428 148.344 415.59C145.995 419.931 119.107 394.903 121.357 388.736V388.702C121.423 388.344 121.553 387.986 121.717 387.626C122.502 389.844 124.394 394.087 128.634 398.719C134.117 404.724 140.12 410.762 148.54 415.102Z" fill="#2A2B3B"/>
<path d="M176.198 255.821C176.198 255.821 177.311 300.297 177.881 323.38C178.451 346.463 157.529 387.628 157.529 387.628C157.529 387.628 165.552 390.998 167.421 388.761C169.291 386.525 181.084 371.298 187.24 357.787C193.395 344.279 200.397 326.515 200.397 326.515L176.198 255.821Z" fill="#343751"/>
<path d="M217.452 217.899L233.315 275.524L229.857 293.74L217.452 217.899Z" fill="#2A2B3B"/>
<path d="M174.083 264.599L200.394 326.512L194.173 341.97C194.173 341.97 192.322 326.893 187.238 313.214C182.156 299.535 174.083 264.599 174.083 264.599Z" fill="#2A2B3B"/>
<path d="M259.894 387.067C259.49 365.901 253.111 345.868 245.984 326.127C238.119 304.336 231.056 282.664 226.033 260.016C223.491 248.558 221.244 237.038 218.92 225.534C217.277 217.399 216.374 208.166 210.43 201.826C199.241 189.889 182.003 193.215 170.536 202.535C169.842 202.266 161.348 197.861 160.942 198.739C154.695 212.311 164.724 231.274 168.534 245.22C173.235 262.426 178.488 279.596 184.458 296.403C190.119 312.341 197.955 327.566 202.455 343.894C207.332 361.592 214.135 400.24 214.7 398.988C228.252 381.21 250.412 384.847 259.894 387.067Z" fill="#3F4261"/>
<path d="M259.894 387.067C259.686 392.92 217.179 404.838 214.703 398.986C212.897 394.714 220.829 387.265 233.917 384.005C249.612 380.093 259.989 384.304 259.894 387.067Z" fill="#17171D"/>
<path d="M234.872 414.705C233.106 412.499 232.476 409.797 231.744 405.673C231.719 405.634 231.726 405.604 231.726 405.604C231.172 402.397 228.156 391.665 226.941 386.312C235.125 383.132 239.756 382.87 243.413 382.505C244.708 386.654 248.301 397.356 250.036 399.132C250.309 399.424 250.619 399.688 250.968 399.93C255.548 403.199 264.599 402.342 269.236 403.755C270.499 404.088 271.423 404.617 271.856 405.411C274.111 409.421 239.163 419.981 234.872 414.705Z" fill="#F2994A"/>
<path d="M269.239 403.753L257.283 409.834C257.283 409.834 237.599 417.282 234.875 414.706C232.314 412.296 231.79 406.416 231.747 405.673C231.722 405.634 231.729 405.605 231.729 405.605C237.301 399.278 250.97 399.93 250.97 399.93C255.548 403.197 264.599 402.34 269.239 403.753Z" fill="#FFD357"/>
<path d="M271.847 405.413C274.35 409.681 238.86 419.885 234.868 414.694C232.305 411.361 267.545 398.072 271.847 405.413Z" fill="#2A2B3B"/>

<path d="M142.892 204.213C142.892 204.213 153.225 124.113 176.974 110.372C192.262 101.527 215.854 109.305 221.12 120.917C231.393 143.565 237.385 204.122 237.385 204.122C237.385 204.122 182.459 215.635 142.892 204.213Z" fill="#BB6BD9"/>
<path d="M203.386 96.1919C203.386 96.1919 203.11 105.268 202.804 107.308C202.711 107.931 201.434 109.866 200.351 110.598C196.542 107.869 193.389 108.51 192.189 107.308C193.115 104.76 193.594 101.032 193.594 96.1919C193.596 91.6117 203.386 96.1919 203.386 96.1919Z" fill="#F2994A"/>
<path d="M192.356 88.8302C192.356 88.8302 194.478 101.162 202.269 101.404C210.059 101.645 205.18 84.6148 204.01 84.1452C202.841 83.6755 195.244 82.0181 192.356 88.8302Z" fill="#F2994A"/>
<path d="M184.281 112.698C184.281 112.698 194.18 123.338 193.954 134.548C193.73 145.756 180.43 164.756 182.52 181.285C184.611 197.813 199.478 208.823 199.478 208.823C199.478 208.823 169.033 210.437 152.693 206.878C136.354 203.319 151.882 159.179 151.882 159.179L184.281 112.698Z" fill="#C0C0FF"/>
<path d="M201.863 78.1241C200.814 77.5998 199.662 77.3763 198.479 77.602C197.054 77.8733 196.158 78.9654 194.777 79.1113C191.695 79.4396 190.194 81.4299 190.525 84.0517C190.445 84.127 190.365 84.1953 190.302 84.3002C189.173 86.2152 188.448 88.2398 189.577 90.0751C188.341 92.2888 190.219 95.1933 191.644 97.0012C191.765 97.1539 191.904 97.2405 192.048 97.3021C192.445 98.0522 193.831 98.1753 194.193 97.106C195.107 94.409 194.312 91.1625 195.324 88.6638C195.81 87.4669 196.877 86.5869 197.679 85.4561C198.878 85.8346 200.009 85.6635 201.09 84.9887C203.655 86.3475 207.884 85.7479 208.597 82.563C209.55 78.327 204.99 77.0321 201.863 78.1241Z" fill="#17171D"/>
<path d="M196.373 91.0759C196.373 91.0759 195.192 88.8051 193.037 89.1289C190.883 89.4526 190.388 94.5823 194.034 95.0291C197.677 95.4737 196.373 91.0759 196.373 91.0759Z" fill="#F2994A"/>
<path d="M200.351 110.598L197.729 115.942L190.723 106.588L192.556 106.148L200.351 110.598Z" fill="#F2F8FF"/>
<path d="M200.351 110.598L204.3 113.448V108.407L202.804 107.308L200.351 110.598Z" fill="#F2F8FF"/>
<path d="M184.281 112.698C196.934 136.422 172.934 166.737 157.397 181.467C141.857 196.197 124.152 174.593 125.588 168.449C127.025 162.305 176.611 98.3211 184.281 112.698Z" fill="#BB6BD9"/>
<path d="M232.182 231.352L151.704 260.306L149.575 260.085L134.053 207.949L216.004 178.419L219.49 179.36L232.182 231.352Z" fill="#BED0E2"/>
<path d="M234.188 230.631L151.704 260.306L136.912 210.047L219.49 179.36L234.188 230.631Z" fill="#EDF1F4"/>
<path d="M188.952 226.731C192.761 226.731 195.848 223.643 195.848 219.834C195.848 216.025 192.761 212.938 188.952 212.938C185.143 212.938 182.055 216.025 182.055 219.834C182.055 223.643 185.143 226.731 188.952 226.731Z" fill="#BED0E2"/>
<path d="M192.923 249.953C193.466 244.703 192.894 240.024 191.125 235.57C191.202 235.476 191.243 235.371 191.309 235.273C193.548 237.772 195.347 240.708 196.275 244.782C196.747 246.846 200.346 245.042 199.879 242.997C198.201 235.633 194.33 230.679 188.238 226.585C179.689 220.837 171.94 212.434 167.909 202.959C167.8 202.701 167.633 202.526 167.437 202.393C167.045 201.892 166.329 201.632 165.394 202.013C159.661 204.352 153.929 206.693 148.197 209.032C146.996 209.525 146.513 211.095 147.121 211.832C152.885 218.79 159.289 225.415 166.238 231.309C168.16 232.936 170.105 234.161 172.46 235.305C175.207 236.643 178.852 237.567 180.733 239.954C182.997 242.826 182.787 246.857 182.687 250.619C182.639 252.438 185.101 252.119 186.052 250.744C186.052 250.765 186.052 250.785 186.052 250.803C185.972 252.513 188.133 252.354 189.207 251.196C189.371 253.006 192.704 252.062 192.923 249.953Z" fill="#F2994A"/>
<path d="M192.723 241.766C192.718 241.766 192.714 241.766 192.709 241.764C192.461 241.757 192.267 241.55 192.274 241.303C192.308 240.159 191.154 236.894 190.705 235.736C190.616 235.503 190.73 235.244 190.963 235.155C191.193 235.066 191.453 235.182 191.542 235.41C191.61 235.588 193.215 239.771 193.17 241.331C193.165 241.572 192.964 241.766 192.723 241.766Z" fill="#2A2B3C"/>
<path d="M189.21 251.645C189.191 251.645 189.171 251.642 189.153 251.64C188.906 251.608 188.731 251.385 188.763 251.139C188.772 251.061 189.716 243.221 187.021 236.746C186.925 236.518 187.035 236.256 187.263 236.16C187.493 236.06 187.755 236.171 187.849 236.402C190.639 243.1 189.695 250.92 189.654 251.25C189.625 251.476 189.433 251.645 189.21 251.645Z" fill="#2A2B3C"/>
<path d="M186.052 251.191C186.043 251.191 186.031 251.189 186.022 251.189C185.776 251.173 185.589 250.958 185.605 250.712C185.61 250.63 186.116 242.571 183.743 238.825C183.608 238.615 183.672 238.337 183.882 238.207C184.091 238.077 184.367 238.139 184.499 238.346C187.03 242.338 186.524 250.432 186.501 250.772C186.485 251.009 186.287 251.191 186.052 251.191Z" fill="#2A2B3C"/>
<path d="M192.347 218.291C184.949 200.262 161.013 169.933 151.084 163.369C141.155 156.808 124.387 175.489 125.536 179.296C126.685 183.106 146.821 223.594 167.898 238.198C167.898 238.198 193.797 221.822 192.347 218.291Z" fill="#BB6BD9"/>
<path d="M172.879 113.927C172.879 113.927 132.469 146.813 125.292 168.463C118.115 190.11 164.544 233.992 167.898 238.198C167.898 238.198 127.424 181.56 132.364 170.731C137.304 159.902 172.879 113.927 172.879 113.927Z" fill="#C0C0FF"/>
<g class="logo message1">
<path opacity="0.3" d="M367.67 17.1262L383.201 26.0726H422.664V17.1262H367.67Z" fill="#020203"/>
<path opacity="0.3" d="M386.796 39.1541C380.49 42.2199 374.822 46.404 370.06 51.439V29.5203L386.796 39.1541ZM362.897 76.74C365.712 66.9807 371.38 58.4216 378.941 52.0118L393.255 76.74H401.536L384.745 47.7568C390.385 44.2001 396.773 41.7125 403.62 40.5833L362.886 17.1263V76.74" fill="#020203"/>
<path opacity="0.3" d="M411.356 42.2799L422.664 42.2745V51.2154H389.53L388.008 48.5861C394.914 44.6747 402.873 42.3999 411.356 42.2799Z" fill="#020203"/>
<path opacity="0.3" d="M399.143 67.7999L404.325 76.7408H422.671V67.7999H399.143Z" fill="#020203"/>

<path d="M368.842 15.9588L384.372 24.8998H423.835V15.9588H368.842Z" fill="#F28E11"/>
<path d="M387.968 37.9812C381.662 41.047 375.994 45.2311 371.231 50.2662V28.3474L387.968 37.9812ZM364.069 75.5671C366.884 65.8078 372.552 57.2487 380.112 50.839L394.427 75.5671H402.713L385.922 46.584C391.563 43.0272 397.951 40.5397 404.797 39.4104L364.058 15.9588V75.5671" fill="#FBBF19"/>
<path d="M412.527 41.1124L423.835 41.1069V50.0479H390.701L389.179 47.4185C396.085 43.5072 404.044 41.2269 412.527 41.1124Z" fill="#F28E11"/>
<path d="M400.313 66.6259L405.496 75.5668H423.841V66.6259H400.313Z" fill="#F28E11"/>
</g>
<g class="girlRightHand del07">
<path d="M385.555 132.972C391.179 135.006 395.939 137.101 400.697 140.167C399.608 139.068 397.996 136.72 396.769 135.541C395.226 134.055 397.683 133.118 400.091 135.097C403.7 138.061 410.015 144.957 412.516 148.295C417.292 152.85 419.333 153.584 425.47 157.353C427.871 158.825 418.177 163.996 416.139 164.276C413.701 164.609 413.551 162.845 412.085 161.13C409.076 157.617 404.849 155.319 400.002 153.392C395.481 151.594 392.962 149.125 389.467 146.852C386.508 145.436 387.404 144.533 388.131 143.528C388.22 143.405 388.359 143.334 388.477 143.238C388.108 142.755 387.939 142.242 388.133 141.756C388.439 140.988 389.303 140.676 390.354 140.63C390.025 139.611 390.525 138.683 392.105 138.496C391.017 137.915 385.883 135.608 384.782 135.211C382.497 134.383 383.263 132.142 385.555 132.972Z" fill="#4C5072"/>
<path d="M397.624 144.845C395.331 144.845 391.083 141.647 390.135 140.908C389.98 140.787 389.952 140.566 390.073 140.409C390.196 140.258 390.42 140.229 390.572 140.347C393.146 142.347 397.184 144.807 398.144 143.997C398.276 143.886 398.326 143.772 398.308 143.619C398.162 142.385 394.327 140.017 391.943 138.813C391.767 138.726 391.699 138.512 391.785 138.337C391.874 138.161 392.091 138.095 392.262 138.181C392.928 138.517 398.773 141.524 399.01 143.539C399.056 143.929 398.914 144.275 398.6 144.542C398.351 144.754 398.016 144.845 397.624 144.845Z" fill="#2A2B3C"/>
<path d="M396.249 147.346C395.695 147.346 395.091 147.216 394.533 146.947C392.221 145.835 388.338 143.566 388.3 143.544C388.131 143.443 388.074 143.227 388.172 143.056C388.27 142.887 388.486 142.828 388.657 142.928C388.696 142.951 392.556 145.206 394.84 146.305C396.021 146.877 397.25 146.612 397.467 146.165C397.642 145.803 397.122 145.096 395.565 144.335C395.39 144.25 395.317 144.036 395.401 143.861C395.488 143.683 395.7 143.612 395.875 143.699C398.392 144.927 398.354 145.967 398.107 146.475C397.834 147.043 397.1 147.346 396.249 147.346Z" fill="#2A2B3C"/>
<path d="M393.076 148.5C391.391 148.5 388.247 146.469 387.563 146.013C387.399 145.903 387.356 145.682 387.465 145.52C387.577 145.354 387.793 145.313 387.958 145.42C389.754 146.615 392.608 148.133 393.354 147.743C393.6 147.615 393.735 147.47 393.757 147.31C393.801 147.009 393.472 146.631 393.384 146.546C393.24 146.412 393.235 146.188 393.37 146.042C393.507 145.901 393.73 145.896 393.871 146.029C393.942 146.095 394.56 146.701 394.462 147.406C394.423 147.682 394.257 148.074 393.682 148.372C393.514 148.461 393.308 148.5 393.076 148.5Z" fill="#2A2B3C"/>
<path d="M401.639 149.854C401.534 149.854 401.429 149.806 401.358 149.715C399.799 147.723 402.437 144.697 403.116 143.974C402.79 143.338 400.886 140.942 399.095 138.843C398.967 138.694 398.985 138.469 399.136 138.341C399.284 138.209 399.509 138.229 399.637 138.38C401.213 140.229 403.857 143.42 403.873 144.063L403.875 144.216L403.768 144.323C403.736 144.358 400.563 147.542 401.917 149.277C402.038 149.43 402.01 149.654 401.855 149.777C401.792 149.829 401.714 149.854 401.639 149.854Z" fill="#2A2B3C"/>
<path d="M501.687 130.524C495.983 125.015 456.396 149.159 444.725 167.11C433.055 185.062 446.919 206.848 452.703 204.322C458.487 201.798 513.408 141.843 501.687 130.524Z" fill="#5E8E3E"/>
<path d="M417.438 144.49C433.853 154.09 446.889 171.244 455.559 179.399C464.229 187.549 455.074 204.573 451.104 204.331C447.133 204.092 414.388 190.153 401.755 174.878C401.755 174.878 414.144 142.563 417.438 144.49Z" fill="#5E8E3E"/>
<path d="M452.085 191.543C444.11 194.085 416.063 181.585 405.706 176.752C404.24 176.088 402.574 175.284 401.757 174.878C405.177 179.362 414.356 187.011 427.907 195.047C444.842 205.086 450.826 205.651 452.705 204.324C454.583 202.997 471.005 189.906 490.208 162.042C490.206 162.042 461.92 188.409 452.085 191.543Z" fill="#5E8E3E"/>
<path d="M484.718 134.869L480.083 176.437C480.083 176.437 475.157 184.462 468.443 189.455C476.807 164.315 475.193 142.657 484.718 134.869Z" fill="#2A2B3C"/>
</g>
<path d="M468.351 212.525C467.722 212.636 469.751 280.598 468.728 309.787C467.902 333.155 464.859 381.121 453.53 395.671C453.049 396.289 452.96 397.417 453.872 397.602C465.522 400.126 476.324 401.113 485.783 401.179C485.854 401.188 485.943 401.172 486.016 401.183C509.471 401.322 524.684 395.972 524.369 395.495C509.204 372.038 517.876 307.402 523.095 269.717C524.837 257.301 526.034 246.255 525.651 237.917C524.301 208.685 496.683 218.124 468.351 212.525Z" fill="#3F4261"/>
<path d="M523.09 269.717C517.872 307.402 514.08 371.267 524.365 395.495C524.588 396.02 509.466 401.323 486.011 401.183C485.872 401.186 485.779 401.179 485.779 401.179C493.968 388.038 504.988 347.578 505.77 332.346C506.552 317.114 498.723 233.228 498.723 233.228L522.632 249.308L523.09 269.717Z" fill="#343751"/>
<path d="M453.186 396.897C452.31 394.829 465.825 393.09 481.324 392.367C482.174 392.331 483.024 392.299 483.898 392.258C489.326 392.064 494.937 391.975 500.183 392.044C501.138 392.085 502.114 392.096 503.041 392.116C513.791 392.417 526.93 394.481 524.36 395.502C494.804 407.291 455.575 402.679 453.186 396.897Z" fill="#2A2B3B"/>
<path d="M518.553 318.4C535.217 317.958 550.1 313.556 565.135 306.858C560.457 289.237 558.938 269.081 556.048 255.069C553.533 242.785 550.966 231.976 547.815 224.248C536.765 197.15 523.665 213.925 495.094 218.126C492.18 232.806 518.043 316.729 518.553 318.4Z" fill="#3F4261"/>
<path d="M557.577 297.585C547.416 310.496 532.969 310.156 518.553 318.4C532.267 338.581 565.951 377.489 568.728 393.938C568.858 394.713 569.629 395.539 570.381 394.991C580.118 388.111 588.143 380.815 594.584 373.889C594.638 373.844 594.689 373.766 594.743 373.723C610.698 356.531 617.036 341.7 616.47 341.609C599.725 338.764 577.713 319.128 557.577 297.585Z" fill="#3F4261"/>
<path d="M616.47 341.607C602.554 336.675 566.083 307.617 565.135 303.242C563.747 296.847 559.702 272.847 556.775 256.719C553.211 237.09 546.516 218.126 546.516 218.126L516.119 221.851C516.119 221.851 546.137 301.363 557.359 312.632C568.122 323.443 590.432 358.972 594.584 373.887C594.584 373.887 594.652 373.823 594.743 373.721C610.698 356.528 617.01 341.798 616.47 341.607Z" fill="#343751"/>
<path d="M569.401 395.019C567.285 394.266 575.137 383.129 585.077 371.217C585.626 370.568 586.176 369.918 586.739 369.248C590.263 365.114 593.991 360.922 597.586 357.103C598.261 356.423 598.929 355.714 599.574 355.044C607.061 347.322 617.46 339.035 616.479 341.618C605.187 371.368 575.276 397.166 569.401 395.019Z" fill="#2A2B3B"/>
<path d="M554.484 223.124C554.484 223.124 533.762 135.936 513.189 129.292C496.382 123.864 481.741 129.862 480.279 147.253C478.93 163.31 472.496 187.228 470.05 195.385C467.604 203.544 460.139 218.635 460.139 218.635C460.139 218.635 514.919 234.541 554.484 223.124Z" fill="#5E8E3E"/>
<path d="M488.097 119.003C488.097 119.003 490.851 127.263 491.157 129.304C491.25 129.926 492.527 131.862 493.607 132.594C497.417 129.862 500.57 130.505 501.769 129.304C500.844 126.753 498.806 123.49 497.887 119.003C496.968 114.514 488.097 119.003 488.097 119.003Z" fill="#4C5072"/>
<path d="M501.149 111.455C501.149 111.455 497.376 123.385 489.625 122.571C481.875 121.755 489.014 105.541 490.238 105.236C491.462 104.93 499.211 104.317 501.149 111.455Z" fill="#4C5072"/>
<path d="M493.227 101.442C491.049 101.161 489.014 101.189 487.383 102.475C485.589 103.888 484.862 107.23 485.297 109.898C485.658 109.937 486.032 109.968 486.401 110.005C486.704 109.109 486.848 108.165 486.996 107.23C487.224 105.783 487.425 109.296 487.219 110.046C488.195 110.067 490.676 110.13 491.603 109.964C493.197 109.681 494.652 108.69 496.175 108.015C496.2 108.883 496.277 109.754 496.439 110.636C496.722 112.194 496.95 114.777 498.254 115.896C500.876 118.144 503.367 114.287 503.819 112.068C505.13 105.628 499.1 100.375 493.227 101.442Z" fill="#2A2B3C"/>
<path d="M496.975 117.829L496.954 117.259C499.407 117.168 501.3 116.336 502.579 114.781C505.198 111.598 504.421 106.416 504.412 106.366L504.975 106.277C505.009 106.501 505.8 111.767 503.019 115.146C501.632 116.828 499.599 117.731 496.975 117.829Z" fill="#2A2B3C"/>
<path d="M496.868 113.138C496.868 113.138 498.347 111.047 500.438 111.66C502.528 112.273 502.323 117.421 498.653 117.371C494.98 117.319 496.868 113.138 496.868 113.138Z" fill="#4C5072"/>
<path d="M497.796 116.379C498.192 116.046 498.767 116.616 498.365 116.949C497.743 117.469 496.858 119.042 497.96 119.548C498.947 120 500.62 118.816 499.761 117.759C499.437 117.357 500.005 116.783 500.331 117.186C501.598 118.75 499.911 120.661 498.147 120.426C495.965 120.134 496.546 117.417 497.796 116.379Z" fill="#FFD357"/>
<path d="M511.57 134.869C511.57 134.869 498.878 162.12 497.21 187.978C495.543 213.838 471.764 221.489 471.764 221.489C471.764 221.489 515.421 233.759 554.484 223.124C554.484 223.124 535.041 150.734 511.57 134.869Z" fill="#5E8E3E"/>
<path d="M498.979 247.764L518.553 318.4L517.635 341.755L498.979 247.764Z" fill="#2A2B3B"/>
<path d="M503.098 124.744C503.098 123.942 502.107 123.244 501.384 123.759C497.312 126.675 492.714 127.977 487.714 127.608C486.887 127.548 486.244 128.636 486.729 129.324C488.15 131.337 489.572 133.35 490.992 135.361C491.834 136.549 493.81 135.411 492.962 134.21C492.853 134.057 492.743 133.902 492.636 133.747C492.819 133.715 493.017 133.667 493.259 133.601C495.484 132.999 497.527 131.937 499.82 131.435C500.807 131.217 501.929 131.196 502.554 130.261C503.45 128.923 503.098 126.203 503.098 124.744Z" fill="#5E8E3E"/>
<path d="M508.689 134.869C508.689 134.869 521.36 187.743 527.44 195.911C533.521 204.08 493.439 209.137 493.439 209.137L514.52 193.062C514.52 193.062 503.235 156.849 508.689 134.869Z" fill="#2A2B3C"/>
<path d="M535.816 132.831C533.566 131.351 533.441 129.349 533.281 126.814C533.242 126.194 533.201 125.531 533.126 124.831C532.937 123.066 531.462 122.442 530.035 121.837C528.772 121.304 527.579 120.798 527.616 119.514C527.689 116.984 526.011 113.787 523.341 111.375C521.618 109.816 521.538 109.556 521.41 108.423C521.323 107.659 521.193 106.501 520.318 104.039C518.332 98.4417 512.528 99.4562 512.471 99.4745L512.366 98.9136C512.43 98.9045 518.708 97.7988 520.856 103.847C521.752 106.371 521.893 107.616 521.978 108.359C522.089 109.339 522.105 109.488 523.726 110.951C526.515 113.47 528.268 116.84 528.19 119.532C528.165 120.381 528.961 120.761 530.26 121.311C531.692 121.917 533.473 122.67 533.698 124.767C533.774 125.481 533.817 126.146 533.856 126.778C534.011 129.245 534.125 131.027 536.136 132.352L535.816 132.831Z" fill="#2A2B3C"/>
<path d="M501.436 251.749C501.97 252.463 503.301 252.479 503.459 251.366C503.459 251.353 503.463 251.339 503.465 251.325C503.894 252.187 505.396 252.294 505.583 251.109C505.973 248.658 506.329 246.034 508.091 244.071C509.557 242.436 511.946 241.686 513.827 240.701C515.437 239.858 516.8 238.982 518.198 237.84C523.254 233.714 528.058 229.133 532.501 224.359C532.971 223.853 532.857 222.848 532.166 222.577C528.863 221.282 525.559 219.984 522.256 218.689C521.718 218.48 521.239 218.678 520.931 219.022C520.795 219.116 520.669 219.239 520.569 219.41C516.905 225.757 511.046 231.555 505.007 235.651C500.702 238.567 497.686 241.96 495.748 246.83C495.21 248.186 497.244 249.216 497.789 247.851C498.86 245.154 500.34 243.164 502.041 241.442C502.07 241.504 502.084 241.57 502.12 241.629C500.479 244.607 499.556 247.682 499.264 251.086C499.148 252.458 501.117 252.939 501.436 251.749Z" fill="#4C5072"/>
<path d="M500.431 245.731C500.417 245.731 500.401 245.73 500.385 245.726C500.23 245.703 500.123 245.557 500.148 245.4C500.306 244.397 501.808 241.615 501.87 241.497C501.945 241.358 502.116 241.31 502.255 241.381C502.394 241.456 502.444 241.629 502.369 241.768C501.947 242.548 500.828 244.734 500.709 245.489C500.689 245.63 500.568 245.731 500.431 245.731Z" fill="#4C5072"/>
<path d="M501.436 252.034C501.432 252.034 501.425 252.034 501.418 252.034C501.261 252.023 501.14 251.888 501.151 251.731C501.154 251.679 501.516 246.462 504.058 241.996C504.136 241.855 504.309 241.805 504.448 241.889C504.585 241.967 504.633 242.14 504.553 242.277C502.075 246.631 501.721 251.715 501.719 251.765C501.712 251.918 501.587 252.034 501.436 252.034Z" fill="#4C5072"/>
<path d="M503.468 251.613C503.456 251.613 503.445 251.613 503.434 251.61C503.279 251.592 503.167 251.451 503.185 251.293C503.212 251.07 503.867 245.829 505.914 243.143C506.01 243.015 506.19 242.999 506.313 243.091C506.438 243.186 506.461 243.364 506.368 243.492C504.414 246.052 503.757 251.312 503.75 251.362C503.732 251.505 503.609 251.613 503.468 251.613Z" fill="#4C5072"/>
<path d="M511.511 128.823C504.158 131.791 510.1 177.778 521.75 195.743C533.397 213.71 558.938 209.912 558.986 203.601C559.034 197.293 526.622 122.724 511.511 128.823Z" fill="#5E8E3E"/>
<path d="M495.855 231.19C505.44 214.768 522.582 201.714 530.726 193.037C538.869 184.355 555.899 193.495 555.662 197.464C555.425 201.435 541.518 234.194 526.257 246.843C526.257 246.843 493.929 234.486 495.855 231.19Z" fill="#5E8E3E"/>
<path d="M535.629 152.136C535.629 152.136 548.203 188.707 547.063 198.967C545.923 209.226 535.773 233.882 526.257 246.843C542.321 235.46 559.433 205.859 558.986 203.602C558.539 201.347 553.264 181.017 535.629 152.136Z" fill="#5E8E3E"/>
<path d="M532.319 131.018C532.15 130.612 532.018 130.181 531.977 129.673C532.173 127.877 532.173 126.048 531.077 124.496C530.575 123.784 529.907 123.461 529.314 122.907C527.677 121.372 525.571 121.814 526.013 117.822C525.97 116.596 525.828 115.734 524.727 114.581C522.308 112.057 520.183 111.879 519.837 107.691C519.748 106.606 519.864 105.445 519.629 104.365C519.103 101.923 517.956 100.234 515.674 99.1415C510.599 96.7089 503.725 98.4758 500.13 102.532C500.007 102.671 499.927 102.817 499.879 102.965C499.585 103.46 499.599 104.159 500.212 104.565C502.414 106.022 505.232 107.579 507.027 109.503C509.537 112.194 509.028 115.176 508.135 118.351C507.441 120.814 507.369 123.073 508.839 125.268C509.409 126.117 510.259 126.566 510.866 127.35C513.308 130.51 512.421 131.337 511.208 134.588C510.496 136.492 510.079 138.674 510.848 140.641C511.192 141.521 511.707 142.162 512.325 142.648C512.89 143.361 513.656 143.977 514.739 144.421C519.217 146.27 526.059 146.304 530.687 145.215C533.915 144.453 537.611 142.566 537.583 138.745C537.558 135.649 534.546 133.419 532.319 131.018Z" fill="#2A2B3C"/>
<path d="M498.265 423.658C499.243 421.004 499.59 418.854 498.976 414.71C498.988 414.664 498.972 414.639 498.972 414.639C498.484 411.42 497.793 395.176 497.44 392.023C492.258 391.884 483.328 392.237 480.056 392.429C480.14 396.774 480.637 412.061 479.557 414.297C479.39 414.657 479.178 415.011 478.925 415.348C475.615 419.899 466.758 421.951 462.807 424.759C461.715 425.475 461.006 426.268 460.846 427.158C459.973 431.674 495.867 430.021 498.265 423.658Z" fill="#F2994A"/>
<path d="M461.042 426.654C460.94 426.822 460.905 426.966 460.874 427.153C459.838 431.977 496.539 430.438 498.837 424.289L498.858 424.264C499.043 423.948 499.177 423.59 499.287 423.211C500.242 420.035 499.138 415.355 498.97 414.696C498.99 414.671 498.967 414.65 498.967 414.65C489.089 419.167 478.932 415.332 478.932 415.332C476.025 419.331 468.874 421.415 464.494 423.724C462.75 424.508 461.485 425.484 461.042 426.654Z" fill="#BB6BD9"/>
<path d="M461.042 426.654C460.94 426.822 460.905 426.966 460.874 427.153C459.838 431.977 496.539 430.438 498.837 424.29L498.858 424.264C499.043 423.948 499.177 423.59 499.287 423.211C497.248 424.39 493.053 426.382 486.818 427.146C478.747 428.142 470.262 428.829 461.042 426.654Z" fill="#2A2B3B"/>
<path d="M620.521 378.998C619.19 376.504 617.811 374.817 614.309 372.519C614.284 372.48 614.252 372.473 614.252 372.473C611.523 370.7 598.931 360.413 596.341 358.582C592.792 362.36 587.117 369.268 585.086 371.837C588.389 374.662 600.14 384.454 601.088 386.747C601.248 387.112 601.371 387.502 601.453 387.919C602.652 393.416 598.298 401.398 597.766 406.215C597.575 407.508 597.698 408.566 598.254 409.275C601.054 412.931 623.679 385.019 620.521 378.998Z" fill="#F2994A"/>
<path d="M598.013 408.796C598.072 408.985 598.154 409.106 598.272 409.254C601.188 413.235 624.44 384.796 621.374 378.991L621.37 378.957C621.256 378.613 621.078 378.273 620.868 377.94C619.131 375.116 614.899 372.829 614.297 372.514C614.293 372.482 614.261 372.487 614.261 372.487C611.069 382.869 601.451 387.906 601.451 387.906C602.504 392.734 599.308 399.462 598.12 404.27C597.545 406.092 597.434 407.69 598.013 408.796Z" fill="#BB6BD9"/>
<path d="M598.013 408.796C598.072 408.985 598.154 409.106 598.272 409.254C601.188 413.235 624.44 384.796 621.374 378.992L621.37 378.957C621.256 378.613 621.078 378.273 620.868 377.941C620.394 380.246 619.092 384.705 615.517 389.869C610.898 396.562 605.766 403.354 598.013 408.796Z" fill="#2A2B3B"/>
</svg>
