<?xml version="1.0" encoding="utf-8"?>
<?xml-stylesheet href="../css/animation.css" type="text/css"?>

<svg width="817" viewBox="0 0 817 409" fill="none" xmlns="http://www.w3.org/2000/svg">
<path d="M363.927 408.245C564.816 408.245 727.669 404.078 727.669 398.939C727.669 393.799 564.816 389.633 363.927 389.633C163.038 389.633 0.185059 393.799 0.185059 398.939C0.185059 404.078 163.038 408.245 363.927 408.245Z" fill="#EDF1F4"/>
<path class="movingGear" d="M154.89 83.7872L159.787 67.7298L149.95 63.7576C150.346 58.7448 149.838 53.8073 148.536 49.0977L157.437 43.3198L149.579 28.5092L139.821 32.6737C136.652 28.9591 132.852 25.7778 128.485 23.3021L130.696 12.9098L114.674 8L110.71 17.8572C105.726 17.4667 100.781 17.9702 96.083 19.2744L90.3171 10.3568L75.5374 18.2318L79.6911 28.0097C75.9843 31.1851 72.8097 34.9928 70.3391 39.3694L59.9683 37.1533L55.0707 53.2107L64.9055 57.1829C64.5158 62.1798 65.0201 67.1332 66.3197 71.8428L57.4207 77.6207L65.2813 92.4313L75.0369 88.2668C78.2077 91.9814 82.0233 95.1686 86.3749 97.6384L84.1615 108.031L100.185 112.941L104.149 103.083C109.152 103.48 114.079 102.968 118.779 101.666L124.545 110.584L139.325 102.709L135.169 92.9308C138.876 89.7534 142.056 85.9299 144.521 81.5692L154.89 83.7872ZM98.5892 89.4482C82.6206 84.5562 73.6325 67.6149 78.5122 51.615C83.394 35.6132 100.298 26.6044 116.267 31.4963C132.235 36.3882 141.225 53.3276 136.344 69.3294C131.462 85.3313 114.56 94.3381 98.5892 89.4482Z" fill="#EDF1F4"/>
<path class="movingGear" d="M812.781 54.4931L816.301 42.9491L809.23 40.0928C809.515 36.4873 809.149 32.9392 808.211 29.5518L814.61 25.3972L808.961 14.7471L801.945 17.7422C799.666 15.0702 796.933 12.7828 793.792 11.0029L795.384 3.53021L783.862 0L781.011 7.08815C777.427 6.80668 773.873 7.16941 770.494 8.10697L766.347 1.69474L755.719 7.35772L758.705 14.3884C756.039 16.6698 753.756 19.4091 751.98 22.5568L744.523 20.9631L741 32.5071L748.074 35.3634C747.793 38.957 748.155 42.517 749.09 45.9044L742.691 50.059L748.342 60.7091L755.359 57.716C757.637 60.386 760.383 62.6793 763.51 64.4533L761.92 71.928L773.442 75.4562L776.292 68.368C779.888 68.6535 783.431 68.2868 786.809 67.3492L790.957 73.7615L801.585 68.0985L798.596 61.0678C801.263 58.7864 803.549 56.0332 805.32 52.8994L812.781 54.4931ZM772.296 58.5624C760.812 55.0461 754.35 42.8638 757.861 31.3555C761.368 19.8472 773.527 13.3715 785.009 16.8879C796.493 20.4042 802.956 32.5864 799.447 44.0947C795.938 55.603 783.779 62.0807 772.296 58.5624Z" fill="#EDF1F4"/>
<path class="movingGear" d="M476.297 212.094L478.621 204.479L473.954 202.594C474.142 200.217 473.901 197.874 473.284 195.64L477.505 192.901L473.778 185.874L469.15 187.849C467.647 186.087 465.845 184.58 463.774 183.405L464.822 178.477L457.222 176.148L455.342 180.822C452.978 180.638 450.632 180.875 448.403 181.494L445.669 177.264L438.659 181L440.629 185.639C438.871 187.145 437.365 188.951 436.192 191.028L431.273 189.976L428.951 197.593L433.615 199.476C433.431 201.845 433.668 204.195 434.286 206.429L430.064 209.171L433.793 216.195L438.42 214.221C439.923 215.983 441.733 217.494 443.796 218.665L442.747 223.595L450.347 225.922L452.228 221.248C454.602 221.436 456.938 221.196 459.167 220.576L461.903 224.806L468.913 221.071L466.941 216.433C468.699 214.927 470.208 213.111 471.377 211.044L476.297 212.094ZM449.591 214.778C442.018 212.457 437.753 204.421 440.069 196.832C442.385 189.242 450.404 184.971 457.978 187.29C465.552 189.611 469.817 197.646 467.5 205.236C465.184 212.826 457.167 217.099 449.591 214.778Z" fill="#EDF1F4"/>
<path d="M426.714 248.046H432.895L415.587 202.961H409.406L426.714 248.046Z" fill="#BED0E2"/>
<path d="M492.673 248.046H426.714V253.489H492.673V248.046Z" fill="#BED0E2"/>
<path d="M469.492 190.158C469.421 190.1 469.342 190.059 469.275 189.997C468.268 189.08 469.894 187.121 470.904 188.043C470.974 188.104 471.063 188.136 471.136 188.194C471.142 187.478 471.868 186.552 473.124 187.099C473.486 187.256 478.603 189.565 483.384 188.869C482.442 188.301 480.862 187.375 479.616 187.111C478.296 186.832 478.605 184.717 479.93 185.012C480.14 185.058 481.847 185.482 482.065 185.613C488.01 187.484 493.616 191.446 498.077 195.845C498.856 196.505 499.615 197.198 500.335 197.956C500.593 198.227 500.588 198.699 500.462 199.02C499.819 200.655 497.59 203.845 496.464 205.183C496.35 205.317 496.211 205.401 496.065 205.466C496.488 206.499 495.022 207.502 494.275 206.483C492.281 203.759 487.943 199.377 487.9 199.345C481.95 198.893 476.194 198.358 470.721 195.884C469.617 195.387 470.125 193.518 471.132 193.569C471.142 193.561 471.15 193.551 471.162 193.543C471.146 193.537 471.13 193.526 471.114 193.518C470.778 193.401 469.336 192.592 468.934 192.281C468.163 191.686 468.788 190.39 469.492 190.158Z" fill="#F2994A"/>
<path d="M482.468 191.631C477.009 191.631 471.076 188.445 471.017 188.414C470.896 188.348 470.853 188.198 470.918 188.077C470.982 187.956 471.13 187.914 471.252 187.976C471.312 188.009 477.28 191.191 482.624 191.135H482.626C482.761 191.135 482.871 191.244 482.873 191.381C482.875 191.516 482.765 191.629 482.628 191.631C482.577 191.631 482.521 191.631 482.468 191.631Z" fill="#2A2B3C"/>
<path d="M481.562 194.366C476.932 194.366 469.692 190.544 469.376 190.376C469.255 190.312 469.209 190.162 469.273 190.041C469.338 189.92 469.486 189.876 469.607 189.938C469.684 189.979 477.052 193.868 481.564 193.868C481.708 193.868 481.851 193.863 481.989 193.855C482.128 193.872 482.241 193.95 482.251 194.086C482.258 194.223 482.154 194.342 482.017 194.35C481.871 194.362 481.718 194.366 481.562 194.366Z" fill="#2A2B3C"/>
<path d="M481.269 196.548H481.267C477.77 196.489 471.31 193.91 471.037 193.801C470.91 193.752 470.849 193.605 470.899 193.478C470.948 193.351 471.096 193.292 471.221 193.341C471.288 193.369 477.871 195.995 481.275 196.053C481.412 196.055 481.521 196.17 481.519 196.305C481.517 196.439 481.404 196.548 481.269 196.548Z" fill="#2A2B3C"/>
<path d="M590.877 170.291C569.054 162.031 547.685 190.725 536.743 205.767C525.8 220.812 533.359 231.876 541.033 230.124C565.124 224.631 604.102 175.296 590.877 170.291Z" fill="#C0C0FF"/>
<path d="M498.7 185C515.265 188.388 536.009 199.569 548.128 205.856C557.297 210.616 542.129 230.627 538.697 230.265C535.265 229.902 503.435 222.897 487.567 207.268C487.569 207.27 495.456 184.336 498.7 185Z" fill="#C0C0FF"/>
<path d="M569.527 177.974C569.527 177.974 560.325 190.102 556.203 213.557C546.508 213.226 520.341 223.048 520.341 223.048L561.438 218.79L569.527 177.974Z" fill="#17171D"/>
<path d="M484.357 393.936C486.315 392.451 487.573 391.04 489.067 387.72C489.096 387.692 489.098 387.664 489.098 387.664C490.249 385.08 493.972 378.903 495.189 376.43C492.92 372.638 485.799 373.328 481.127 370.81C479.153 374.031 476.918 377.173 475.078 378.299C474.787 378.487 474.469 378.644 474.125 378.773C469.577 380.549 462.146 377.894 457.944 378.093C456.811 378.105 455.923 378.352 455.389 378.927C452.639 381.829 479.626 397.464 484.357 393.936Z" fill="#F2994A"/>
<path d="M455.771 378.656C455.616 378.731 455.524 378.818 455.413 378.941C452.396 381.988 479.92 398.088 484.48 394.667L484.507 394.659C484.79 394.515 485.055 394.314 485.312 394.088C487.498 392.215 488.885 388.269 489.071 387.708C489.098 387.7 489.091 387.672 489.091 387.672C479.76 386.342 474.139 378.767 474.139 378.767C470.143 380.328 463.944 378.497 459.665 378.132C458.024 377.885 456.639 378.007 455.771 378.656Z" fill="#FFD357"/>
<path d="M455.771 378.656C455.616 378.731 455.524 378.818 455.413 378.941C452.396 381.988 479.92 398.088 484.48 394.667L484.508 394.659C484.79 394.515 485.055 394.314 485.313 394.088C483.273 393.993 479.276 393.482 474.364 391.115C468.003 388.057 461.485 384.574 455.771 378.656Z" fill="#2A2B3B"/>
<path d="M537.455 302.744C538.563 302.486 580.698 299.566 595.393 294.69C607.303 290.746 624.53 287.394 625.679 274.452C627.441 254.272 620.635 245.83 606.65 243.472C599.213 242.221 588.986 239.263 582.32 241.979C572.885 245.844 509.199 265.428 506.855 284.706C504.768 301.865 524.242 305.796 537.455 302.744Z" fill="#343751"/>
<path d="M508.93 279.705C502.161 288.73 474.337 347.324 470.814 365.405C477.881 374.947 492.058 380.893 507.668 382.386C507.957 383.54 519.546 351.467 526.378 337.046C531.121 326.991 537.39 317.774 543.284 308.343C545.211 305.293 547.096 302.198 548.868 299.075C554.061 289.883 516.888 269.095 508.93 279.705Z" fill="#343751"/>
<path d="M666.483 234.528C666.483 234.528 638.71 228.73 615.181 244.562C591.651 260.391 584.425 299.608 584.425 299.608L659.461 251.238L666.483 234.528Z" fill="#BED0E2"/>
<path d="M563.106 257.961C563.106 257.961 516.237 266.932 512.518 282.294C508.8 297.655 526.378 337.047 526.378 337.047L521.409 286.506L563.106 257.961Z" fill="#17171D"/>
<path d="M515.349 287.368C515.329 289.134 515.547 290.738 516.003 292.187C519.287 303.384 534.931 305.782 546.107 303.207C546.325 303.166 548.006 303.029 550.696 302.791C553.505 302.533 557.421 302.196 561.911 301.76C575.777 300.393 595.063 298.153 604.063 295.16C615.971 291.215 633.199 287.864 634.346 274.92C635.138 265.923 634.21 259.263 631.696 254.425C628.61 248.421 623.074 245.248 615.32 243.939C607.88 242.691 600.779 246.477 594.114 249.192C584.678 253.057 517.861 265.901 515.509 285.168C515.509 285.208 515.509 285.247 515.487 285.287C515.408 286.002 515.37 286.714 515.349 287.368Z" fill="#3F4261"/>
<path d="M515.331 286.952C515.331 287.091 515.351 287.231 515.351 287.368C515.43 288.559 515.647 290.183 516.005 292.187C519.17 311.094 532.698 362.848 540.571 377.298C549.887 372.184 565.434 370.083 579.757 366.792C579.854 366.872 579.814 366.614 579.696 366.059C578.489 361.242 568.817 333.849 565.296 319.935C563.753 313.947 562.764 307.883 561.913 301.758C561.261 296.96 560.707 292.125 560.054 287.307C560.034 287.207 560.034 287.108 560.014 287.011C559.56 283.443 559.043 279.856 558.41 276.308C556.63 266.357 518.197 273.057 515.487 285.287C515.349 285.822 515.309 286.377 515.331 286.952Z" fill="#3F4261"/>
<path d="M558.436 371.169C558.284 371.169 558.141 371.068 558.096 370.915C557.9 370.277 538.6 306.837 537.202 294.395C536.885 291.582 537.415 289.378 538.822 287.657C542.529 283.122 551.968 282.306 566.253 281.067C570.29 280.716 574.865 280.32 579.725 279.794C606.786 276.881 616.02 253.008 616.109 252.766C616.178 252.58 616.384 252.486 616.568 252.558C616.752 252.627 616.847 252.833 616.776 253.018C616.685 253.261 607.309 277.543 579.801 280.506C574.935 281.029 570.355 281.426 566.316 281.776C552.209 282.999 542.891 283.808 539.376 288.109C538.098 289.673 537.619 291.703 537.912 294.314C539.304 306.692 558.586 370.069 558.78 370.707C558.837 370.898 558.732 371.096 558.543 371.155C558.505 371.163 558.471 371.169 558.436 371.169Z" fill="#2A2B3C"/>
<path d="M548.856 294.9C549.193 296.367 549.845 299.144 550.696 302.789C554.889 320.846 563.87 360.39 562.742 369.706C562.742 369.706 577.617 366.495 579.753 366.792L579.692 366.059C578.485 361.242 568.812 333.849 565.292 319.935C563.749 313.947 562.76 307.883 561.909 301.758C575.775 300.391 595.061 298.151 604.061 295.158C615.968 291.213 633.197 287.862 634.344 274.918C635.136 265.921 634.208 259.261 631.694 254.423L625.938 250.796C625.938 250.796 612.133 278.171 587.584 283.126C576.331 285.406 566.834 286.238 560.05 287.307C552.041 288.579 547.788 290.183 548.856 294.9Z" fill="#343751"/>
<path d="M636.109 252.589C636.109 252.589 627.146 182.947 606.541 171C593.277 163.31 572.808 170.075 568.239 180.17C559.326 199.86 554.13 252.508 554.13 252.508C554.13 252.508 601.78 262.52 636.109 252.589Z" fill="#BB6BD9"/>
<path d="M583.624 158.676C583.624 158.676 583.863 166.565 584.128 168.339C584.21 168.882 585.317 170.564 586.257 171.201C589.562 168.826 592.298 169.385 593.338 168.339C592.535 166.124 592.12 162.882 592.12 158.676C592.116 154.693 583.624 158.676 583.624 158.676Z" fill="#F2994A"/>
<path d="M593.192 152.273C593.192 152.273 591.35 162.995 584.591 163.205C577.833 163.415 582.065 148.606 583.08 148.2C584.097 147.79 590.687 146.353 593.192 152.273Z" fill="#F2994A"/>
<path d="M586.255 171.201L587.663 166.451L592.929 166.997L597.359 167.926L586.255 171.201Z" fill="#F2F8FF"/>
<path d="M586.255 171.201L584.498 166.451L582.318 169.133L586.255 171.201Z" fill="#F2F8FF"/>
<path d="M664.02 401.085L644.241 291.453L642.294 291.806L662.074 401.437L664.02 401.085Z" fill="#2A2B3B"/>
<path d="M598.459 291.97L596.513 291.618L576.755 401.261L578.702 401.613L598.459 291.97Z" fill="#2A2B3B"/>
<path d="M615.856 291.971L613.91 291.619L594.152 401.261L596.099 401.614L615.856 291.971Z" fill="#2A2B3B"/>
<path d="M666.484 234.528C666.484 234.528 619.968 261.572 584.425 299.608C584.425 299.608 626.99 307.522 648.052 289.493C669.114 271.463 666.484 234.528 666.484 234.528Z" fill="#F2994A"/>
<path d="M650.924 333.229H589.542V335.211H650.924V333.229Z" fill="#2A2B3B"/>
<path d="M580.071 147.07C581.587 152.281 585.861 150.931 590.209 150.162C589.991 151.381 590.167 152.729 590.458 154.019C590.393 154.127 590.341 154.249 590.32 154.398C590.074 156.017 589.906 157.631 589.805 159.268C589.768 159.893 590.246 160.485 590.919 160.382C596.052 159.587 597.913 153.31 596.855 148.749C596.384 146.715 595.199 145.33 593.279 144.596C591.137 143.778 588.913 144.158 586.585 143.762C583.657 143.26 578.629 142.109 580.071 147.07Z" fill="#17171D"/>
<path d="M589.708 154.226C589.708 154.226 590.735 152.251 592.602 152.533C594.469 152.814 594.901 157.274 591.738 157.661C588.577 158.049 589.708 154.226 589.708 154.226Z" fill="#F2994A"/>
<path d="M579.761 366.802C579.791 365.011 541.027 374.453 540.574 377.302C539.955 381.173 579.676 372.033 579.761 366.802Z" fill="#17171D"/>
<path d="M576.65 383.718C576.388 381.272 575.827 379.464 573.756 376.471C573.748 376.432 573.724 376.418 573.724 376.418C572.104 374.101 570.723 372.259 569.234 369.94C564.821 369.94 559.757 371.875 555.2 374.594C556.939 377.946 558.478 381.488 558.497 383.645C558.507 383.992 558.479 384.346 558.412 384.707C557.591 389.53 551.497 394.548 549.507 398.261C548.934 399.24 548.688 400.132 548.906 400.885C549.97 404.741 577.237 389.599 576.65 383.718Z" fill="#F2994A"/>
<path d="M548.866 400.42C548.853 400.59 548.88 400.713 548.928 400.873C549.98 405.034 577.922 389.668 577.338 383.988L577.344 383.96C577.366 383.645 577.332 383.314 577.271 382.975C576.79 380.132 574.128 376.911 573.744 376.463C573.75 376.436 573.724 376.43 573.724 376.43C567.786 383.762 558.41 384.693 558.41 384.693C557.69 388.931 552.935 393.316 550.419 396.802C549.367 398.087 548.76 399.339 548.866 400.42Z" fill="#FFD357"/>
<path d="M548.866 400.42C548.852 400.59 548.88 400.713 548.928 400.873C549.98 405.034 577.922 389.668 577.338 383.988L577.344 383.96C577.366 383.645 577.332 383.314 577.271 382.975C576.139 384.679 573.645 387.851 569.092 390.854C563.205 394.745 556.871 398.554 548.866 400.42Z" fill="#2A2B3B"/>
<g class="BoyRightHand">
<path d="M611.413 184.209C611.413 184.209 586.207 237.456 578.41 242.159C570.613 246.863 554.126 248.35 554.126 248.35C554.126 248.35 579.688 247.967 583.622 244.764C597.476 233.493 611.413 184.209 611.413 184.209Z" fill="#17171D"/>
<path d="M491.351 249.582C491.557 250.942 493.025 252.114 493.804 250.847C493.814 250.831 493.826 250.819 493.834 250.805C493.84 252.258 495.45 253.695 496.306 252.363C498.075 249.614 499.896 246.617 502.923 245.664C505.441 244.873 508.503 245.995 511.125 246.381C513.372 246.712 515.364 246.788 517.538 246.56C525.401 245.735 533.23 244.116 540.764 241.945C541.559 241.717 541.983 240.35 541.36 239.408C538.396 234.919 535.433 230.429 532.47 225.938C531.988 225.208 531.347 225.044 530.821 225.21C530.617 225.21 530.411 225.254 530.206 225.387C522.681 230.215 513.017 232.451 504.08 232.387C497.713 232.342 492.516 234.001 487.712 238.465C486.377 239.706 488.074 242.766 489.421 241.515C492.079 239.045 494.805 237.818 497.629 237.121C497.629 237.224 497.608 237.319 497.618 237.424C494.174 239.755 491.474 242.833 489.294 246.871C488.422 248.49 490.348 250.802 491.351 249.582Z" fill="#F2994A"/>
<path d="M493.666 241.156C493.593 241.156 493.521 241.135 493.456 241.095C493.274 240.978 493.221 240.736 493.338 240.556C494.067 239.414 497.264 237.198 497.398 237.105C497.574 236.982 497.818 237.028 497.94 237.206C498.063 237.382 498.017 237.626 497.841 237.747C496.953 238.362 494.53 240.138 493.994 240.978C493.919 241.093 493.792 241.156 493.666 241.156Z" fill="#2A2B3C"/>
<path d="M491.351 249.973C491.292 249.973 491.231 249.957 491.173 249.929C490.982 249.832 490.906 249.596 491.005 249.404C491.136 249.146 494.287 243.071 499.562 239.624C499.742 239.507 499.983 239.559 500.1 239.739C500.217 239.92 500.167 240.161 499.985 240.278C494.888 243.608 491.729 249.698 491.698 249.759C491.628 249.896 491.492 249.973 491.351 249.973Z" fill="#2A2B3C"/>
<path d="M493.834 251.194C493.766 251.194 493.699 251.176 493.636 251.14C493.452 251.029 493.389 250.792 493.499 250.605C493.65 250.348 497.246 244.286 501.01 242.663C501.208 242.578 501.437 242.669 501.52 242.867C501.605 243.067 501.514 243.295 501.317 243.38C497.784 244.907 494.203 250.94 494.168 251.002C494.097 251.125 493.968 251.194 493.834 251.194Z" fill="#2A2B3C"/>
<path d="M609.609 175.236C586.635 171.173 567.019 202.316 559.047 219.133C551.076 235.949 573.659 244.758 578.341 241.916C583.025 239.071 623.531 177.698 609.609 175.236Z" fill="#C0C0FF"/>
<path d="M513.379 225.533C528.928 218.885 562.192 214.711 572.324 216.707C582.455 218.703 581.44 240.504 578.412 242.161C575.384 243.818 538.282 256.601 516.363 252.782C516.363 252.782 510.332 226.835 513.379 225.533Z" fill="#C0C0FF"/>
</g>
<path d="M135.226 235.959C135.226 235.959 163 230.161 186.528 245.993C210.057 261.822 217.283 301.039 217.283 301.039L142.246 252.669L135.226 235.959Z" fill="#BED0E2"/>
<path d="M228.544 177.789C223.183 174.755 219.083 170.602 217.615 164.471C217.615 164.469 217.613 164.467 217.613 164.465C218.084 162.228 219.085 158.88 217.097 157.518C215.516 156.436 215.536 155.407 214.152 156.301C209.705 159.167 208.233 166.368 207.537 171.524C207.116 174.64 207.177 183.373 208.52 184.39C210.876 186.18 225.583 181.706 228.532 179.502C229.097 179.082 229.254 178.192 228.544 177.789Z" fill="#2A2B3C"/>
<path d="M268.369 281.41C268.203 285.009 268.159 288.635 268.171 292.232C268.165 292.333 268.177 292.43 268.171 292.532C268.149 297.392 268.229 302.258 268.205 307.1C268.157 313.285 267.965 319.427 267.214 325.562C265.531 339.817 259.5 368.239 258.93 373.175C258.884 373.74 258.878 374.001 258.965 373.908C273.593 375.302 289.281 375.357 299.183 379.213C305.111 363.859 316.368 309.269 311.522 290.718C310.271 285.945 268.842 271.311 268.369 281.41Z" fill="#C0C0FF"/>
<path d="M258.96 373.916C258.699 372.142 298.358 376.447 299.179 379.213C300.293 382.971 259.725 379.094 258.96 373.916Z" fill="#17171D"/>
<path d="M271.474 374.097C270.661 379.211 268.646 389.492 268.555 390.58C268.555 390.58 268.531 390.598 268.545 390.64C268.292 394.237 268.729 396.087 269.726 398.295C272.903 393.262 276.475 392.707 282.937 394.112C289.011 395.43 300.98 398.416 299.989 397.876C296.397 395.69 289.091 393.613 285.949 389.896C285.698 389.609 285.487 389.331 285.32 389.02C284.937 388.348 284.818 385.653 285.987 375.93C285.249 375.902 277.533 373.932 271.474 374.097Z" fill="#F2994A"/>
<path d="M270.458 400.427C270.666 400.697 270.869 400.85 271.027 400.864C272.81 400.923 273.233 395.791 274.374 396.192C289.652 401.488 301.863 402.091 303.056 401.02C303.325 400.772 303.433 400.491 303.404 400.194C303.275 398.711 300.259 396.709 298.975 396.217C295.019 394.507 291.727 393.129 285.938 389.875C285.938 389.875 277.403 393.871 268.545 390.596C268.545 390.596 268.525 390.618 268.547 390.638C267.991 395.274 269.447 399.173 270.458 400.427Z" fill="#3F4261"/>
<path d="M284.793 387.894C287.855 391.956 295.155 394.548 295.155 394.548C295.155 394.548 289.712 396.844 268.555 390.586C268.555 390.588 282.172 384.418 284.793 387.894Z" fill="#F2994A"/>
<path d="M271.027 400.863C272.81 400.923 273.233 395.791 274.374 396.191C289.652 401.488 301.863 402.09 303.055 401.02C303.324 400.772 303.433 400.491 303.404 400.193C295.096 401.321 287.753 398.578 279.96 396.38C274.046 394.715 273.646 393.337 271.435 399.391C271.304 399.591 270.869 400.85 271.027 400.863Z" fill="#2A2B3B"/>
<path d="M312.014 292.962C309.67 273.685 245.984 254.102 236.549 250.235C229.883 247.519 219.656 250.478 212.219 251.727C198.234 254.086 191.43 262.53 193.191 282.708C194.338 295.651 211.566 299.001 223.474 302.946C238.171 307.822 280.304 310.743 281.414 310.999C294.627 314.052 314.101 310.121 312.014 292.962Z" fill="#C0C0FF"/>
<path d="M255.761 266.217C255.761 266.217 302.63 275.188 306.349 290.549C310.068 305.911 271.107 371.084 271.107 371.084L297.458 294.761L255.761 266.217Z" fill="#17171D"/>
<path d="M303.38 293.544C303.36 293.503 303.36 293.465 303.36 293.423C301.006 274.157 234.189 261.313 224.754 257.45C218.088 254.734 210.987 250.948 203.549 252.197C195.796 253.505 190.257 256.677 187.171 262.682C184.659 267.519 183.73 274.179 184.521 283.178C185.668 296.121 202.897 299.471 214.804 303.415C223.804 306.408 243.09 308.65 256.956 310.016C261.446 310.452 265.363 310.789 268.171 311.047C270.861 311.285 272.543 311.423 272.76 311.465C283.936 314.042 299.582 311.643 302.866 300.442C303.321 298.997 303.538 297.39 303.519 295.626C303.499 294.97 303.459 294.256 303.38 293.544Z" fill="#BB6BD9"/>
<path d="M303.501 296.506C302.822 283.994 265.999 271.093 262.619 280.617C261.416 284.012 260.322 287.467 259.292 290.912C259.256 291.007 259.24 291.106 259.205 291.2C257.775 295.846 256.442 300.526 255.014 305.152C253.176 311.055 251.21 316.876 248.711 322.529C242.969 335.681 228.959 361.122 226.983 365.676C226.775 366.206 226.694 366.453 226.805 366.39C240.398 371.98 255.393 376.6 263.75 383.173C273.874 370.206 295.662 321.362 301.869 303.227C302.547 301.308 303.026 299.741 303.299 298.581C303.322 298.444 303.364 298.309 303.386 298.173C303.499 297.608 303.55 297.055 303.501 296.506Z" fill="#BB6BD9"/>
<path d="M270.011 303.156C269.675 304.623 269.022 307.398 268.171 311.043C263.978 329.1 245.264 364.049 246.391 373.365C246.391 373.365 228.943 366.089 226.807 366.386C226.807 366.386 238.535 343.284 246.31 327.764C249.078 322.24 252.052 315.727 252.903 309.602C239.037 308.236 223.806 306.405 214.804 303.412C202.897 299.467 185.668 296.117 184.521 283.174C183.73 274.175 184.659 267.517 187.171 262.678L192.927 259.051C192.927 259.051 206.734 286.425 231.281 291.38C242.536 293.659 252.031 294.492 258.815 295.562C266.826 296.833 271.079 298.438 270.011 303.156Z" fill="#C0C0FF"/>
<path d="M226.799 366.396C227.062 364.622 263.764 380.289 263.746 383.173C263.725 387.092 226.028 371.571 226.799 366.396Z" fill="#17171D"/>
<g class='girlLeftHand'>
<path d="M309.191 199.819C309.235 199.759 309.288 199.712 309.33 199.648C309.935 198.729 308.242 197.533 307.635 198.455C307.593 198.519 307.53 198.562 307.485 198.62C307.33 198.065 306.563 197.49 305.684 198.172C305.431 198.37 301.867 201.208 297.941 201.64C298.566 201.006 299.624 199.962 300.552 199.504C301.539 199.018 300.852 197.43 299.865 197.932C299.709 198.009 298.449 198.689 298.305 198.834C293.993 201.504 290.389 205.732 287.782 210.071C287.301 210.744 286.846 211.438 286.437 212.178C286.29 212.441 286.391 212.806 286.559 213.032C287.41 214.177 289.837 216.209 291.006 217.024C291.124 217.105 291.253 217.143 291.379 217.163C291.259 218.053 292.628 218.536 293.005 217.591C294.014 215.062 296.53 210.764 296.556 210.731C301.167 209.167 305.605 207.577 309.415 204.534C310.184 203.92 309.391 202.568 308.606 202.814C308.596 202.81 308.588 202.804 308.578 202.8C308.59 202.79 308.6 202.778 308.612 202.77C308.853 202.61 309.826 201.684 310.076 201.361C310.562 200.739 309.797 199.857 309.191 199.819Z" fill="#F2994A"/>
<path d="M299.064 203.696C298.953 203.696 298.853 203.621 298.823 203.506C298.791 203.375 298.872 203.238 299.005 203.208C303.258 202.166 307.277 198.477 307.316 198.441C307.419 198.348 307.575 198.356 307.666 198.455C307.759 198.556 307.754 198.713 307.653 198.806C307.485 198.961 303.499 202.618 299.123 203.69C299.102 203.694 299.082 203.696 299.064 203.696Z" fill="#2A2B3C"/>
<path d="M300.122 205.69C300.006 205.69 299.903 205.609 299.879 205.488C299.853 205.355 299.94 205.224 300.075 205.198C303.641 204.503 308.972 199.684 309.025 199.634C309.126 199.541 309.28 199.549 309.375 199.652C309.466 199.753 309.459 199.91 309.358 200.003C309.136 200.205 303.871 204.962 300.17 205.686C300.154 205.688 300.138 205.69 300.122 205.69Z" fill="#2A2B3C"/>
<path d="M301.161 207.252C301.052 207.252 300.953 207.181 300.921 207.07C300.886 206.939 300.963 206.8 301.093 206.766C303.766 206.029 308.416 202.647 308.462 202.614C308.571 202.528 308.725 202.554 308.808 202.667C308.889 202.778 308.863 202.933 308.754 203.012C308.561 203.153 303.983 206.483 301.226 207.242C301.204 207.25 301.182 207.252 301.161 207.252Z" fill="#2A2B3C"/>
<path d="M217.51 181.22C222.999 177.064 246.791 207.973 267.56 223.628C282.407 234.82 256.687 252.839 251.971 250.054C247.254 247.267 206.229 189.758 217.51 181.22Z" fill="#EDF1F4"/>
<path d="M288.608 202.114C273.466 208.679 260.441 222.116 252.12 228.243C243.798 234.37 249.9 250.019 253.346 250.229C256.792 250.435 286.454 241.844 298.934 229.987C298.934 229.985 291.648 200.796 288.608 202.114Z" fill="#EDF1F4"/>
<path d="M225.134 187.96C225.134 187.96 250.518 236.021 258.661 239.759C266.803 243.495 298.933 229.985 298.933 229.985C298.933 229.985 291.66 237 274.299 244.645C258.661 251.535 253.304 251.539 251.969 250.052C221.009 215.555 228.668 219.402 225.134 187.96Z" fill="#E4EAEF"/>
</g>
<path d="M171.056 266.417C171.056 266.417 180.08 189.466 197.328 182.081C211.42 176.045 224.554 180.075 227.187 195.016C229.602 208.729 234.12 226.607 236.944 233.7C239.682 240.578 248.3 254.124 248.3 254.124C248.3 254.124 206.146 273.162 171.056 266.417Z" fill="#EDF1F4"/>
<path d="M218.163 171.353C218.163 171.353 216.262 178.679 216.116 180.467C216.072 181.012 215.079 182.766 214.183 183.468C210.726 181.32 208.036 182.063 206.928 181.088C207.581 178.822 209.155 175.873 209.689 171.928C210.221 167.98 218.163 171.353 218.163 171.353Z" fill="#F2994A"/>
<path d="M206.423 165.569C206.423 165.569 210.385 175.698 217.047 174.539C223.709 173.377 216.585 159.73 215.507 159.538C214.429 159.344 207.683 159.264 206.423 165.569Z" fill="#F2994A"/>
<path d="M211.386 156.134C211.321 156.162 211.279 156.206 211.222 156.24C206.117 155.377 202.778 161.252 204.148 166.259C204.669 168.156 207.05 171.355 209.188 169.254C210.253 168.208 210.298 165.952 210.452 164.586C210.532 163.887 210.549 163.207 210.534 162.527C210.925 162.6 211.329 162.628 211.744 162.634C214.589 163.032 217.443 163.304 220.319 163.373C220.865 163.387 221.29 162.909 221.308 162.382C221.46 157.649 215.477 154.517 211.386 156.134Z" fill="#2A2B3C"/>
<path d="M214.183 183.466L212.46 178.822L207.598 179.151L202.827 180.085L214.183 183.466Z" fill="#FFD357"/>
<path d="M214.183 183.466L215.619 178.608L217.682 181.468L214.183 183.466Z" fill="#FFD357"/>
<path d="M199.17 186.78C199.17 186.78 214.264 209.184 217.755 231.44C221.245 253.695 236.942 258.508 236.942 258.508C236.942 258.508 205.65 272.52 171.056 266.415C171.056 266.417 180.147 202.38 199.17 186.78Z" fill="#E4EAEF"/>
<path d="M227.925 275.541C226.928 272.744 225.474 270.361 223.438 268.221C223.456 268.163 223.452 268.104 223.464 268.046C225.272 269.117 226.951 270.462 228.447 272.492C229.202 273.521 230.682 272.203 229.932 271.184C227.23 267.513 223.951 265.333 219.696 263.83C213.724 261.723 207.527 258.143 203.053 253.618C202.93 253.495 202.8 253.42 202.663 253.374C202.331 253.154 201.884 253.091 201.478 253.388C198.994 255.208 196.508 257.029 194.021 258.849C193.501 259.23 193.628 260.102 194.132 260.423C198.915 263.452 203.957 266.244 209.11 268.593C210.536 269.243 211.871 269.679 213.41 270.032C215.204 270.443 217.376 270.546 218.966 271.594C220.877 272.857 221.755 274.984 222.624 276.958C223.043 277.911 224.281 277.491 224.449 276.67C224.453 276.682 224.459 276.692 224.463 276.702C224.841 277.604 225.952 277.295 226.243 276.577C226.777 277.505 228.326 276.665 227.925 275.541Z" fill="#F2994A"/>
<path d="M225.699 271.299C225.604 271.299 225.513 271.243 225.474 271.15C225.207 270.542 223.784 268.952 223.258 268.389C223.165 268.288 223.171 268.131 223.27 268.038C223.367 267.941 223.525 267.951 223.62 268.048C223.699 268.133 225.573 270.141 225.927 270.952C225.982 271.077 225.925 271.224 225.8 271.277C225.767 271.293 225.733 271.299 225.699 271.299Z" fill="#2A2B3C"/>
<path d="M226.245 276.823C226.142 276.823 226.045 276.758 226.01 276.653C225.996 276.611 224.574 272.411 221.537 269.301C221.442 269.202 221.445 269.045 221.541 268.95C221.638 268.853 221.794 268.857 221.891 268.952C225.011 272.147 226.467 276.452 226.48 276.498C226.524 276.627 226.453 276.768 226.324 276.809C226.298 276.819 226.271 276.823 226.245 276.823Z" fill="#2A2B3C"/>
<path d="M224.451 276.916C224.352 276.916 224.259 276.857 224.222 276.76C224.204 276.718 222.491 272.441 220.289 270.72C220.18 270.637 220.163 270.48 220.246 270.371C220.329 270.262 220.485 270.246 220.592 270.33C222.902 272.133 224.609 276.397 224.68 276.577C224.73 276.702 224.669 276.849 224.542 276.898C224.51 276.91 224.481 276.916 224.451 276.916Z" fill="#2A2B3C"/>
<path d="M197.698 187.702C204.077 190.283 198.923 230.265 188.815 245.886C178.709 261.505 156.55 258.205 156.508 252.718C156.467 247.23 184.588 182.398 197.698 187.702Z" fill="white"/>
<path d="M216.38 259.551C202.976 249.914 184.775 245.63 175.253 241.628C165.73 237.626 155.472 250.92 157.067 253.987C158.661 257.055 181.268 278.129 197.834 282.758C197.836 282.758 219.07 261.485 216.38 259.551Z" fill="white"/>
<path d="M176.773 207.973C176.773 207.973 165.864 239.767 166.853 248.687C167.842 257.606 197.835 282.758 197.835 282.758C197.835 282.758 188.091 280.115 172.617 269.128C158.68 259.232 156.12 254.679 156.508 252.718C156.896 250.756 161.473 233.081 176.773 207.973Z" fill="#EDF1F4"/>
<path d="M237.394 369.706C236.037 372.761 233.211 377.841 232.584 378.737C232.584 378.737 232.556 378.739 232.546 378.782C230.525 381.766 229.975 383.585 229.729 385.997C234.999 383.244 238.367 384.562 243.249 389.028C247.842 393.224 256.696 401.829 256.108 400.865C254.097 397.169 248.821 391.694 247.967 386.899C247.893 386.527 247.85 386.178 247.862 385.825C247.868 385.05 249.877 379.088 251.394 375.779C250.775 375.383 241.771 371.27 237.394 369.706Z" fill="#F2994A"/>
<path d="M229.295 388.208C229.339 388.546 229.438 388.78 229.568 388.873C231.081 389.823 234.017 385.597 234.804 386.515C245.361 398.784 255.619 405.45 257.185 405.123C257.541 405.046 257.777 404.857 257.901 404.586C258.532 403.236 256.928 399.991 256.064 398.919C253.5 395.448 251.344 392.6 247.97 386.872C247.97 386.872 238.588 386.031 232.567 378.745C232.567 378.745 232.541 378.753 232.549 378.78C229.742 382.511 229.05 386.616 229.295 388.208Z" fill="#3F4261"/>
<path d="M247.972 384.584C248.585 389.639 253.597 395.553 253.597 395.553C253.597 395.553 247.74 394.798 232.581 378.743C232.581 378.743 247.448 380.261 247.972 384.584Z" fill="#F2994A"/>
<path d="M229.569 388.873C231.082 389.823 234.017 385.597 234.805 386.515C245.361 398.784 255.619 405.45 257.186 405.123C257.542 405.046 257.777 404.857 257.902 404.586C250.154 401.379 245.177 395.311 239.542 389.49C235.262 385.074 235.606 383.68 230.663 387.801C230.447 387.912 229.438 388.78 229.569 388.873Z" fill="#2A2B3B"/>
<path d="M217.016 180.874C212.575 176.6 209.636 171.557 209.733 165.252C209.733 165.25 209.733 165.248 209.733 165.246C210.743 163.197 212.543 160.202 210.955 158.388C209.691 156.947 209.968 155.954 208.403 156.475C203.387 158.146 200.175 164.755 198.222 169.571C197.042 172.487 194.937 180.959 195.983 182.281C197.821 184.602 213.176 183.928 216.579 182.529C217.233 182.263 217.605 181.44 217.016 180.874Z" fill="#2A2B3C"/>
<path d="M210.229 166.779C210.229 166.779 208.827 165.052 207.052 165.704C205.28 166.358 205.755 170.812 208.932 170.555C212.106 170.297 210.229 166.779 210.229 166.779Z" fill="#F2994A"/>
<path d="M209.614 169.647C209.252 169.383 208.789 169.91 209.153 170.176C209.723 170.588 210.579 171.904 209.656 172.406C208.829 172.856 207.31 171.926 207.992 170.959C208.249 170.592 207.725 170.126 207.464 170.497C206.457 171.928 208.03 173.486 209.545 173.179C211.418 172.796 210.755 170.475 209.614 169.647Z" fill="#FFD357"/>
<path d="M159.426 293.394L157.48 293.042L137.723 402.685L139.669 403.037L159.426 293.394Z" fill="#2A2B3B"/>
<path d="M224.994 402.537L205.215 292.906L203.268 293.258L223.048 402.89L224.994 402.537Z" fill="#2A2B3B"/>
<path d="M207.598 402.538L187.818 292.906L185.872 293.259L205.651 402.891L207.598 402.538Z" fill="#2A2B3B"/>
<path d="M135.226 235.959C135.226 235.959 181.071 265.931 216.614 303.968C216.614 303.968 174.718 308.956 153.656 290.926C132.594 272.896 135.226 235.959 135.226 235.959Z" fill="#F2994A"/>
<path d="M212.166 334.662H150.786V336.644H212.166V334.662Z" fill="#2A2B3B"/>
<path d="M520.359 253.497H240.799V258.782H520.359V253.497Z" fill="#2A2B3B"/>
<path d="M241.13 403.809C241.086 403.809 241.041 403.807 240.997 403.799C240.455 403.728 240.076 403.228 240.149 402.683L259.929 256.005C260.002 255.463 260.495 255.067 261.043 255.156C261.585 255.228 261.964 255.727 261.891 256.272L242.111 402.951C242.042 403.448 241.616 403.809 241.13 403.809Z" fill="#2A2B3C"/>
<path d="M326.471 403.809C325.983 403.809 325.56 403.448 325.492 402.951L305.712 256.272C305.639 255.729 306.019 255.23 306.561 255.156C307.097 255.065 307.599 255.462 307.674 256.005L327.454 402.683C327.528 403.226 327.148 403.726 326.606 403.799C326.56 403.807 326.515 403.809 326.471 403.809Z" fill="#2A2B3C"/>
<path d="M422.028 403.809C421.984 403.809 421.939 403.807 421.895 403.799C421.353 403.728 420.973 403.228 421.047 402.683L440.827 256.005C440.902 255.463 441.4 255.067 441.94 255.156C442.482 255.228 442.862 255.727 442.789 256.272L423.009 402.951C422.939 403.448 422.514 403.809 422.028 403.809Z" fill="#2A2B3C"/>
<path d="M507.369 403.809C506.881 403.809 506.458 403.448 506.39 402.951L486.61 256.272C486.537 255.729 486.917 255.23 487.459 255.156C488.003 255.065 488.497 255.462 488.572 256.005L508.352 402.683C508.426 403.226 508.046 403.726 507.504 403.799C507.458 403.807 507.413 403.809 507.369 403.809Z" fill="#2A2B3C"/>
<path d="M359.04 246.895H303.625L317.475 210.625H372.89L359.04 246.895Z" fill="#E4EAEF"/>
<path d="M353.537 246.895H307.484L320.492 212.73H366.544L353.537 246.895Z" fill="white"/>
<path d="M337.062 233.63H315.774L321.471 218.669H342.759L337.062 233.63Z" fill="#E4EAEF"/>
<path d="M357.615 226.152H342.41L345.259 218.669H360.464L357.615 226.152Z" fill="#E4EAEF"/>
<path d="M359.04 246.895H255.168V253.489H359.04V246.895Z" fill="#E4EAEF"/>
<path d="M357.172 228.264H341.793V229.256H357.172V228.264Z" fill="#C4CFD9"/>
<path d="M355.936 231.696H340.557V232.687H355.936V231.696Z" fill="#C4CFD9"/>
<path d="M354.28 237.012H314.884V238.003H354.28V237.012Z" fill="#C4CFD9"/>
<path d="M352.467 241.705H313.07V242.696H352.467V241.705Z" fill="#C4CFD9"/>
<path d="M364.659 246.895H357.172L371.022 210.625H378.509L364.659 246.895Z" fill="#BED0E2"/>
<path d="M364.659 246.895H284.751V253.489H364.659V246.895Z" fill="#BED0E2"/>
<path class="sheet" d="M78.1838 349.906C76.7339 344.604 75.6203 337.004 71.9412 332.679C65.4651 325.064 42.7713 343.987 44.0036 343.652C48.5214 342.425 53.2765 340.544 57.9031 339.88C65.2514 338.824 67.8565 343.985 70.5327 349.636C74.1387 357.256 76.1919 365.434 81.0084 372.457C81.6651 373.412 82.9903 372.798 82.8163 371.692C81.6572 364.348 80.148 357.075 78.1838 349.906Z" fill="#56CCF2"/>
<path class="sheet del02" d="M89.2983 343.258C89.0767 336.011 89.6504 325.744 86.0188 319.185C82.7926 313.357 74.0319 311.982 68.2284 310.378C59.442 307.95 40.085 307.232 41.1413 307.516C47.8963 309.322 54.7086 310.985 61.416 312.961C69.3954 315.314 74.6471 319.375 76.9792 327.629C80.9649 341.73 82.7549 356.784 85.5182 371.178C85.5875 371.537 85.7992 371.735 86.0544 371.824C86.4698 372.451 87.7713 372.266 87.8998 371.254C89.0689 361.963 89.587 352.619 89.2983 343.258Z" fill="#56CCF2"/>
<path class="sheet del 05" d="M62.9608 276.03C76.9929 305.684 88.9125 335.046 86.8613 366.084C86.8395 366.401 86.9879 366.637 87.2253 366.796C86.9405 367.713 86.6971 368.633 86.3826 369.547C85.9534 370.782 88.6238 371.341 88.9442 370.074C103.38 313.026 62.3733 274.785 62.9608 276.03Z" fill="#343751"/>
<path class="sheet" d="M125.591 295.597C115.762 302.897 106.58 311.649 101.793 323.161C96.1758 336.671 97.5228 351.858 92.4749 365.555C92.3582 365.868 92.4097 366.132 92.5501 366.334C92.5422 366.356 92.5362 366.375 92.5283 366.391C92.0872 367.591 94 368.108 94.4352 366.921C99.135 354.11 103.214 340.802 108.902 328.396C113.966 317.351 122.11 308.219 126.944 296.955C127.28 296.17 126.489 294.929 125.591 295.597Z" fill="#56CCF2"/>
<path class="sheet del04" d="M135.05 362.693C131.394 352.756 126.345 346.11 114.939 347.464C104.278 348.731 98.2942 354.939 92.6726 363.509C92.5955 363.601 92.5402 363.696 92.5105 363.795C92.0021 364.792 93.4876 365.65 94.1918 364.758C94.1937 364.756 94.1938 364.756 94.1957 364.754C100.098 359.928 106.056 355.434 114.023 355.436C120.763 355.438 129.691 357.055 133.238 363.456C133.774 364.415 135.445 363.767 135.05 362.693Z" fill="#343751"/>
<path d="M98.5949 400.859H76.7852L70.5169 362.734H104.863L98.5949 400.859Z" fill="#BED0E2"/>
<path d="M269.722 53.0829H370.168C378.135 53.0829 384.596 59.5566 384.596 67.5426V122.714C384.596 130.698 378.135 137.173 370.168 137.173H307.356L292.133 157.708C290.515 159.895 287.052 158.743 287.056 156.021L287.079 137.171H269.724C261.755 137.171 255.296 130.696 255.296 122.712V67.5426C255.294 59.5566 261.753 53.0829 269.722 53.0829Z" fill="#EDF1F4"/>
<g class="message">
<path d="M346.958 75.0093H310.028C309.534 75.0093 309.13 74.607 309.13 74.1094C309.13 73.6119 309.532 73.2096 310.028 73.2096H346.958C347.452 73.2096 347.856 73.6119 347.856 74.1094C347.856 74.607 347.454 75.0093 346.958 75.0093Z" fill="#2A2B3C"/>
<path d="M303.307 75.0093H288.353C287.859 75.0093 287.455 74.607 287.455 74.1094C287.455 73.6119 287.857 73.2096 288.353 73.2096H303.307C303.801 73.2096 304.205 73.6119 304.205 74.1094C304.205 74.607 303.801 75.0093 303.307 75.0093Z" fill="#2A2B3C"/>
</g>
<g class="message del02">
<path d="M346.958 89.6237H327.284C326.79 89.6237 326.386 89.2213 326.386 88.7238C326.386 88.2263 326.788 87.8239 327.284 87.8239H346.958C347.452 87.8239 347.856 88.2263 347.856 88.7238C347.856 89.2213 347.454 89.6237 346.958 89.6237Z" fill="#2A2B3C"/>
<path d="M321.449 89.6237H288.355C287.861 89.6237 287.457 89.2213 287.457 88.7238C287.457 88.2263 287.859 87.8239 288.355 87.8239H321.449C321.944 87.8239 322.347 88.2263 322.347 88.7238C322.347 89.2213 321.944 89.6237 321.449 89.6237Z" fill="#2A2B3C"/>
</g>
<g class="message del04">
<path d="M352.32 103.641H322.618C322.124 103.641 321.72 103.239 321.72 102.741C321.72 102.244 322.122 101.842 322.618 101.842H352.32C352.815 101.842 353.218 102.244 353.218 102.741C353.218 103.239 352.817 103.641 352.32 103.641Z" fill="#2A2B3C"/>
<path d="M317.212 103.641H305.186C304.692 103.641 304.288 103.239 304.288 102.741C304.288 102.244 304.69 101.842 305.186 101.842H317.212C317.707 101.842 318.11 102.244 318.11 102.741C318.11 103.239 317.707 103.641 317.212 103.641Z" fill="#2A2B3C"/>
</g>
<g class="message del06">
<path d="M352.32 117.261H336.498C336.004 117.261 335.6 116.858 335.6 116.361C335.6 115.863 336.002 115.461 336.498 115.461H352.32C352.815 115.461 353.218 115.863 353.218 116.361C353.218 116.858 352.817 117.261 352.32 117.261Z" fill="#2A2B3C"/>
<path d="M331.804 117.261H305.186C304.692 117.261 304.288 116.858 304.288 116.361C304.288 115.863 304.69 115.461 305.186 115.461H331.804C332.299 115.461 332.702 115.863 332.702 116.361C332.702 116.858 332.299 117.261 331.804 117.261Z" fill="#2A2B3C"/>
</g>
<path d="M370.453 109.334C369.657 109.378 369.056 109.499 368.655 109.695C368.251 109.893 367.907 110.224 367.618 110.686C367.329 111.15 367.124 111.732 367.005 112.432C366.918 112.955 366.875 113.861 366.875 115.15C366.875 117.267 366.78 118.747 366.588 119.588C366.396 120.43 366.046 121.104 365.533 121.611C365.021 122.119 364.269 122.521 363.278 122.815C362.614 123.011 361.567 123.108 360.139 123.108H359.273V119.179C360.438 119.179 361.201 119.104 361.561 118.959C361.921 118.811 362.185 118.597 362.355 118.321C362.523 118.04 362.61 117.57 362.616 116.902C362.62 116.236 362.665 114.963 362.754 113.086C362.81 111.952 362.956 111.043 363.195 110.359C363.435 109.677 363.753 109.098 364.151 108.624C364.548 108.149 365.058 107.731 365.678 107.37C364.873 106.845 364.283 106.333 363.913 105.832C363.401 105.11 363.053 104.194 362.867 103.078C362.746 102.315 362.661 100.634 362.606 98.0339C362.596 97.2153 362.523 96.6702 362.386 96.3967C362.25 96.1231 362.004 95.913 361.65 95.7663C361.296 95.6197 360.503 95.5463 359.273 95.5463V91.6316H360.139C361.611 91.6316 362.738 91.7465 363.522 91.9745C364.307 92.2044 364.966 92.5949 365.5 93.1459C366.036 93.697 366.396 94.3749 366.588 95.1776C366.778 95.9784 366.875 97.243 366.875 98.9675C366.875 100.967 366.955 102.272 367.12 102.884C367.359 103.756 367.725 104.383 368.216 104.757C368.706 105.134 369.452 105.35 370.455 105.405V109.334H370.453Z" fill="#5E8E3E"/>
<path d="M268.323 79.9825C269.324 79.927 270.072 79.711 270.563 79.3344C271.053 78.9598 271.417 78.3314 271.659 77.4593C271.823 76.8488 271.904 75.5445 271.904 73.5445C271.904 71.8201 271.999 70.5555 272.191 69.7527C272.381 68.9519 272.742 68.274 273.278 67.723C273.811 67.172 274.471 66.7815 275.256 66.5515C276.04 66.3236 277.169 66.2066 278.639 66.2066H279.505V70.1234C278.273 70.1234 277.482 70.1967 277.128 70.3434C276.774 70.4901 276.529 70.7021 276.392 70.9737C276.258 71.2472 276.184 71.7923 276.172 72.611C276.119 75.2095 276.03 76.8904 275.911 77.6555C275.727 78.7695 275.377 79.6852 274.867 80.4067C274.495 80.9102 273.908 81.4236 273.1 81.9468C273.722 82.3076 274.23 82.7258 274.627 83.1996C275.025 83.6733 275.344 84.2541 275.583 84.9359C275.822 85.6178 275.969 86.5276 276.026 87.6633C276.113 89.5404 276.159 90.813 276.165 91.479C276.171 92.145 276.257 92.6167 276.426 92.8962C276.596 93.1757 276.859 93.3878 277.219 93.5344C277.579 93.6811 278.34 93.7545 279.507 93.7545V97.6851H278.641C277.213 97.6851 276.168 97.5859 275.502 97.3917C274.511 97.0964 273.759 96.694 273.247 96.1866C272.735 95.6791 272.382 95.0052 272.193 94.1628C272.001 93.3224 271.906 91.8437 271.906 89.7268C271.906 88.4384 271.862 87.5325 271.775 87.0073C271.655 86.3076 271.449 85.7268 271.16 85.263C270.871 84.7991 270.527 84.4701 270.124 84.2719C269.72 84.0757 269.121 83.9567 268.326 83.9111V79.9825H268.323Z" fill="#5E8E3E"/>
<path d="M548.976 27H437.343C428.488 27 421.308 34.2221 421.308 43.1315V104.681C421.308 113.588 428.488 120.812 437.343 120.812H507.151L524.069 143.722C525.867 146.161 529.716 144.876 529.712 141.84L529.686 120.81H548.974C557.831 120.81 565.008 113.586 565.008 104.679V43.1315C565.01 34.2221 557.833 27 548.976 27Z" fill="#EDF1F4"/>
<g clip-path="url(#clip0)">
<g class="ring">
<path d="M461.777 62.4645C461.753 62.2965 461.607 62.2058 461.484 62.1952C461.363 62.1845 458.79 61.9951 458.79 61.9951C458.79 61.9951 457.004 60.235 456.808 60.0403C456.612 59.8456 456.23 59.9043 456.079 59.947C456.058 59.9523 455.689 60.067 455.079 60.2537C454.485 58.5522 453.431 56.9867 451.578 56.9867C451.527 56.9867 451.474 56.9894 451.422 56.9921C450.893 56.3014 450.242 56 449.677 56C445.362 56 443.3 61.3524 442.652 64.0726C440.974 64.5873 439.783 64.9554 439.63 65.0007C438.694 65.2914 438.665 65.3207 438.541 66.1955C438.449 66.8595 436 85.6503 436 85.6503L455.09 89.1973L465.433 86.9784C465.431 86.9784 461.801 62.6299 461.777 62.4645ZM454.025 60.579C453.547 60.7257 453.001 60.8937 452.409 61.0751C452.409 60.9631 452.409 60.851 452.409 60.7284C452.409 59.6696 452.261 58.8162 452.025 58.1415C452.979 58.2615 453.616 59.3389 454.025 60.579ZM450.842 58.3522C451.108 59.0109 451.28 59.9576 451.28 61.2377C451.28 61.3017 451.28 61.3631 451.28 61.4244C450.229 61.7471 449.089 62.0965 447.943 62.4485C448.586 59.987 449.788 58.8002 450.842 58.3522ZM449.559 57.1494C449.745 57.1494 449.933 57.2108 450.113 57.3334C448.728 57.9788 447.247 59.6056 446.62 62.8539C445.706 63.1339 444.811 63.4086 443.983 63.6646C444.717 61.1871 446.459 57.1494 449.559 57.1494Z" fill="#95BF47"/>
<path d="M461.486 62.1951C461.365 62.1845 458.792 61.9951 458.792 61.9951C458.792 61.9951 457.007 60.235 456.811 60.0403C456.738 59.9683 456.639 59.931 456.534 59.915L455.09 89.1973L465.431 86.9784C465.431 86.9784 461.801 62.6298 461.777 62.4645C461.755 62.2965 461.607 62.2031 461.486 62.1951Z" fill="#5E8E3E"/>
<path d="M451.578 67.8623L450.304 71.6252C450.304 71.6252 449.186 71.0332 447.817 71.0332C445.808 71.0332 445.709 72.2839 445.709 72.5986C445.709 74.3161 450.226 74.9748 450.226 79.0018C450.226 82.1701 448.201 84.2075 445.47 84.2075C442.192 84.2075 440.517 82.1861 440.517 82.1861L441.394 79.3112C441.394 79.3112 443.117 80.7779 444.569 80.7779C445.518 80.7779 445.905 80.0365 445.905 79.4952C445.905 77.2523 442.2 77.1537 442.2 73.4707C442.2 70.3691 444.443 67.3689 448.973 67.3689C450.715 67.3662 451.578 67.8623 451.578 67.8623Z" fill="white"/>
</g>
<path d="M477.49 74.9162C476.457 74.3614 475.927 73.8921 475.927 73.2494C475.927 72.4306 476.664 71.9052 477.815 71.9052C479.154 71.9052 480.35 72.46 480.35 72.46L481.294 69.5957C481.294 69.5957 480.426 68.9237 477.877 68.9237C474.325 68.9237 471.865 70.9398 471.865 73.7774C471.865 75.3855 473.013 76.6123 474.545 77.4897C475.782 78.1911 476.226 78.6871 476.226 79.4178C476.226 80.1779 475.607 80.7913 474.457 80.7913C472.744 80.7913 471.125 79.9139 471.125 79.9139L470.122 82.7781C470.122 82.7781 471.617 83.7728 474.131 83.7728C477.785 83.7728 480.41 81.9887 480.41 78.7751C480.407 77.0497 479.081 75.8229 477.49 74.9162Z" fill="black"/>
<path d="M492.046 68.8944C490.247 68.8944 488.833 69.7424 487.744 71.0279L487.685 70.9985L489.247 62.9019H485.179L481.23 83.5115H485.298L486.653 76.4656C487.182 73.8067 488.567 72.1693 489.866 72.1693C490.78 72.1693 491.132 72.7827 491.132 73.6601C491.132 74.2148 491.073 74.8868 490.955 75.4442L489.422 83.5115H493.49L495.082 75.1802C495.259 74.3028 495.378 73.252 495.378 72.548C495.378 70.2678 494.17 68.8944 492.046 68.8944Z" fill="black"/>
<path d="M504.573 68.8943C499.679 68.8943 496.44 73.2787 496.44 78.1617C496.44 81.29 498.384 83.8022 502.04 83.8022C506.845 83.8022 510.085 79.5352 510.085 74.5348C510.085 71.6439 508.375 68.8943 504.573 68.8943ZM502.57 80.7059C501.185 80.7059 500.596 79.5378 500.596 78.0764C500.596 75.7669 501.804 71.9959 504.014 71.9959C505.458 71.9959 505.928 73.2227 505.928 74.4228C505.928 76.9056 504.721 80.7059 502.57 80.7059Z" fill="black"/>
<path d="M520.487 68.8943C517.742 68.8943 516.186 71.2919 516.186 71.2919H516.126L516.363 69.129H512.768C512.591 70.5905 512.268 72.812 511.943 74.4788L509.114 89.2399H513.182L514.301 83.2768H514.389C514.389 83.2768 515.226 83.8022 516.777 83.8022C521.552 83.8022 524.676 78.9485 524.676 74.0387C524.674 71.3212 523.464 68.8943 520.487 68.8943ZM516.597 80.7619C515.54 80.7619 514.916 80.1779 514.916 80.1779L515.594 76.4069C516.065 73.8921 517.393 72.2279 518.807 72.2279C520.044 72.2279 520.428 73.3667 520.428 74.4494C520.428 77.0496 518.866 80.7619 516.597 80.7619Z" fill="black"/>
<path d="M530.479 63.1072C529.183 63.1072 528.15 64.1313 528.15 65.4461C528.15 66.6435 528.917 67.4622 530.065 67.4622H530.124C531.39 67.4622 532.482 66.6142 532.511 65.1234C532.511 63.9553 531.715 63.1072 530.479 63.1072Z" fill="black"/>
<path d="M524.792 83.5115H528.857L531.629 69.217H527.532L524.792 83.5115Z" fill="black"/>
<path d="M541.973 69.1877H539.144L539.292 68.5157C539.529 67.1422 540.354 65.9128 541.709 65.9128C542.433 65.9128 543.005 66.1181 543.005 66.1181L543.801 62.9606C543.801 62.9606 543.094 62.6085 541.591 62.6085C540.147 62.6085 538.703 63.0166 537.612 63.9526C536.227 65.1207 535.579 66.8169 535.254 68.513L535.136 69.185H533.248L532.659 72.2253H534.547L532.396 83.5088H536.464L538.615 72.2253H541.414L541.973 69.1877Z" fill="black"/>
<path d="M551.757 69.217C551.757 69.217 549.214 75.5695 548.074 79.0391H548.014C547.937 77.9217 547.012 69.217 547.012 69.217H542.739L545.186 82.3434C545.245 82.6368 545.216 82.8101 545.097 83.0155C544.627 83.9222 543.831 84.7996 542.887 85.4423C542.121 85.997 541.266 86.3491 540.588 86.5837L541.707 90.0053C542.532 89.8293 544.242 89.1573 545.686 87.8132C547.544 86.0877 549.251 83.4288 551.02 79.8045L556 69.2224H551.757V69.217Z" fill="black"/>
</g>
<defs>
<clipPath id="clip0">
<rect width="120" height="34" fill="white" transform="translate(436 56)"/>
</clipPath>
</defs>
</svg>
