<svg width="81" height="81" viewBox="0 0 81 81" fill="none" xmlns="http://www.w3.org/2000/svg">
<circle cx="40.3488" cy="40.3488" r="40.3488" fill="#EBF8E3"/>
<path d="M24.4054 39.8443C24.4054 38.8384 25.2209 38.023 26.2267 38.023H35.3333C36.3391 38.023 37.1546 38.8384 37.1546 39.8443C37.1546 40.8502 36.3391 41.6656 35.3333 41.6656H26.2267C25.2209 41.6656 24.4054 40.8502 24.4054 39.8443Z" fill="#AC79FF"/>
<path d="M42.6185 41.6656C43.6243 41.6656 44.4398 40.8502 44.4398 39.8443C44.4398 38.8384 43.6243 38.023 42.6185 38.023C41.6126 38.023 40.7972 38.8384 40.7972 39.8443C40.7972 40.8502 41.6126 41.6656 42.6185 41.6656Z" fill="#AC79FF"/>
<path fill-rule="evenodd" clip-rule="evenodd" d="M22.5841 30.7378C19.5665 30.7378 17.1202 33.1841 17.1202 36.2017V50.7721C17.1202 53.7897 19.5665 56.236 22.5841 56.236H46.2611C48.9692 56.236 51.2171 54.2659 51.6498 51.6807L59.3966 55.0007C61.8002 56.0308 64.4741 54.2677 64.4741 51.6526V35.3212C64.4741 32.7061 61.8002 30.943 59.3966 31.9731L51.6498 35.2932C51.2171 32.708 48.9692 30.7378 46.2611 30.7378H22.5841ZM51.725 39.224V47.7499L60.8315 51.6526L60.8315 35.3212L51.725 39.224ZM48.0824 36.2017C48.0824 35.1958 47.2669 34.3804 46.2611 34.3804H22.5841C21.5783 34.3804 20.7628 35.1958 20.7628 36.2017V50.7721C20.7628 51.778 21.5783 52.5934 22.5841 52.5934H46.2611C47.2669 52.5934 48.0824 51.778 48.0824 50.7721V36.2017Z" fill="#AC79FF"/>
</svg>
