<svg width="100" height="100" viewBox="0 0 100 100" fill="none" xmlns="http://www.w3.org/2000/svg">
<path d="M44.5162 49.6291L32.6774 31.8872L20.8549 49.6291H44.5162Z" fill="#C4A2FC"/>
<path d="M74.5646 52.8547L62.0968 99.6289L62.1936 99.9999L99.9194 52.8547H74.5646Z" fill="#C4A2FC"/>
<path d="M46.2903 52.8547H20.9354L58.6612 99.9999L58.758 99.6289L46.2903 52.8547Z" fill="#C4A2FC"/>
<path d="M47.5161 48.3387L58.4839 31.8871L57.4194 30.2742H35.4839L47.5161 48.3387Z" fill="#C4A2FC"/>
<path d="M50.5322 49.629H70.3225L60.4355 34.7903L50.5322 49.629Z" fill="#C4A2FC"/>
<path d="M73.3387 48.3387L85.371 30.2742H63.4355L62.371 31.8871L73.3387 48.3387Z" fill="#C4A2FC"/>
<path d="M76.3387 49.6291H100L88.1775 31.8872L76.3387 49.6291Z" fill="#C4A2FC"/>
<path d="M71.2258 52.8547H49.6291L60.4355 93.3709L71.2258 52.8547Z" fill="#C4A2FC"/>
<path d="M57.5968 13.371L44.6935 0.467742C44.3844 0.172043 43.9758 0.00537634 43.5484 0H4.83871C2.16667 0 0 2.16667 0 4.83871V75.8065C0 78.4785 2.16667 80.6452 4.83871 80.6452H53.2258C55.8978 80.6452 58.0645 78.4785 58.0645 75.8065V14.5161C58.0591 14.0887 57.8898 13.6801 57.5968 13.371ZM45.1613 5.5L52.5645 12.9032H45.1613V5.5ZM54.8387 75.8065C54.8387 76.6962 54.1156 77.4194 53.2258 77.4194H4.83871C3.94892 77.4194 3.22581 76.6962 3.22581 75.8065V4.83871C3.22581 3.94893 3.94892 3.22581 4.83871 3.22581H41.9355V14.5161C41.9355 15.4059 42.6586 16.129 43.5484 16.129H54.8387V75.8065Z" fill="#151A6A"/>
<path d="M11.5806 40.0806L19.0967 28.2903C19.3548 27.9301 19.4569 27.4811 19.3736 27.0457C19.2902 26.6102 19.0322 26.2285 18.6612 25.9919C18.2876 25.7527 17.8333 25.6747 17.4032 25.7822C16.973 25.8871 16.6075 26.1639 16.387 26.551L8.32251 39.1962C7.99455 39.7177 7.99455 40.3817 8.32251 40.9059L16.387 54.0672C16.8924 54.6693 17.7607 54.8199 18.4408 54.4193C19.1182 54.0188 19.4112 53.1882 19.129 52.4543L11.5806 40.0806Z" fill="#151A6A"/>
<path d="M39.4516 26.0646C38.7043 26.5458 38.4866 27.5431 38.9678 28.2904L46.4839 40.0807L38.9516 52.3872C38.672 53.1237 38.9624 53.9544 39.6398 54.3549C40.3199 54.7528 41.1855 54.6049 41.6936 54.0001L49.7581 40.8388C50.0834 40.3146 50.0834 39.6506 49.7581 39.1291L41.6936 26.4839C41.1909 25.7501 40.1855 25.5619 39.4516 26.0646Z" fill="#151A6A"/>
<path d="M34.758 25.9193C34.3602 25.7606 33.9166 25.766 33.5215 25.9354C33.129 26.1047 32.8172 26.4246 32.6613 26.8225L22.4032 52.6289C22.2446 53.0268 22.25 53.4703 22.422 53.8628C22.5914 54.2553 22.9086 54.5671 23.3064 54.723C23.7043 54.8816 24.1478 54.8762 24.543 54.7069C24.9355 54.5375 25.2446 54.2176 25.4032 53.8198L35.6613 28.0133C35.8199 27.6155 35.8145 27.1719 35.6451 26.7795C35.4758 26.387 35.1559 26.0779 34.758 25.9193Z" fill="#151A6A"/>
</svg>
