<svg width="119" height="100" viewBox="0 0 119 100" fill="none" xmlns="http://www.w3.org/2000/svg">
<path d="M110.794 23.7256H51.7402C46.6444 23.7256 42.5124 27.7919 42.5124 32.8068V90.9223C42.5124 95.9371 46.6444 100.003 51.7402 100.003H110.794C115.89 100.003 120.022 95.9371 120.022 90.9223V32.8068C120.022 27.7885 115.89 23.7256 110.794 23.7256ZM91.9527 78.0023C90.4422 78.9439 86.4854 81.1306 80.9866 81.0582C75.8067 80.9892 72.0848 78.9508 70.5637 78.0023C62.85 73.3014 59.2402 64.1374 61.725 55.5494C64.2098 46.9614 72.1794 41.0395 81.2495 41.0395C90.2985 41.0395 98.2997 46.9925 100.774 55.5494C103.248 64.1064 99.6349 73.3083 91.9527 78.0023Z" fill="#C4A2FC"/>
<path d="M95.0824 0H6.76476C3.28112 0 0.45636 2.77989 0.45636 6.20818V70.3594C0.45636 73.7877 3.28112 76.5676 6.76476 76.5676H40.4096V86.9145H34.1012C32.9411 86.9145 31.9984 87.8423 31.9984 88.9839C31.9984 90.1255 32.9411 91.0533 34.1012 91.0533H67.746C68.906 91.0533 69.8488 90.1255 69.8488 88.9839C69.8488 87.8423 68.906 86.9145 67.746 86.9145H61.4376V76.5676H95.0824C98.566 76.5676 101.391 73.7877 101.391 70.3594V6.20818C101.391 2.77989 98.566 0 95.0824 0ZM57.232 86.9145H44.6152V76.5676H57.232V86.9145ZM97.1852 70.3594C97.1852 71.501 96.2424 72.4288 95.0824 72.4288H6.76476C5.60472 72.4288 4.66196 71.501 4.66196 70.3594V64.1512H97.1852V70.3594ZM97.1852 60.0124H4.66196V6.20818C4.66196 5.06657 5.60472 4.13879 6.76476 4.13879H95.0824C96.2424 4.13879 97.1852 5.06657 97.1852 6.20818V60.0124Z" fill="#151A6A"/>
<path d="M88.774 10.347H13.0732C11.9131 10.347 10.9704 11.2748 10.9704 12.4164V26.9022C10.9704 28.0438 11.9131 28.9716 13.0732 28.9716H88.774C89.934 28.9716 90.8768 28.0438 90.8768 26.9022V12.4164C90.8768 11.2748 89.934 10.347 88.774 10.347ZM86.6712 24.8328H15.176V14.4858H86.6712V24.8328Z" fill="#151A6A"/>
<path d="M88.774 35.1797H13.0732C11.9131 35.1797 10.9704 36.1075 10.9704 37.2491V51.7348C10.9704 52.8764 11.9131 53.8042 13.0732 53.8042H88.774C89.934 53.8042 90.8768 52.8764 90.8768 51.7348V37.2491C90.8768 36.1075 89.934 35.1797 88.774 35.1797ZM86.6712 49.6654H15.176V39.3185H86.6712V49.6654Z" fill="#151A6A"/>
</svg>
