<svg width="164" height="164" viewBox="0 0 164 164" fill="none" xmlns="http://www.w3.org/2000/svg">
<path d="M156.33 118.439L164 93.3452L148.595 87.1375C149.214 79.3035 148.418 71.5872 146.379 64.2271L160.32 55.1974L148.012 32.0516L132.73 38.5598C127.768 32.7547 121.817 27.783 114.977 23.914L118.44 7.67292L93.3476 0L87.1394 15.4047C79.3328 14.7945 71.5882 15.5813 64.2308 17.6195L55.2006 3.68312L32.0536 15.9902L38.559 31.271C32.7536 36.2334 27.7817 42.1841 23.9124 49.0237L7.67031 45.5605L0 70.6548L15.4026 76.8625C14.7924 84.6717 15.5822 92.4128 17.6175 99.7729L3.68039 108.803L15.9912 131.948L31.2698 125.44C36.2357 131.245 42.2114 136.226 49.0267 140.086L45.5601 156.327L70.6558 164L76.8638 148.595C84.6983 149.215 92.415 148.416 99.7755 146.38L108.806 160.317L131.953 148.01L125.444 132.729C131.25 127.763 136.231 121.788 140.091 114.973L156.33 118.439ZM68.1558 127.286C43.1469 119.641 29.0702 93.1655 36.7126 68.1611C44.3581 43.1536 70.8324 29.0747 95.8413 36.7198C120.85 44.3648 134.93 70.8376 127.284 95.845C119.639 120.853 93.1679 134.928 68.1558 127.286Z" fill="#EDF1F4"/>
</svg>
