<svg width="45" height="45" viewBox="0 0 45 45" fill="none" xmlns="http://www.w3.org/2000/svg">
<path d="M42.8954 32.4986L45 25.613L40.7729 23.9097C40.9429 21.7601 40.7244 19.6428 40.1651 17.6233L43.9902 15.1456L40.6131 8.79464L36.4199 10.5804C35.0582 8.98758 33.4253 7.62338 31.5485 6.56177L32.4988 2.10538L25.6137 0L23.9102 4.2269C21.7682 4.05946 19.6431 4.27535 17.6243 4.83463L15.1465 1.01061L8.79518 4.38754L10.5802 8.58045C8.98727 9.9421 7.62302 11.5749 6.56134 13.4516L2.10466 12.5014L0 19.387L4.22633 21.0903C4.05888 23.2331 4.2756 25.3572 4.83407 27.3767L1.00986 29.8544L4.38784 36.2054L8.58014 34.4196C9.94272 36.0124 11.5824 37.3792 13.4524 38.4382L12.5013 42.8946L19.3873 45L21.0907 40.7731C23.2404 40.9431 25.3578 40.7238 27.3774 40.1654L29.8553 43.9894L36.2066 40.6124L34.4207 36.4195C36.0136 35.057 37.3805 33.4175 38.4396 31.5475L42.8954 32.4986ZM18.7013 34.9261C11.8391 32.8284 7.97659 25.5637 10.0736 18.7027C12.1714 11.8409 19.4357 7.97782 26.2979 10.0755C33.1601 12.1733 37.0234 19.4371 34.9256 26.2989C32.8277 33.1608 25.5643 37.023 18.7013 34.9261Z" fill="white" fill-opacity="0.7"/>
</svg>
