<svg width="45" height="46" viewBox="0 0 45 46" fill="none" xmlns="http://www.w3.org/2000/svg">
<path d="M42.8954 33.1974L45 26.3117L40.7729 24.6084C40.9429 22.4588 40.7244 20.3416 40.1651 18.322L43.9902 15.8444L40.6131 9.49337L36.4199 11.2792C35.0582 9.68631 33.4253 8.32211 31.5485 7.2605L32.4988 2.80411L25.6137 0.69873L23.9102 4.92563C21.7682 4.75819 19.6431 4.97408 17.6243 5.53336L15.1465 1.70934L8.79518 5.08627L10.5802 9.27918C8.98727 10.6408 7.62302 12.2736 6.56134 14.1504L2.10466 13.2001L0 20.0857L4.22633 21.789C4.05888 23.9318 4.2756 26.0559 4.83407 28.0754L1.00986 30.5531L4.38784 36.9041L8.58014 35.1183C9.94272 36.7111 11.5824 38.0779 13.4524 39.137L12.5013 43.5933L19.3873 45.6987L21.0907 41.4718C23.2404 41.6418 25.3578 41.4225 27.3774 40.8641L29.8553 44.6881L36.2066 41.3112L34.4207 37.1183C36.0136 35.7558 37.3805 34.1162 38.4396 32.2462L42.8954 33.1974ZM18.7013 35.6249C11.8391 33.5271 7.97659 26.2624 10.0736 19.4015C12.1714 12.5397 19.4357 8.67655 26.2979 10.7743C33.1601 12.872 37.0234 20.1359 34.9256 26.9977C32.8277 33.8595 25.5643 37.7218 18.7013 35.6249Z" fill="#5E8E3E" fill-opacity="0.3"/>
</svg>
