<svg width="100" height="100" viewBox="0 0 100 100" fill="none" xmlns="http://www.w3.org/2000/svg">
<path d="M59.6762 19.3545C43.3674 19.3545 28.6661 29.1795 22.4243 44.2464C16.1825 59.3133 19.6341 76.657 31.1661 88.189C42.6981 99.721 60.0418 103.17 75.1086 96.9307C90.1728 90.6862 99.9978 75.9849 99.9978 59.6762C99.9978 37.4078 81.9445 19.3545 59.6762 19.3545ZM39.5798 63.0954C41.0933 64.6115 41.94 66.6653 41.9346 68.805V72.5791C41.9346 75.2511 44.1013 77.4177 46.7732 77.4177C47.663 77.4177 48.3861 78.1408 48.3861 79.0306C48.3861 79.9203 47.663 80.6434 46.7732 80.6434C42.319 80.6434 38.7089 77.0333 38.7089 72.5791V68.805C38.7089 67.5228 38.1982 66.2916 37.2896 65.3857L32.7252 60.8213C32.4214 60.5175 32.2494 60.1063 32.2494 59.6762C32.2494 59.2461 32.4214 58.8348 32.7252 58.531L37.2896 53.9666C38.1982 53.058 38.7089 51.8296 38.7089 50.5473V46.7732C38.7089 42.319 42.319 38.7089 46.7732 38.7089C47.663 38.7089 48.3861 39.432 48.3861 40.3218C48.3861 41.2115 47.663 41.9346 46.7732 41.9346C44.1013 41.9346 41.9346 44.1012 41.9346 46.7732V50.5473C41.94 52.6871 41.0906 54.7435 39.5798 56.2569L36.1444 59.6762L39.5798 63.0954ZM59.6762 80.6434C57.7192 80.6434 55.9558 79.4634 55.2058 77.6569C54.4559 75.8505 54.8698 73.7699 56.2542 72.3856C57.6386 71.0012 59.7192 70.5872 61.5256 71.3372C63.3347 72.0872 64.5121 73.8506 64.5121 75.8075C64.5148 78.4768 62.3482 80.6434 59.6762 80.6434ZM59.6762 64.5148C57.7192 64.5148 55.9558 63.3347 55.2058 61.5283C54.4559 59.7219 54.8698 57.6386 56.2542 56.2569C57.6386 54.8725 59.7192 54.4585 61.5256 55.2085C63.3347 55.9585 64.5121 57.7219 64.5121 59.6788C64.5148 62.3481 62.3482 64.5148 59.6762 64.5148ZM59.6762 48.3861C57.7192 48.3861 55.9558 47.206 55.2058 45.3996C54.4559 43.5932 54.8698 41.5126 56.2542 40.1282C57.6386 38.7438 59.7192 38.3299 61.5256 39.0799C63.3347 39.8298 64.5121 41.5932 64.5121 43.5502C64.5148 46.2195 62.3482 48.3861 59.6762 48.3861ZM86.6272 60.8213L82.0628 65.3857C81.1542 66.2943 80.6434 67.5228 80.6434 68.805V72.5791C80.6434 77.0333 77.0333 80.6434 72.5791 80.6434C71.6893 80.6434 70.9662 79.9203 70.9662 79.0306C70.9662 78.1408 71.6893 77.4177 72.5791 77.4177C75.2511 77.4177 77.4177 75.2511 77.4177 72.5791V68.805C77.4123 66.6653 78.2618 64.6088 79.7725 63.0954L83.2079 59.6762L79.7725 56.2569C78.2591 54.7408 77.4123 52.6871 77.4177 50.5473V46.7732C77.4177 44.1012 75.2511 41.9346 72.5791 41.9346C71.6893 41.9346 70.9662 41.2115 70.9662 40.3218C70.9662 39.432 71.6893 38.7089 72.5791 38.7089C77.0333 38.7089 80.6434 42.319 80.6434 46.7732V50.5473C80.6434 51.8296 81.1542 53.0607 82.0628 53.9666L86.6272 58.531C86.9309 58.8348 87.103 59.2461 87.103 59.6762C87.103 60.1063 86.9309 60.5175 86.6272 60.8213Z" fill="#C4A2FC"/>
<path d="M72.579 8.06433H69.3533V4.8386C69.3533 2.16662 67.1867 0 64.5147 0H12.9029C10.231 0 8.06433 2.16662 8.06433 4.8386V8.06433H4.8386C2.16662 8.06433 0 10.231 0 12.9029V64.5147C0 67.1867 2.16662 69.3533 4.8386 69.3533H72.579C75.251 69.3533 77.4176 67.1867 77.4176 64.5147V12.9029C77.4176 10.231 75.251 8.06433 72.579 8.06433ZM40.3217 3.22573H64.5147C65.4044 3.22573 66.1275 3.94884 66.1275 4.8386V58.0632H40.3217V3.22573ZM11.2901 4.8386C11.2901 3.94884 12.0132 3.22573 12.9029 3.22573H37.0959V58.0632H11.2901V4.8386ZM74.1919 64.5147C74.1919 65.4044 73.4688 66.1275 72.579 66.1275H4.8386C3.94884 66.1275 3.22573 65.4044 3.22573 64.5147V12.9029C3.22573 12.0132 3.94884 11.2901 4.8386 11.2901H8.06433V59.6761C8.06433 60.5658 8.78744 61.2889 9.6772 61.2889H67.7404C68.6302 61.2889 69.3533 60.5658 69.3533 59.6761V11.2901H72.579C73.4688 11.2901 74.1919 12.0132 74.1919 12.9029V64.5147Z" fill="#151A6A"/>
<path d="M25.8059 21.5157V17.7416C25.8059 15.0696 27.9725 12.903 30.6445 12.903C31.5342 12.903 32.2573 12.1799 32.2573 11.2901C32.2573 10.4003 31.5342 9.67725 30.6445 9.67725C26.1903 9.67725 22.5801 13.2874 22.5801 17.7416V21.5157C22.5801 22.7979 22.0694 24.0291 21.1608 24.935L16.5964 29.4994C16.2926 29.8031 16.1206 30.2144 16.1206 30.6445C16.1206 31.0746 16.2926 31.4859 16.5964 31.7897L21.1608 36.3541C22.0694 37.2626 22.5801 38.4911 22.5801 39.7733V43.5475C22.5801 48.0017 26.1903 51.6118 30.6445 51.6118C31.5342 51.6118 32.2573 50.8887 32.2573 49.9989C32.2573 49.1092 31.5342 48.3861 30.6445 48.3861C27.9725 48.3861 25.8059 46.2194 25.8059 43.5475V39.7733C25.8112 37.6336 24.9618 35.5772 23.4511 34.0638L20.0157 30.6445L23.4511 27.2252C24.9618 25.7091 25.8112 23.6554 25.8059 21.5157Z" fill="#151A6A"/>
<path d="M56.2567 24.935C55.3481 24.0264 54.8374 22.7979 54.8374 21.5157V17.7416C54.8374 13.2874 51.2272 9.67725 46.773 9.67725C45.8833 9.67725 45.1602 10.4003 45.1602 11.2901C45.1602 12.1799 45.8833 12.903 46.773 12.903C49.445 12.903 51.6116 15.0696 51.6116 17.7416V21.5157C51.6062 23.6554 52.4557 25.7118 53.9664 27.2252L57.4018 30.6445L53.9664 34.0638C52.453 35.5799 51.6062 37.6336 51.6116 39.7733V43.5475C51.6116 46.2194 49.445 48.3861 46.773 48.3861C45.8833 48.3861 45.1602 49.1092 45.1602 49.9989C45.1602 50.8887 45.8833 51.6118 46.773 51.6118C51.2272 51.6118 54.8374 48.0017 54.8374 43.5475V39.7733C54.8374 38.4911 55.3481 37.26 56.2567 36.3541L60.8211 31.7897C61.1248 31.4859 61.2969 31.0746 61.2969 30.6445C61.2969 30.2144 61.1248 29.8031 60.8211 29.4994L56.2567 24.935Z" fill="#151A6A"/>
</svg>
