<svg width="226" height="196" viewBox="0 0 226 196" fill="none" xmlns="http://www.w3.org/2000/svg">
<path d="M214.712 127.505L68.7657 194.216C59.0648 198.647 47.6075 194.381 43.1767 184.68L1.75116 94.0575C-2.67958 84.3566 1.58665 72.8991 11.2875 68.4597L157.234 1.75626C166.935 -2.68314 178.392 1.58309 182.823 11.2926L224.24 101.915C228.688 111.616 224.413 123.065 214.712 127.505Z" fill="#C0C0FF"/>
<path d="M125.613 125.583L124.548 125.324L1.42208 95.4162C0.677852 95.2345 0.219366 94.4816 0.401095 93.7374C0.582825 93.0018 1.31814 92.5517 2.07967 92.7161L124.142 122.364L181.586 10.6696C181.949 9.97732 182.78 9.70905 183.463 10.0725C184.147 10.4187 184.415 11.2581 184.06 11.9418L125.613 125.583Z" fill="#2A2B3C"/>
<path d="M224.248 103.308C224.127 103.308 224.006 103.291 223.885 103.256L146.692 82.1927C145.957 81.9937 145.516 81.2236 145.715 80.488C145.914 79.7351 146.684 79.3024 147.428 79.5101L224.62 100.574C225.355 100.773 225.797 101.543 225.598 102.278C225.425 102.901 224.862 103.308 224.248 103.308Z" fill="#2A2B3C"/>
<path d="M43.1777 186.064C42.9787 186.064 42.7707 186.012 42.5803 185.917C41.888 185.588 41.5939 184.758 41.9227 184.065L76.512 111.919C76.8495 111.226 77.6802 110.941 78.3638 111.27C79.0561 111.598 79.3503 112.429 79.0214 113.121L44.4327 185.268C44.1904 185.77 43.6969 186.064 43.1777 186.064Z" fill="#2A2B3C"/>
</svg>
