<svg width="92" height="79" viewBox="0 0 92 79" fill="none" xmlns="http://www.w3.org/2000/svg">
<path d="M4.54851 51.3796L63.3596 78.262C67.2687 80.0474 71.8855 78.3283 73.671 74.4192L90.3639 37.9016C92.1494 33.9925 90.4302 29.3756 86.5211 27.5867L27.7103 0.707705C23.8012 -1.0812 19.1841 0.637927 17.3987 4.55051L0.70932 41.068C-1.08308 44.9771 0.639412 49.5907 4.54851 51.3796Z" fill="#C0C0FF"/>
<path d="M40.4524 50.6054L40.8813 50.5007L90.4966 38.4492C90.7965 38.3759 90.9813 38.0725 90.908 37.7727C90.8348 37.4762 90.5385 37.2949 90.2316 37.3611L41.0452 49.3082L17.8975 4.29946C17.751 4.02049 17.4163 3.91239 17.1408 4.05885C16.8653 4.19833 16.7573 4.5366 16.9003 4.81208L40.4524 50.6054Z" fill="#2A2B3C"/>
<path d="M0.705862 41.6293C0.754683 41.6293 0.803476 41.6224 0.852295 41.6084L31.9579 33.1206C32.2543 33.0404 32.432 32.7301 32.3518 32.4337C32.2716 32.1303 31.9613 31.9559 31.6614 32.0396L0.556025 40.5274C0.259617 40.6076 0.0816422 40.9179 0.161846 41.2143C0.23159 41.4654 0.458275 41.6293 0.705862 41.6293Z" fill="#2A2B3C"/>
<path d="M73.6705 74.977C73.7507 74.977 73.8345 74.9561 73.9112 74.9177C74.1902 74.7852 74.3087 74.4504 74.1762 74.1714L60.238 45.0991C60.102 44.8201 59.7673 44.705 59.4918 44.8375C59.2128 44.97 59.0943 45.3048 59.2268 45.5837L73.1648 74.6562C73.2624 74.8584 73.4613 74.977 73.6705 74.977Z" fill="#2A2B3C"/>
</svg>
