<svg width="855" height="30" viewBox="0 0 855 30" fill="none" xmlns="http://www.w3.org/2000/svg">
<path d="M321 15C338.733 32.3333 356.467 32.3333 374.2 15C391.933 -2.33333 409.667 -2.33333 427.4 15C445.133 32.3333 462.867 32.3333 480.6 15C498.333 -2.33333 516.067 -2.33333 533.8 15C551.533 32.3333 569.267 32.3333 587 15C604.733 -2.33333 622.467 -2.33333 640.2 15C657.933 32.3333 675.667 32.3333 693.4 15C711.133 -2.33333 728.867 -2.33333 746.6 15C764.333 32.3333 782.067 32.3333 799.8 15C817.533 -2.33333 835.267 -2.33333 853 15" stroke="#5E8E3E" stroke-width="3"/>
<path d="M2 15C19.7333 32.3333 37.4667 32.3333 55.2 15C72.9333 -2.33333 90.6667 -2.33333 108.4 15C126.133 32.3333 143.867 32.3333 161.6 15C179.333 -2.33333 197.067 -2.33333 214.8 15C232.533 32.3333 250.267 32.3333 268 15C285.733 -2.33333 303.467 -2.33333 321.2 15C338.933 32.3333 356.667 32.3333 374.4 15C392.133 -2.33333 409.867 -2.33333 427.6 15C445.333 32.3333 463.067 32.3333 480.8 15C498.533 -2.33333 516.267 -2.33333 534 15" stroke="#5E8E3E" stroke-width="3"/>
</svg>
