<?xml version="1.0" encoding="utf-8"?>
<?xml-stylesheet href="../css/animation.css" type="text/css"?>

<svg width="688" viewBox="0 0 688 500" fill="none" xmlns="http://www.w3.org/2000/svg">
<path d="M344 499.784C533.986 499.784 688 495.792 688 490.869C688 485.945 533.986 481.954 344 481.954C154.014 481.954 0 485.945 0 490.869C0 495.792 154.014 499.784 344 499.784Z" fill="#EDF1F4"/>
<path class="sheet del05" d="M520.881 324.277C517.027 325.937 513.553 330.052 510.609 333.805C510.09 326.751 509.304 319.723 508.148 312.771C508.352 312.409 508.444 312.013 508.425 311.609C516.065 303.229 524.277 295.072 531.242 286.128C534.23 282.291 537.365 275.56 532.482 271.655C522.161 263.404 510.877 291.906 506.513 304.013C504.961 296.805 502.966 289.696 500.412 282.736C499.524 280.321 498.532 277.961 497.531 275.605C505.9 271.049 513.709 265.511 520.679 258.866C523.82 255.869 532.984 248.367 528.268 242.997C524.183 238.348 515.312 240.69 511.574 244.406C504.722 251.226 500.387 262.356 496.728 271.216C496.641 271.423 496.62 271.625 496.601 271.83C496.41 271.935 496.227 272.054 496.036 272.159C492.161 263.619 487.574 255.484 482.306 247.847C492.992 238.378 511.727 215.031 497.061 204.231C481.911 193.07 477.71 227.669 476.696 240.221C471.299 233.326 465.367 226.861 458.895 220.943C458.736 220.798 458.566 220.725 458.4 220.647C458.647 220.353 458.822 219.971 458.809 219.459C458.612 212.17 455.523 205.336 449.929 200.83C444.954 196.823 436.771 194.244 431.224 198.629C425.093 203.474 433.617 211.73 437.051 215.535C442.322 221.375 449.125 225.107 456.878 224.134C463.595 230.337 469.697 237.168 475.225 244.452C468.105 243.191 426.214 233.498 432.88 251.291C436.051 259.752 450.074 259.594 456.894 259.672C465.623 259.774 473.593 257.785 478.858 250.488C479.039 250.431 479.222 250.361 479.41 250.221C479.421 250.216 479.431 250.205 479.442 250.197C484.215 257.114 488.375 264.474 491.978 272.145C490.405 271.534 488.666 271.232 486.963 271.03C486.751 270.755 486.469 270.523 486.036 270.426C477.146 268.402 462.657 264.439 454.019 268.718C449.343 271.035 447.216 276.222 450.23 280.884C454.025 286.753 462.471 289.079 468.89 288.467C474.072 287.974 478.611 285.492 483.15 283.043C486.385 281.299 491.371 279.491 494.063 276.594C495.464 279.855 496.757 283.169 497.924 286.551C500.218 293.21 501.942 299.995 503.321 306.856C497.897 301.639 491.215 298.173 483.739 297.174C478.692 296.5 468.882 295.983 467.153 302.803C463.022 319.106 493.632 317.246 504.69 314.406C505.577 319.909 506.166 325.463 506.642 331.027C505.876 330.426 505.042 329.903 504.149 329.472C501.033 327.971 495.985 326.497 492.586 327.823C489.994 328.831 488.295 331.978 489.83 334.649C491.806 338.079 503.117 340.445 503.391 339.602C504.534 339.895 505.698 340.111 506.879 340.289C506.973 340.636 507.123 340.96 507.398 341.183C507.893 351 507.925 360.852 507.718 370.642C507.667 373.064 511.289 373.064 511.34 370.642C511.547 360.879 511.534 351.041 511.06 341.235C515.933 340.607 520.642 339.162 524.955 336.624C527.644 335.04 533.162 332.127 530.9 328.068C529.018 324.684 524.301 322.803 520.881 324.277Z" fill="#56CCF2"/>
<path class="sheet del04" d="M520.983 335.371C523.589 336.565 525.936 339.524 527.929 342.226C528.279 337.149 528.811 332.097 529.591 327.098C529.454 326.837 529.392 326.554 529.405 326.26C524.242 320.235 518.689 314.366 513.984 307.931C511.964 305.174 509.845 300.329 513.144 297.521C520.12 291.59 527.746 312.086 530.696 320.798C531.745 315.613 533.095 310.502 534.821 305.492C535.421 303.751 536.09 302.056 536.768 300.362C531.113 297.085 525.837 293.102 521.123 288.322C518.999 286.166 512.806 280.768 515.995 276.91C518.754 273.565 524.751 275.247 527.278 277.923C531.912 282.827 534.84 290.833 537.314 297.206C537.37 297.357 537.384 297.502 537.397 297.648C537.526 297.723 537.65 297.81 537.782 297.882C540.401 291.744 543.502 285.891 547.062 280.396C539.839 273.587 527.176 256.794 537.088 249.022C547.328 240.995 550.168 265.883 550.851 274.91C554.497 269.952 558.51 265.303 562.885 261.043C562.992 260.938 563.108 260.884 563.221 260.828C563.054 260.617 562.936 260.343 562.944 259.973C563.076 254.732 565.165 249.814 568.943 246.573C572.305 243.692 577.839 241.835 581.585 244.988C585.731 248.475 579.968 254.414 577.648 257.152C574.085 261.353 569.489 264.037 564.248 263.336C559.709 267.799 555.584 272.711 551.849 277.952C556.662 277.047 584.976 270.073 580.469 282.873C578.325 288.96 568.846 288.844 564.237 288.901C558.337 288.974 552.951 287.543 549.391 282.293C549.27 282.253 549.146 282.205 549.02 282.105C549.014 282.099 549.006 282.091 548.998 282.086C545.771 287.066 542.958 292.356 540.527 297.872C541.59 297.432 542.768 297.217 543.916 297.069C544.058 296.875 544.252 296.705 544.542 296.635C550.552 295.18 560.343 292.329 566.181 295.409C569.344 297.074 570.78 300.806 568.741 304.158C566.176 308.378 560.467 310.054 556.13 309.612C552.628 309.257 549.56 307.47 546.492 305.71C544.306 304.457 540.936 303.156 539.116 301.073C538.169 303.42 537.295 305.805 536.507 308.235C534.958 313.024 533.791 317.907 532.861 322.841C536.526 319.087 541.044 316.597 546.097 315.878C549.509 315.393 556.138 315.021 557.305 319.925C560.099 331.652 539.409 330.316 531.933 328.273C531.334 332.232 530.935 336.225 530.613 340.23C531.129 339.798 531.691 339.421 532.296 339.111C534.404 338.033 537.814 336.972 540.111 337.926C541.861 338.653 543.012 340.914 541.974 342.835C540.638 345.304 532.993 347.007 532.807 346.395C532.035 346.608 531.247 346.764 530.451 346.891C530.387 347.141 530.285 347.376 530.099 347.535C529.766 354.595 529.742 361.682 529.881 368.723C529.916 370.464 527.467 370.464 527.432 368.723C527.292 361.701 527.303 354.625 527.62 347.567C524.326 347.117 521.142 346.077 518.227 344.253C516.409 343.116 512.679 341.019 514.207 338.101C515.484 335.665 518.671 334.309 520.983 335.371Z" fill="#343751"/>
<path class="sheet" d="M489.811 340.278C487.17 342.229 485.275 345.805 483.72 349.022C482.002 344.231 480.087 339.516 477.901 334.927C477.99 334.635 477.984 334.339 477.896 334.064C482.182 326.662 486.95 319.297 490.615 311.642C492.186 308.357 493.331 303.032 488.857 301.335C479.404 297.745 476.091 319.874 475.01 329.187C472.474 324.503 469.616 319.982 466.357 315.673C465.225 314.177 464.023 312.746 462.815 311.318C468.374 306.419 473.322 300.957 477.42 294.897C479.267 292.164 484.887 285.056 480.267 282.305C476.271 279.922 469.906 283.382 467.739 286.743C463.762 292.897 462.525 301.523 461.377 308.435C461.35 308.602 461.374 308.745 461.395 308.888C461.269 309.001 461.151 309.122 461.022 309.235C456.456 304.11 451.419 299.41 445.952 295.196C452.371 286.406 462.361 266.312 449.101 261.849C435.405 257.239 438.657 282.135 440.23 291.065C434.806 287.395 429.048 284.137 422.982 281.364C422.834 281.297 422.691 281.281 422.546 281.262C422.681 281.003 422.742 280.704 422.638 280.348C421.124 275.331 417.48 271.221 412.349 269.254C407.788 267.503 401.033 267.406 397.605 271.599C393.81 276.236 401.889 280.203 405.231 282.132C410.365 285.099 416.272 286.279 422.03 283.997C428.338 286.913 434.292 290.391 439.891 294.304C434.198 294.905 400.286 296.851 408.724 307.829C412.736 313.051 423.452 310.03 428.693 308.672C435.4 306.934 441.136 303.9 443.806 297.74C443.935 297.664 444.062 297.578 444.18 297.443C444.185 297.438 444.193 297.427 444.199 297.422C449.152 301.235 453.715 305.482 457.91 310.063C456.59 309.963 455.2 310.116 453.861 310.329C453.645 310.181 453.387 310.079 453.035 310.1C445.844 310.537 433.999 310.79 428.182 315.549C425.031 318.13 424.372 322.17 427.556 324.784C431.56 328.074 438.468 327.936 443.274 326.185C447.151 324.77 450.166 322.102 453.186 319.464C455.337 317.583 458.819 315.29 460.341 312.725C462.022 314.7 463.638 316.732 465.16 318.842C468.161 322.989 470.754 327.344 473.093 331.822C467.962 329.324 462.191 328.3 456.278 329.16C452.285 329.737 444.672 331.41 444.624 336.506C444.508 348.683 467.615 341.052 475.556 336.786C477.264 340.424 478.754 344.156 480.16 347.923C479.461 347.664 478.724 347.473 477.96 347.36C475.29 346.966 471.149 346.985 468.79 348.61C466.994 349.847 466.279 352.385 467.954 353.924C470.111 355.897 479.221 355.196 479.273 354.549C480.203 354.517 481.136 354.428 482.075 354.304C482.212 354.525 482.389 354.719 482.639 354.819C484.852 361.531 486.724 368.365 488.394 375.207C488.808 376.902 491.586 376.15 491.169 374.458C489.502 367.635 487.649 360.804 485.455 354.091C489.072 352.644 492.409 350.666 495.24 348.009C497.004 346.352 500.689 343.186 498.198 340.836C496.122 338.877 492.156 338.545 489.811 340.278Z" fill="#343751"/>
<path d="M528.628 476.083H478.824L464.51 361.706H542.945L528.628 476.083Z" fill="#BED0E2"/>
<path d="M604.988 115.02H293.921C285.505 115.02 278.658 108.16 278.658 99.7253V15.2951C278.658 6.86068 285.505 0 293.921 0H604.99C613.407 0 620.254 6.86068 620.254 15.2951V99.7253C620.251 108.16 613.405 115.02 604.988 115.02ZM293.921 3.83185C287.613 3.83185 282.482 8.97333 282.482 15.2951V99.7253C282.482 106.047 287.613 111.189 293.921 111.189H604.99C611.299 111.189 616.43 106.047 616.43 99.7253V15.2951C616.43 8.97333 611.299 3.83185 604.99 3.83185H293.921Z" fill="#EDF1F4"/>
<path d="M449.139 111.811H452.476C453.791 111.811 454.856 110.744 454.856 109.423L452.556 101.822H444.46L446.756 109.423C446.759 110.744 447.824 111.811 449.139 111.811Z" fill="#BED0E2"/>
<path d="M450.583 111.811H453.92C455.235 111.811 456.3 110.744 456.3 109.423L454.003 101.822H445.906L448.203 109.423C448.203 110.744 449.268 111.811 450.583 111.811Z" fill="#D3E0EA"/>
<path d="M422.25 111.811H425.588C426.903 111.811 427.967 110.744 427.967 109.423L430.264 101.822H422.167L419.87 109.423C419.87 110.744 420.935 111.811 422.25 111.811Z" fill="#BED0E2"/>
<path d="M436.696 105.603C456.6 105.603 472.735 89.4336 472.735 69.4882C472.735 49.5428 456.6 33.3738 436.696 33.3738C416.792 33.3738 400.657 49.5428 400.657 69.4882C400.657 89.4336 416.792 105.603 436.696 105.603Z" fill="#BED0E2"/>
<path d="M450.132 41.541L464.663 48.9932L470.782 37.0111L456.252 29.559L450.132 41.541Z" fill="#BED0E2"/>
<path d="M450.238 31.959L472.826 43.5434L472.88 43.441C476.074 37.1921 473.606 29.5283 467.367 26.3297C461.128 23.1284 453.483 25.6022 450.291 31.8539L450.238 31.959Z" fill="#D3E0EA"/>
<path d="M415.537 49.8177L428.598 40.0085L420.543 29.2379L407.481 39.047L415.537 49.8177Z" fill="#BED0E2"/>
<path d="M406.933 45.6155L427.239 30.3635L427.169 30.2719C422.966 24.6508 415.014 23.5109 409.407 27.7227C403.8 31.9345 402.66 39.9054 406.863 45.5212L406.933 45.6155Z" fill="#D3E0EA"/>
<path d="M439.799 105.699C459.703 105.699 475.839 89.5303 475.839 69.5849C475.839 49.6396 459.703 33.4707 439.799 33.4707C419.895 33.4707 403.76 49.6396 403.76 69.5849C403.76 89.5303 419.895 105.699 439.799 105.699Z" fill="#D3E0EA"/>
<path d="M423.694 111.811H427.032C428.347 111.811 429.411 110.744 429.411 109.423L431.708 101.822H423.611L421.312 109.423C421.315 110.744 422.379 111.811 423.694 111.811Z" fill="#D3E0EA"/>
<path d="M439.399 100.951C456.739 100.951 470.797 86.8644 470.797 69.4877C470.797 52.111 456.739 38.0244 439.399 38.0244C422.058 38.0244 408.001 52.111 408.001 69.4877C408.001 86.8644 422.058 100.951 439.399 100.951Z" fill="white"/>
<path d="M440.047 40.353H438.753V45.7558H440.047V40.353Z" fill="#BED0E2"/>
<path d="M451.563 47.2697L452.684 47.9172L454.539 44.6938L453.419 44.0462L451.563 47.2697Z" fill="#BED0E2"/>
<path d="M461.002 56.1594L461.647 57.2795L464.866 55.4171L464.22 54.297L461.002 56.1594Z" fill="#BED0E2"/>
<path d="M468.476 68.8416H463.087V70.1377H468.476V68.8416Z" fill="#BED0E2"/>
<path d="M461.76 81.6266L461.114 82.7466L464.333 84.6089L464.978 83.4888L461.76 81.6266Z" fill="#BED0E2"/>
<path d="M452.527 91.2113L451.406 91.8589L453.263 95.0846L454.383 94.437L452.527 91.2113Z" fill="#BED0E2"/>
<path d="M440.047 93.1125H438.753V98.6286H440.047V93.1125Z" fill="#BED0E2"/>
<path d="M427.239 91.7081L426.119 91.0605L424.264 94.284L425.384 94.9316L427.239 91.7081Z" fill="#BED0E2"/>
<path d="M417.729 82.6264L417.081 81.5046L413.865 83.3698L414.512 84.4916L417.729 82.6264Z" fill="#BED0E2"/>
<path d="M415.826 68.8413H410.321V70.1374H415.826V68.8413Z" fill="#BED0E2"/>
<path d="M417.233 57.2938L417.881 56.1721L414.662 54.3058L414.014 55.4275L417.233 57.2938Z" fill="#BED0E2"/>
<path d="M426.271 47.7691L427.391 47.1216L425.535 43.8959L424.414 44.5435L426.271 47.7691Z" fill="#BED0E2"/>
<g class="clock">
<path d="M457.843 52.7921L456.204 51.1497L437.74 69.6512L439.379 71.2937L457.843 52.7921Z" fill="#4C5072"/>
<path d="M439.399 74.1986C441.757 74.1986 443.669 72.2828 443.669 69.9194C443.669 67.5561 441.757 65.6401 439.399 65.6401C437.04 65.6401 435.128 67.5561 435.128 69.9194C435.128 72.2828 437.04 74.1986 439.399 74.1986Z" fill="#C0C0FF"/>
</g>
<path d="M454.509 83.5392L455.395 82.3489L441.203 71.746L440.317 72.9363L454.509 83.5392Z" fill="#4C5072"/>

<path d="M439.399 72.188C440.649 72.188 441.663 71.1722 441.663 69.9191C441.663 68.666 440.649 67.6501 439.399 67.6501C438.148 67.6501 437.134 68.666 437.134 69.9191C437.134 71.1722 438.148 72.188 439.399 72.188Z" fill="white"/>
<path d="M562.043 33.2419H541.514V111.895H562.043V33.2419Z" fill="#56CCF2"/>
<path d="M566.526 33.2419H562.043V111.895H566.526V33.2419Z" fill="#EDF1F4"/>
<path d="M538.087 37.3282L518.437 31.3728L495.715 106.659L515.364 112.615L538.087 37.3282Z" fill="#56CCF2"/>
<path d="M515.406 112.526L519.697 113.826L542.411 38.5396L538.12 37.2396L515.406 112.526Z" fill="#EDF1F4"/>
<path d="M588.017 55.4731H569.328V111.895H588.017V55.4731Z" fill="#FFD357"/>
<path d="M592.099 55.4731H588.017V111.895H592.099V55.4731Z" fill="#EDF1F4"/>
<path d="M396.72 90.4849H303.672V111.754H396.72V90.4849Z" fill="#C0C0FF"/>
<path d="M385.886 97.8896H357.844V104.346H385.886V97.8896Z" fill="#4C5072"/>
<path d="M383.336 69.1028H290.288V90.3719H383.336V69.1028Z" fill="#F2994A"/>
<path d="M372.502 76.5105H344.46V82.9671H372.502V76.5105Z" fill="#4C5072"/>
<path d="M378.432 201.011C378.55 200.981 378.671 200.978 378.792 200.946C380.569 200.434 379.755 197.066 377.972 197.58C377.848 197.618 377.722 197.602 377.598 197.629C378.017 196.753 377.684 195.188 375.826 195.101C375.288 195.077 367.664 194.824 362.243 191.108C363.73 190.978 366.215 190.798 367.893 191.224C369.67 191.674 370.558 188.906 368.764 188.472C368.482 188.405 366.142 187.898 365.801 187.928C357.424 186.645 348.214 188.119 340.144 190.814C338.797 191.151 337.455 191.542 336.124 192.037C335.648 192.213 335.371 192.792 335.336 193.258C335.143 195.643 335.96 200.871 336.535 203.183C336.592 203.414 336.713 203.6 336.853 203.767C335.718 204.772 336.909 206.874 338.431 206.079C342.494 203.951 350.403 201.202 350.476 201.194C358.008 204.209 365.355 207.006 373.513 207.273C375.159 207.327 375.654 204.74 374.395 204.199C374.387 204.182 374.385 204.166 374.374 204.15C374.398 204.15 374.425 204.147 374.446 204.147C374.928 204.204 377.173 204.085 377.845 203.945C379.144 203.67 379.152 201.714 378.432 201.011Z" fill="#F2994A"/>
<path d="M376.815 197.974C374.406 197.974 367.054 197.729 361.52 194.926C361.353 194.843 361.289 194.641 361.369 194.474C361.455 194.309 361.654 194.234 361.821 194.325C368.347 197.626 377.493 197.287 377.587 197.29C377.77 197.306 377.929 197.427 377.937 197.613C377.945 197.796 377.8 197.955 377.614 197.963C377.598 197.963 377.31 197.974 376.815 197.974Z" fill="#2A2B3C"/>
<path d="M376.974 201.366C373.54 201.366 365.013 201.102 360.635 198.615C360.474 198.526 360.417 198.319 360.509 198.157C360.6 197.99 360.802 197.931 360.966 198.031C366.247 201.027 378.3 200.671 378.421 200.671C378.579 200.669 378.76 200.811 378.768 200.997C378.773 201.183 378.628 201.34 378.442 201.345C378.346 201.35 377.81 201.366 376.974 201.366Z" fill="#2A2B3C"/>
<path d="M374.395 204.533C374.387 204.533 374.379 204.533 374.371 204.533C373.973 204.501 364.545 203.773 360.243 201.749C360.073 201.671 360.003 201.469 360.081 201.302C360.162 201.132 360.366 201.062 360.53 201.138C364.723 203.107 374.325 203.854 374.422 203.859C374.608 203.875 374.747 204.034 374.731 204.223C374.718 204.398 374.57 204.533 374.395 204.533Z" fill="#2A2B3C"/>
<path d="M131.202 457.856C132.361 454.719 133.7 452.523 137.424 449.271C137.448 449.222 137.483 449.212 137.483 449.212C140.388 446.695 144.139 443.617 148.813 439.131C155.729 441.515 164.175 442.116 165.719 449.212C162.312 453.049 155.89 460.982 155.148 463.822C155.019 464.275 154.938 464.752 154.909 465.25C154.387 471.882 160.75 480.532 162.14 486.088C162.57 487.57 162.597 488.829 162.059 489.748C159.375 494.474 128.475 465.409 131.202 457.856Z" fill="#F2994A"/>
<path d="M162.266 489.146C162.229 489.375 162.151 489.532 162.035 489.723C159.265 494.854 127.55 465.271 130.204 457.982V457.942C130.282 457.519 130.435 457.096 130.629 456.67C132.207 453.083 136.787 449.726 137.441 449.265C137.441 449.224 137.481 449.225 137.481 449.225C142.87 460.871 154.914 465.228 154.914 465.228C154.454 471.054 159.265 478.421 161.419 483.859C162.382 485.905 162.766 487.756 162.266 489.146Z" fill="#FFD357"/>
<path d="M257.304 223.183C257.465 222.566 257.293 221.932 256.688 221.493C256.5 220.989 256.331 220.485 256.14 219.984C255.481 218.286 253.273 218.4 252.536 219.515C238.782 213.457 223.586 209.442 210.608 219.76C197.485 230.192 193.919 247.618 195.108 263.547C196.684 284.66 201.769 306.92 207.179 327.362C211.974 345.468 219.662 362.606 233.218 375.813C233.82 376.398 234.818 376.565 235.549 376.112C257.245 362.728 261.356 331.981 264.532 308.896C268.501 280.044 267.208 250.666 257.304 223.183Z" fill="#3F4261"/>
<path d="M251.536 241.496C251.536 241.496 264.686 300.52 264.113 311.94C263.543 323.36 257.132 345.702 257.132 345.702L233.178 316.397L226.909 245.85L251.536 241.496Z" fill="#343751"/>
<path d="M218.127 256.058C217.25 257.699 216.392 259.354 215.561 261.022C206.182 279.893 197.318 299.168 189.372 318.688C181.835 337.198 176.771 356.789 167.908 374.73C158.3 394.175 133.928 433.609 135.41 432.949C132.99 440.06 179.756 463.008 184.537 458.009C200.806 439.028 210.928 416.344 220.165 393.323C230.359 367.92 241.17 343.25 254.537 319.324C254.604 319.203 254.677 319.082 254.744 318.96C246.467 295.786 234.646 274.595 218.127 256.058Z" fill="#3F4261"/>
<path d="M162.266 489.147C162.229 489.376 162.151 489.532 162.035 489.723C159.265 494.854 127.55 465.272 130.204 457.982V457.942C130.282 457.519 130.435 457.096 130.629 456.67C131.554 459.292 133.786 464.307 138.788 469.782C145.255 476.88 152.335 484.016 162.266 489.147Z" fill="#2A2B3B"/>
<path d="M194.89 300.881C194.89 300.881 196.203 353.449 196.875 380.733C197.547 408.017 172.869 456.672 172.869 456.672C172.869 456.672 182.332 460.655 184.537 458.012C186.742 455.368 200.653 437.37 207.913 421.402C215.174 405.436 223.432 384.438 223.432 384.438L194.89 300.881Z" fill="#343751"/>
<path d="M243.549 256.058L262.26 324.169L258.181 345.7L243.549 256.058Z" fill="#2A2B3B"/>
<path d="M192.395 311.256L223.43 384.436L216.091 402.706C216.091 402.706 213.908 384.886 207.911 368.718C201.917 352.55 192.395 311.256 192.395 311.256Z" fill="#2A2B3B"/>
<path d="M293.609 456.01C293.133 430.992 285.61 407.314 277.203 383.98C267.926 358.224 259.595 332.609 253.671 305.839C250.673 292.296 248.021 278.68 245.281 265.082C243.342 255.468 242.277 244.554 235.267 237.06C222.069 222.951 201.737 226.882 188.211 237.898C187.393 237.58 177.374 232.374 176.895 233.411C169.527 249.453 181.356 271.867 185.849 288.351C191.394 308.688 197.59 328.981 204.633 348.847C211.31 367.685 220.552 385.681 225.861 404.98C231.613 425.899 239.637 471.579 240.304 470.1C256.288 449.087 282.426 453.385 293.609 456.01Z" fill="#3F4261"/>
<path d="M293.609 456.009C293.365 462.927 243.227 477.014 240.306 470.097C238.177 465.047 247.532 456.244 262.97 452.39C281.482 447.766 293.722 452.743 293.609 456.009Z" fill="#17171D"/>
<path d="M264.097 488.677C262.013 486.069 261.27 482.876 260.407 478.001C260.378 477.955 260.386 477.92 260.386 477.92C259.732 474.129 256.175 461.445 254.741 455.118C264.395 451.359 269.857 451.049 274.17 450.617C275.698 455.522 279.935 468.171 281.982 470.27C282.305 470.615 282.67 470.927 283.082 471.213C288.484 475.077 299.16 474.064 304.629 475.735C306.119 476.128 307.208 476.753 307.719 477.691C310.379 482.431 269.158 494.913 264.097 488.677Z" fill="#F2994A"/>
<path d="M304.632 475.732L290.531 482.919C290.531 482.919 267.313 491.723 264.099 488.678C261.08 485.829 260.461 478.88 260.41 478.001C260.381 477.955 260.389 477.921 260.389 477.921C266.961 470.443 283.085 471.213 283.085 471.213C288.484 475.075 299.16 474.062 304.632 475.732Z" fill="#FFD357"/>
<path d="M307.709 477.694C310.661 482.738 268.8 494.8 264.091 488.664C261.069 484.724 302.634 469.017 307.709 477.694Z" fill="#2A2B3B"/>
<path d="M217.605 129.661C248.564 122.773 271.787 165.524 283.609 187.885C295.433 210.248 283.13 223.673 273.135 219.83C241.783 207.774 198.84 133.835 217.605 129.661Z" fill="#BB6BD9"/>
<path d="M344.81 180.42C321.907 178.461 289.684 180.647 269.739 179.949C255.71 179.458 269.9 219.811 274.514 220.66C279.129 221.506 323.324 224.621 350.008 210.35C350.005 210.35 349.295 180.803 344.81 180.42Z" fill="#BB6BD9"/>
<path d="M350.005 210.351C350.005 210.351 310.599 229.981 271.519 219.577C266.665 218.287 245.776 194.191 245.776 194.191L257.481 174.161C257.481 174.161 266.224 206.435 274.673 211.577C283.122 216.718 350.005 210.351 350.005 210.351Z" fill="#C0C0FF"/>
<path d="M261.854 240.749C261.854 240.749 211.329 254.268 158.007 244.745L159.655 232.083L261.854 240.749Z" fill="#2A2B3B"/>
<path d="M241.947 133.99C241.947 133.99 252.999 140.156 259.713 167.836C263.233 182.342 264.051 198.391 264.051 198.391L253.819 192.059L241.947 133.99Z" fill="#17171D"/>
<path d="M155.605 239.882C155.605 239.882 167.792 145.206 195.805 128.965C213.838 118.51 241.664 127.704 247.876 141.428C259.993 168.197 267.06 239.774 267.06 239.774C267.06 239.774 202.275 253.382 155.605 239.882Z" fill="#BB6BD9"/>
<path d="M226.958 112.204C226.958 112.204 226.632 122.932 226.272 125.344C226.162 126.079 224.656 128.367 223.379 129.232C218.885 126.006 215.166 126.764 213.752 125.344C214.843 122.331 215.408 117.925 215.408 112.204C215.411 106.791 226.958 112.204 226.958 112.204Z" fill="#F2994A"/>
<path d="M213.948 103.503C213.948 103.503 216.451 118.078 225.64 118.364C234.829 118.649 229.074 98.5203 227.694 97.9652C226.315 97.4101 217.355 95.451 213.948 103.503Z" fill="#F2994A"/>
<path d="M204.423 131.714C204.423 131.714 216.099 144.29 215.833 157.54C215.569 170.787 199.881 193.244 202.347 212.781C204.813 232.317 222.348 245.33 222.348 245.33C222.348 245.33 186.438 247.238 167.166 243.031C147.893 238.825 166.208 186.653 166.208 186.653L204.423 131.714Z" fill="#C0C0FF"/>
<path d="M225.161 90.8488C223.924 90.229 222.566 89.9649 221.171 90.2317C219.49 90.5524 218.433 91.8431 216.804 92.0156C213.168 92.4036 211.399 94.7561 211.789 97.8551C211.694 97.944 211.6 98.0248 211.525 98.1487C210.194 100.412 209.339 102.805 210.67 104.974C209.212 107.591 211.428 111.024 213.109 113.161C213.251 113.342 213.415 113.444 213.585 113.517C214.053 114.403 215.688 114.549 216.115 113.285C217.193 110.097 216.255 106.26 217.449 103.306C218.022 101.892 219.28 100.852 220.227 99.515C221.641 99.9623 222.975 99.7602 224.25 98.9625C227.275 100.569 232.263 99.8599 233.105 96.0954C234.229 91.0886 228.851 89.558 225.161 90.8488Z" fill="#17171D"/>
<path d="M218.686 106.157C218.686 106.157 217.293 103.474 214.752 103.856C212.211 104.239 211.627 110.302 215.927 110.83C220.224 111.356 218.686 106.157 218.686 106.157Z" fill="#F2994A"/>
<path d="M223.379 129.232L220.286 135.548L212.022 124.492L214.185 123.972L223.379 129.232Z" fill="#F2F8FF"/>
<path d="M223.379 129.232L228.036 132.6V126.642L226.272 125.343L223.379 129.232Z" fill="#F2F8FF"/>
<g class="boyLeftHand2">
<path d="M204.423 131.714C219.348 159.755 191.04 195.586 172.713 212.996C154.385 230.407 133.501 204.872 135.195 197.61C136.889 190.348 195.377 114.721 204.423 131.714Z" fill="#BB6BD9"/>
<path d="M260.924 271.959L165.999 306.182L163.487 305.92L145.18 244.298L241.842 209.394L245.953 210.507L260.924 271.959Z" fill="#BED0E2"/>
<path d="M263.29 271.108L165.999 306.182L148.552 246.777L245.953 210.507L263.29 271.108Z" fill="#EDF1F4"/>
<path d="M209.933 266.497C214.426 266.497 218.067 262.848 218.067 258.346C218.067 253.844 214.426 250.194 209.933 250.194C205.441 250.194 201.799 253.844 201.799 258.346C201.799 262.848 205.441 266.497 209.933 266.497Z" fill="#BED0E2"/>
<path d="M214.617 293.945C215.257 287.739 214.582 282.21 212.496 276.944C212.587 276.834 212.636 276.71 212.714 276.594C215.354 279.547 217.476 283.018 218.57 287.833C219.127 290.272 223.373 288.141 222.822 285.724C220.843 277.02 216.276 271.164 209.091 266.324C199.007 259.531 189.867 249.598 185.113 238.399C184.984 238.095 184.787 237.887 184.556 237.731C184.094 237.138 183.249 236.831 182.147 237.281C175.384 240.046 168.623 242.813 161.863 245.578C160.446 246.16 159.876 248.017 160.594 248.887C167.392 257.111 174.945 264.942 183.142 271.908C185.408 273.832 187.702 275.279 190.48 276.632C193.72 278.213 198.02 279.305 200.239 282.126C202.909 285.521 202.662 290.286 202.543 294.732C202.487 296.882 205.391 296.505 206.512 294.88C206.512 294.904 206.512 294.929 206.512 294.95C206.418 296.971 208.968 296.783 210.234 295.414C210.428 297.553 214.359 296.438 214.617 293.945Z" fill="#F2994A"/>
<path d="M214.381 284.269C214.375 284.269 214.37 284.269 214.365 284.266C214.072 284.258 213.843 284.013 213.851 283.722C213.891 282.369 212.531 278.51 212.001 277.141C211.896 276.867 212.031 276.559 212.305 276.454C212.576 276.349 212.883 276.487 212.988 276.756C213.069 276.966 214.962 281.911 214.908 283.754C214.903 284.04 214.666 284.269 214.381 284.269Z" fill="#2A2B3C"/>
<path d="M210.237 295.944C210.215 295.944 210.191 295.942 210.17 295.939C209.879 295.901 209.672 295.637 209.71 295.346C209.721 295.255 210.834 285.987 207.655 278.335C207.542 278.065 207.672 277.755 207.94 277.642C208.212 277.523 208.521 277.655 208.632 277.928C211.923 285.845 210.81 295.087 210.761 295.478C210.726 295.745 210.501 295.944 210.237 295.944Z" fill="#2A2B3C"/>
<path d="M206.512 295.408C206.502 295.408 206.488 295.406 206.478 295.406C206.187 295.387 205.967 295.134 205.985 294.843C205.991 294.746 206.588 285.22 203.788 280.792C203.63 280.545 203.705 280.216 203.953 280.062C204.2 279.909 204.525 279.981 204.681 280.226C207.666 284.945 207.069 294.511 207.042 294.913C207.023 295.193 206.789 295.408 206.512 295.408Z" fill="#2A2B3C"/>
<path d="M213.937 256.521C205.211 235.211 176.978 199.364 165.267 191.606C153.556 183.85 133.778 205.931 135.133 210.431C136.489 214.934 160.239 262.789 185.099 280.051C185.099 280.051 215.647 260.695 213.937 256.521Z" fill="#BB6BD9"/>
<path d="M190.975 133.166C190.975 133.166 143.311 172.037 134.845 197.626C126.38 223.212 181.144 275.08 185.099 280.052C185.099 280.052 137.36 213.107 143.187 200.307C149.014 187.508 190.975 133.166 190.975 133.166Z" fill="#C0C0FF"/>
</g>
</svg>
