<?xml version="1.0" encoding="utf-8"?>
<?xml-stylesheet href="../css/animation.css" type="text/css"?>

<svg width="716" viewBox="0 0 716 503" fill="none" xmlns="http://www.w3.org/2000/svg">
<path d="M357.852 439.357C555.434 439.357 715.607 435.26 715.607 430.206C715.607 425.152 555.434 421.055 357.852 421.055C160.27 421.055 0.0974121 425.152 0.0974121 430.206C0.0974121 435.26 160.27 439.357 357.852 439.357Z" fill="#EDF1F4"/>
<path d="M439.091 387.709L426.315 396.673L337.061 292.194L334.612 272.034L347.388 263.071L486.604 253.701L474.432 287.981L461.656 296.945L378.859 290.253L451.143 353.659L439.091 387.709Z" fill="#BED0E2"/>
<path d="M442.05 414.793L537.543 256.893L550.318 247.929L575.642 256.933L466.899 423.644L454.123 432.608L442.05 414.793Z" fill="#BED0E2"/>
<path d="M530.274 420.326L529.568 395.223L542.344 386.261L638.393 383.089L565.761 320.227L564.983 295.386L577.761 286.422L679.976 381.747L669.737 410.626L656.961 419.59L530.274 420.326Z" fill="#BED0E2"/>
<path d="M426.315 396.673L324.283 301.158L334.613 272.036L473.829 262.667L461.658 296.947L366.085 299.218L438.369 362.624L426.315 396.673Z" fill="#EDF1F4"/>
<path d="M429.274 423.755L537.543 256.89L562.865 265.893L454.121 432.606L429.274 423.755Z" fill="#EDF1F4"/>
<path d="M517.497 429.29L529.568 395.222L625.618 392.052L552.984 329.19L564.983 295.386L667.198 390.711L656.961 419.589L517.497 429.29Z" fill="#EDF1F4"/>
<path d="M255.618 30H156.828C148.991 30 142.635 36.3671 142.635 44.2198V98.4844C142.635 106.337 148.991 112.704 156.828 112.704H218.606L233.578 132.903C235.169 135.051 238.574 133.919 238.57 131.244L238.547 112.702H255.616C263.454 112.702 269.808 106.335 269.808 98.4825V44.2178C269.81 36.3652 263.458 30 255.618 30Z" fill="#EDF1F4"/>
<g class="message">
<path d="M232.792 51.5635H196.47C195.982 51.5635 195.587 51.1677 195.587 50.6783C195.587 50.189 195.982 49.7932 196.47 49.7932H232.792C233.28 49.7932 233.675 50.189 233.675 50.6783C233.675 51.1677 233.28 51.5635 232.792 51.5635Z" fill="#2A2B3C"/>
<path d="M189.86 51.5635H175.152C174.664 51.5635 174.269 51.1677 174.269 50.6783C174.269 50.189 174.664 49.7932 175.152 49.7932H189.86C190.348 49.7932 190.743 50.189 190.743 50.6783C190.743 51.1677 190.348 51.5635 189.86 51.5635Z" fill="#2A2B3C"/>
</g>
<g class="message del02">
<path d="M232.792 65.9353H213.445C212.956 65.9353 212.561 65.5395 212.561 65.0502C212.561 64.5608 212.956 64.165 213.445 64.165H232.792C233.28 64.165 233.675 64.5608 233.675 65.0502C233.675 65.5395 233.28 65.9353 232.792 65.9353Z" fill="#2A2B3C"/>
<path d="M207.703 65.9353H175.154C174.666 65.9353 174.271 65.5395 174.271 65.0502C174.271 64.5608 174.666 64.165 175.154 64.165H207.703C208.192 64.165 208.586 64.5608 208.586 65.0502C208.586 65.5395 208.19 65.9353 207.703 65.9353Z" fill="#2A2B3C"/>
</g>
<g class="message del04">
<path d="M238.066 79.7244H208.853C208.365 79.7244 207.97 79.3286 207.97 78.8394C207.97 78.3501 208.365 77.9543 208.853 77.9543H238.066C238.555 77.9543 238.949 78.3501 238.949 78.8394C238.949 79.3286 238.555 79.7244 238.066 79.7244Z" fill="#2A2B3C"/>
<path d="M203.536 79.7244H191.708C191.219 79.7244 190.825 79.3286 190.825 78.8394C190.825 78.3501 191.219 77.9543 191.708 77.9543H203.536C204.024 77.9543 204.419 78.3501 204.419 78.8394C204.419 79.3286 204.024 79.7244 203.536 79.7244Z" fill="#2A2B3C"/>
</g>
<g class="message del06">
<path d="M238.066 93.1213H222.504C222.016 93.1213 221.621 92.7256 221.621 92.2362C221.621 91.7469 222.016 91.3511 222.504 91.3511H238.066C238.555 91.3511 238.95 91.7469 238.95 92.2362C238.95 92.7256 238.555 93.1213 238.066 93.1213Z" fill="#2A2B3C"/>
<path d="M217.888 93.1216H191.708C191.219 93.1216 190.825 92.7258 190.825 92.2365C190.825 91.7471 191.219 91.3513 191.708 91.3513H217.888C218.376 91.3513 218.771 91.7471 218.771 92.2365C218.771 92.7258 218.376 93.1216 217.888 93.1216Z" fill="#2A2B3C"/>
</g>
<path d="M255.9 85.3249C255.118 85.3678 254.529 85.4867 254.132 85.6797C253.735 85.8747 253.395 86.1983 253.113 86.6545C252.828 87.1107 252.628 87.6819 252.507 88.3701C252.424 88.8867 252.381 89.7776 252.381 91.0448C252.381 93.1269 252.288 94.5812 252.099 95.4097C251.91 96.2363 251.566 96.9011 251.062 97.4002C250.558 97.8993 249.819 98.293 248.842 98.5835C248.188 98.7765 247.161 98.8721 245.757 98.8721H244.904V95.0062C246.052 95.0062 246.803 94.9341 247.156 94.7898C247.508 94.6455 247.768 94.4331 247.936 94.1621C248.101 93.8872 248.187 93.4232 248.192 92.7682C248.196 92.1132 248.241 90.8615 248.327 89.0153C248.381 87.8983 248.527 87.0054 248.762 86.3328C248.998 85.6602 249.311 85.091 249.702 84.6251C250.093 84.1591 250.595 83.7478 251.204 83.3929C250.412 82.8763 249.832 82.3733 249.467 81.8801C248.963 81.1705 248.62 80.2679 248.439 79.1722C248.321 78.4197 248.237 76.7666 248.181 74.2108C248.171 73.4056 248.099 72.8676 247.965 72.6005C247.833 72.3315 247.591 72.1248 247.241 71.9805C246.893 71.8362 246.115 71.7641 244.903 71.7641V67.9138H245.755C247.2 67.9138 248.309 68.0269 249.082 68.2511C249.852 68.4772 250.502 68.8613 251.027 69.4033C251.554 69.9452 251.908 70.6119 252.097 71.4015C252.286 72.1891 252.379 73.4329 252.379 75.129C252.379 77.0941 252.459 78.3769 252.62 78.9812C252.856 79.839 253.215 80.455 253.698 80.8235C254.18 81.1939 254.914 81.4064 255.9 81.461V85.3249Z" fill="#5E8E3E"/>
<path d="M155.452 56.4549C156.438 56.4022 157.172 56.1898 157.654 55.8194C158.137 55.4489 158.497 54.8329 158.732 53.9751C158.894 53.3727 158.973 52.0919 158.973 50.1248C158.973 48.4287 159.067 47.1849 159.256 46.3954C159.444 45.6058 159.798 44.9411 160.325 44.3991C160.851 43.8572 161.499 43.4711 162.269 43.247C163.039 43.0228 164.15 42.9077 165.598 42.9077H166.45V46.758C165.24 46.758 164.46 46.8301 164.111 46.9764C163.763 47.1206 163.522 47.3292 163.388 47.5963C163.255 47.8653 163.183 48.3995 163.172 49.2066C163.119 51.7624 163.034 53.4156 162.915 54.1661C162.732 55.2637 162.388 56.1644 161.886 56.874C161.52 57.3692 160.944 57.8741 160.15 58.3868C160.759 58.7416 161.261 59.153 161.65 59.6189C162.041 60.0868 162.357 60.6561 162.592 61.3287C162.827 61.9993 162.971 62.8941 163.026 64.0112C163.111 65.8574 163.156 67.1089 163.162 67.764C163.166 68.419 163.254 68.883 163.419 69.1579C163.586 69.4328 163.845 69.6394 164.197 69.7857C164.553 69.9299 165.3 70.002 166.448 70.002V73.8679H165.596C164.191 73.8679 163.164 73.7704 162.508 73.5774C161.534 73.2889 160.794 72.8931 160.291 72.3941C159.785 71.895 159.44 71.2322 159.253 70.4036C159.065 69.577 158.972 68.1227 158.972 66.0386C158.972 64.7734 158.929 63.8825 158.843 63.3659C158.724 62.6777 158.524 62.1065 158.24 61.6484C157.956 61.1941 157.616 60.8705 157.219 60.6756C156.824 60.4826 156.232 60.3636 155.452 60.3208V56.4549Z" fill="#5E8E3E"/>

<path d="M399.018 174.058H353.658V128.603H399.018V174.058ZM355.204 172.508H397.473V130.153H355.204V172.508Z" fill="#2A2B3C"/>
<path class="bird" d="M376.336 165.627C375.517 165.627 374.694 165.394 373.97 164.914L355.998 153.002C354.019 151.692 353.477 149.024 354.786 147.043C356.091 145.06 358.757 144.516 360.733 145.828L375.705 155.751L403.543 126.413C405.177 124.69 407.889 124.624 409.611 126.261C411.329 127.897 411.397 130.618 409.763 132.342L379.449 164.292C378.612 165.171 377.48 165.627 376.336 165.627Z" fill="#BB6BD9"/>
<path d="M332.129 422.659C332.623 420.292 332.647 418.428 331.612 415.001C331.616 414.96 331.598 414.941 331.598 414.941C330.785 412.28 330.334 411.176 329.639 408.554C324.919 407.782 319.042 408.595 315.231 410.445C315.844 414.11 315.801 415.054 315.165 417.079C315.07 417.407 314.937 417.728 314.762 418.048C312.537 422.31 305.317 425.154 302.329 428.024C301.496 428.767 300.998 429.527 300.975 430.297C300.803 434.227 330.898 428.342 332.129 422.659Z" fill="#5E8E3E"/>
<path d="M301.079 429.847C301.015 430.003 301.002 430.129 301 430.291C300.726 434.502 331.518 428.613 332.689 423.121L332.705 423.097C332.822 422.809 332.89 422.487 332.935 422.154C333.345 419.35 331.83 415.528 331.604 414.989C331.619 414.966 331.594 414.95 331.594 414.95C323.82 420.009 314.768 418.033 314.768 418.033C312.813 421.778 307.037 424.435 303.626 426.934C302.253 427.817 301.307 428.804 301.079 429.847Z" fill="#FFD357"/>
<path d="M301.079 429.847C301.015 430.003 301.002 430.13 301 430.291C300.726 434.502 331.518 428.613 332.689 423.121L332.705 423.098C332.822 422.809 332.89 422.487 332.935 422.154C331.361 423.406 328.067 425.614 322.9 427.042C316.211 428.896 309.132 430.535 301.079 429.847Z" fill="#2A2B3B"/>
<path d="M226.032 419.877C229.96 418.331 237.004 417.773 240.265 414.623C240.529 414.375 240.757 414.11 240.951 413.831C242.194 412.11 242.533 411.229 243.105 407.556C247.305 407.01 253.138 408.098 257.371 410.326C257.202 413.034 257.284 414.223 257.217 417.005C257.217 417.005 257.227 417.032 257.21 417.067C257.132 419.896 255.809 423.004 255.046 424.622C245.268 423.805 235.638 422.397 226.032 419.877Z" fill="#5E8E3E"/>
<path d="M222.419 423.296C222.361 425.033 252.827 428.891 254.753 426.533L254.772 426.513C254.891 426.396 254.967 426.26 255.064 426.123C255.142 425.987 255.22 425.85 255.298 425.694C256.56 423.16 257.247 417.631 257.208 417.044C257.228 417.025 257.208 417.005 257.208 417.005C248.24 419.345 240.283 414.607 240.283 414.607C237.246 417.553 230.923 418.233 226.896 419.522C222.966 420.394 222.439 423.218 222.419 423.296Z" fill="#FFD357"/>
<path d="M222.277 423.891C222.22 425.626 252.509 429.634 254.434 427.275C254.434 427.275 254.965 426.259 255.064 426.123C244.912 426.911 230.23 424.62 222.516 423.082C222.477 423.162 222.294 423.813 222.277 423.891Z" fill="#2A2B3B"/>
<path d="M160.703 179.09C160.633 179.036 160.557 178.995 160.489 178.934C159.499 178.032 161.098 176.106 162.092 177.01C162.16 177.073 162.248 177.104 162.32 177.16C162.326 176.457 163.04 175.544 164.273 176.082C164.631 176.238 169.664 178.507 174.366 177.825C173.44 177.266 171.886 176.355 170.662 176.096C169.362 175.821 169.666 173.741 170.969 174.031C171.176 174.076 172.855 174.493 173.067 174.622C178.917 176.461 184.43 180.358 188.815 184.685C189.584 185.335 190.331 186.017 191.039 186.762C191.292 187.029 191.288 187.493 191.161 187.807C190.529 189.417 188.336 192.554 187.229 193.87C187.117 194 186.979 194.084 186.837 194.148C187.253 195.164 185.813 196.15 185.076 195.146C183.113 192.468 178.848 188.159 178.806 188.128C172.954 187.684 167.293 187.157 161.909 184.724C160.822 184.233 161.324 182.397 162.314 182.447C162.324 182.44 162.331 182.43 162.343 182.422C162.326 182.416 162.31 182.404 162.297 182.397C161.966 182.28 160.548 181.486 160.151 181.18C159.396 180.593 160.013 179.318 160.703 179.09Z" fill="#F2994A"/>
<path d="M173.467 180.539C168.096 180.539 162.263 177.404 162.205 177.373C162.086 177.309 162.044 177.16 162.106 177.041C162.172 176.921 162.324 176.883 162.437 176.942C162.493 176.975 168.222 180.051 173.467 180.051C173.518 180.051 173.57 180.051 173.621 180.051H173.623C173.755 180.051 173.864 180.159 173.866 180.293C173.868 180.426 173.759 180.537 173.625 180.539C173.574 180.539 173.52 180.539 173.467 180.539Z" fill="#F2994A"/>
<path d="M172.578 183.232C168.024 183.232 160.901 179.471 160.59 179.305C160.471 179.243 160.427 179.095 160.489 178.976C160.551 178.859 160.699 178.814 160.818 178.875C160.894 178.915 168.147 182.74 172.582 182.74C172.724 182.74 172.862 182.737 172.997 182.729C173.002 182.729 173.008 182.729 173.012 182.729C173.139 182.729 173.247 182.828 173.255 182.957C173.263 183.091 173.16 183.208 173.028 183.216C172.88 183.226 172.73 183.232 172.578 183.232Z" fill="#F2994A"/>
<path d="M172.288 185.378C172.287 185.378 172.287 185.378 172.285 185.378C168.845 185.319 162.493 182.783 162.222 182.675C162.1 182.627 162.038 182.482 162.088 182.358C162.139 182.233 162.283 182.176 162.406 182.223C162.47 182.25 168.944 184.834 172.292 184.89C172.427 184.892 172.534 185.005 172.532 185.138C172.53 185.27 172.423 185.378 172.288 185.378Z" fill="#F2994A"/>
<path d="M281.078 168.438C260.243 158.814 237.286 185.475 225.508 199.473C213.728 213.468 220.374 224.851 228.028 223.668C252.042 219.956 293.708 174.273 281.078 168.438Z" fill="#3F4261"/>
<path d="M186.546 179.091C205.923 177.161 230.119 192.577 236.673 200.352C243.228 208.127 229.07 224.238 225.728 223.643C222.386 223.048 180.632 208.973 178.897 192.763C178.895 192.765 183.303 179.414 186.546 179.091Z" fill="#3F4261"/>
<path d="M182.132 199.896C182.132 199.896 198.912 220.814 228.028 223.668C231.644 224.023 251.885 212.987 251.885 212.987L249.007 196.445C249.007 196.445 234.936 216.104 227.911 217.447C220.888 218.793 182.132 199.896 182.132 199.896Z" fill="#343751"/>
<path d="M267.771 418.585C274.034 401.605 277.33 376.789 277.804 358.846C278.329 339.043 285.845 280.191 287.576 270.307C288.8 263.32 290.952 255.685 288.201 248.782C283.02 235.791 250.663 233.149 250.07 233.722C240.885 242.585 242.724 257.99 241.414 270.281C239.8 285.447 238.634 300.756 238.154 316.003C237.699 330.459 229.39 413.068 230.228 412.247C242.086 416.427 259.031 421.788 267.771 418.585Z" fill="#BB6BD9"/>
<path d="M271.838 262.272C271.838 262.272 265.968 334.067 263.05 346.78C260.132 359.493 254.474 407.252 245.644 417.099C245.644 417.099 259.713 421.413 267.771 418.584C267.771 418.584 276.085 394.867 277.513 367.269C278.937 339.672 289.541 279.377 289.541 279.377L271.838 262.272Z" fill="#C0C0FF"/>
<path d="M273.042 268.037L284.604 309.447L280.542 337.619L273.042 268.037Z" fill="#2A2B3B"/>
<path d="M275.234 278.418C277.744 293.468 280.703 308.517 284.32 323.355C287.744 337.391 301.072 419.598 301.656 418.586C324.028 420.945 334.404 417.124 340.847 412.966C342.345 394.911 338.326 371.391 333.989 353.962C329.184 334.759 320.682 276.04 319.71 266.039C319.068 259.35 318.367 247.263 314.476 241.005C314.264 240.654 314.031 240.323 313.795 240.011C305.331 228.879 274.225 240.167 273.795 240.869C267.316 251.883 273.211 266.234 275.234 278.418Z" fill="#BB6BD9"/>
<path d="M302.609 254.632C302.609 254.632 313.212 276.954 312.823 287.267C312.433 297.561 310.002 338.929 317.003 355.5C324.009 372.071 326.135 418.583 326.135 418.583C326.135 418.583 333.836 417.282 340.847 412.962C342.345 394.908 338.326 371.387 333.989 353.958C329.184 334.755 320.682 276.036 319.71 266.035C319.068 259.346 318.367 247.259 314.476 241.001L302.609 244.14V254.632Z" fill="#C0C0FF"/>
<path d="M243.019 249.195C243.019 249.195 279.571 258.976 318.147 252.086L316.957 242.926L243.019 249.195Z" fill="#2A2B3B"/>
<path d="M257.422 171.959C257.422 171.959 246.428 181.719 240.535 197.802C236.821 207.941 235.434 221.229 235.434 221.229L248.832 213.969L257.422 171.959Z" fill="#17171D"/>
<path d="M319.888 248.57C319.888 248.57 311.072 180.073 290.808 168.324C277.761 160.76 257.63 167.411 253.136 177.34C244.37 196.707 239.257 248.49 239.257 248.49C239.257 248.49 286.125 258.335 319.888 248.57Z" fill="#EDF1F4"/>
<path d="M268.266 156.198C268.266 156.198 268.501 164.842 268.762 166.585C268.841 167.117 276.797 166.731 277.818 165.703C277.028 163.524 276.619 160.337 276.619 156.198C276.619 152.281 268.266 156.198 268.266 156.198Z" fill="#F2994A"/>
<path d="M277.676 150.799C277.676 150.799 275.865 161.344 269.217 161.551C262.571 161.756 266.735 147.195 267.731 146.793C268.733 146.391 275.215 144.974 277.676 150.799Z" fill="#F2994A"/>
<path d="M269.565 141.647C270.462 141.196 271.443 141.005 272.452 141.198C273.668 141.43 274.433 142.364 275.61 142.489C278.24 142.771 279.52 144.471 279.238 146.715C279.304 146.778 279.374 146.836 279.429 146.926C280.392 148.565 281.01 150.294 280.045 151.864C281.1 153.759 279.497 156.24 278.283 157.786C278.178 157.917 278.059 157.991 277.936 158.044C277.598 158.685 276.415 158.792 276.106 157.876C275.326 155.57 276.005 152.794 275.141 150.657C274.727 149.634 273.814 148.881 273.131 147.916C272.108 148.238 271.143 148.093 270.223 147.514C268.034 148.676 264.423 148.166 263.814 145.44C263.007 141.818 266.894 140.711 269.565 141.647Z" fill="#17171D"/>
<path d="M274.252 152.719C274.252 152.719 275.261 150.778 277.098 151.055C278.936 151.331 279.359 155.718 276.248 156.1C273.139 156.482 274.252 152.719 274.252 152.719Z" fill="#F2994A"/>
<path d="M265.538 156.583C266.129 156.423 266.878 156.349 267.195 155.942C267.736 155.242 268.649 155.353 268.654 156.125C269.343 157.11 270.952 157.609 271.483 156.961C271.777 156.739 272.04 156.484 272.269 156.195C272.738 155.644 273.121 154.957 273.429 154.298C274.014 153.035 274.331 151.657 274.619 150.3C274.88 149.074 276.755 149.592 276.495 150.819C276.119 152.589 275.602 154.476 274.686 156.092C274.711 156.228 274.715 156.381 274.674 156.548C273.985 159.461 272.721 161.365 269.612 161.853C268.67 162.001 267.129 161.781 266.301 161.155C265.359 160.443 265.31 157.1 265.538 156.583Z" fill="#17171D"/>
<path d="M242.099 270.546C241.7 270.546 241.44 270.527 241.399 270.525C241.267 270.513 241.165 270.398 241.175 270.263C241.185 270.129 241.298 270.053 241.436 270.037C241.477 270.047 245.391 270.312 247.112 268.583C248.552 267.142 249.017 255.289 249.075 250.842C249.077 250.71 249.186 250.603 249.319 250.603C249.433 250.595 249.564 250.714 249.562 250.85C249.552 251.511 249.33 267.053 247.459 268.928C246.027 270.363 243.368 270.546 242.099 270.546Z" fill="#2A2B3C"/>
<path d="M271.367 407.27C270.044 407.256 238.948 406.858 230.481 401.039C230.368 400.963 230.341 400.811 230.417 400.7C230.495 400.585 230.644 400.559 230.755 400.635C239.101 406.375 271.048 406.778 271.369 406.782C271.503 406.784 271.612 406.895 271.61 407.028C271.608 407.164 271.499 407.27 271.367 407.27Z" fill="#2A2B3C"/>
<path d="M299.806 407.659C299.675 407.659 299.566 407.552 299.562 407.421C299.56 407.287 299.667 407.176 299.8 407.172C317.624 406.788 340.528 400.663 340.757 400.6C340.886 400.563 341.02 400.643 341.055 400.774C341.09 400.902 341.014 401.037 340.882 401.072C340.652 401.132 317.694 407.273 299.811 407.659C299.809 407.659 299.807 407.659 299.806 407.659Z" fill="#2A2B3C"/>
<path d="M259.861 237.611C260.348 239.112 269.219 241.647 280.425 243.05C292.718 244.61 307.836 244.803 317.816 240.808C319.295 240.224 320.657 239.543 321.883 238.761C321.883 238.761 305.249 175.071 290.502 167.468C282.234 163.2 277.604 165.052 277.604 165.052C277.604 165.052 251.788 212.792 259.861 237.611Z" fill="#3F4261"/>
<path d="M286.067 228.953C285.366 234.471 283.032 239.266 280.427 243.048C292.72 244.608 307.838 244.801 317.818 240.806C318.75 228.663 312.215 210.063 312.215 210.063L284.571 170.31C284.571 170.31 276.125 179.416 276.322 188.986C276.515 198.58 287.857 214.819 286.067 228.953Z" fill="#343751"/>
<path d="M268.762 166.584C268.762 166.584 250.424 190.491 251.254 236.954C251.313 240.202 239.393 238.437 238.381 235.377C234.537 223.752 245.644 183.83 255.694 172.538C259.587 168.165 268.762 166.584 268.762 166.584Z" fill="#3F4261"/>
<path d="M277.606 165.058C277.606 165.058 281.43 168.505 281.127 171.363C280.823 174.225 272.119 176.319 272.119 176.319C272.119 176.319 280.458 175.966 282.22 171.959C283.983 167.949 277.606 165.058 277.606 165.058Z" fill="#17171D"/>
<path d="M268.762 166.584C268.762 166.584 261.056 168.885 259.665 172.782C259.26 173.92 263.476 175.626 263.476 175.626C263.476 175.626 257.877 175.373 257.962 172.702C258.05 170.031 268.762 166.584 268.762 166.584Z" fill="#17171D"/>
<path d="M285.279 169.363C285.279 169.363 277.456 179.118 278.532 190.166C279.608 201.214 300.521 224.931 301.171 228.507C301.819 232.08 300.901 244.288 300.901 244.288L309.439 223.66L291.444 199.426L285.279 169.363Z" fill="#17171D"/>
<path d="M284.57 168.378C273.773 188.665 294.251 214.588 307.511 227.183C320.771 239.779 335.878 221.306 334.654 216.052C333.429 210.798 291.113 156.084 284.57 168.378Z" fill="#3F4261"/>
<path d="M242.975 238.549C242.895 238.508 242.811 238.484 242.733 238.438C241.58 237.755 242.759 235.544 243.914 236.229C243.994 236.276 244.086 236.287 244.167 236.328C244.031 235.638 244.545 234.601 245.864 234.88C246.243 234.96 251.63 236.162 256.099 234.54C255.079 234.178 275.968 236.993 276.886 237.455C281.705 239.888 276.133 246.138 275.211 245.306C272.748 243.078 262.575 243.754 262.527 243.731C256.706 244.483 251.056 245.113 245.294 243.822C244.13 243.561 244.251 241.66 245.23 241.508C245.239 241.498 245.245 241.487 245.255 241.477C245.235 241.475 245.218 241.467 245.202 241.463C244.856 241.416 243.304 240.925 242.858 240.703C241.996 240.286 242.342 238.913 242.975 238.549Z" fill="#F2994A"/>
<path d="M252.163 237.722C247.986 237.722 244.148 236.578 244.097 236.564C243.969 236.523 243.895 236.389 243.934 236.26C243.975 236.133 244.113 236.065 244.237 236.096C244.301 236.116 250.651 238.005 255.816 236.874C255.949 236.847 256.077 236.929 256.104 237.061C256.132 237.194 256.05 237.323 255.918 237.35C254.702 237.617 253.416 237.722 252.163 237.722Z" fill="#F2994A"/>
<path d="M185.833 239.939L248.708 242.006L248.799 239.247L185.924 237.179L185.833 239.939Z" fill="#AABFCE"/>
<path d="M248.842 241.957L277.401 238.496L277.491 235.738L248.933 239.198L248.842 241.957Z" fill="#BED0E2"/>
<path d="M277.491 235.738L206.217 231.295L186.06 237.13L248.934 239.198L277.491 235.738Z" fill="#DCE8EF"/>
<path d="M187.833 237.188L250.332 238.578L243.474 200.272L181.747 198.208L179.582 199.617L187.833 237.188Z" fill="#DCE8EF"/>
<path d="M186.309 237.138L248.933 239.198L242.49 202.347L179.582 199.617L186.309 237.138Z" fill="#BED0E2"/>
<path d="M266.03 233.942C269.39 223.965 310.292 212.178 320.445 212.361C330.6 212.544 333.369 233.829 330.719 235.958C328.069 238.087 280.952 266.273 270.921 253.231C270.921 253.231 264.989 237.034 266.03 233.942Z" fill="#3F4261"/>
<path d="M294.298 169.429C294.298 169.429 331.826 200.896 337.95 219.409C344.074 237.921 301.646 248.622 298.784 252.219C298.784 252.219 333.086 227.263 328.871 218.003C324.655 208.743 294.298 169.429 294.298 169.429Z" fill="#343751"/>
<g class="sheet del10">
<path d="M108.343 374.011C108.391 378.558 113.3 380.357 116.685 378.552C119.455 377.078 121.173 374.021 123.047 371.526C125.801 367.859 128.906 364.512 132.241 361.453C138.085 356.092 144.583 351.616 151.277 347.565C156.981 344.112 163.477 341.422 168.463 336.801C172.131 333.405 174.551 328.709 173.952 323.317C173.407 318.408 170.07 314.563 165.368 314.257C159.149 313.85 153.232 318.712 148.31 322.02C142.172 326.149 136.192 330.582 130.737 335.698C120.16 345.617 108.337 373.51 108.343 374.011Z" fill="#3F4261"/>
<path d="M114.794 366.913C126.305 347.535 143.379 332.619 163.452 324.451C164.324 324.094 164.999 325.513 164.119 325.872C144.262 333.954 127.41 348.636 116.022 367.812C115.518 368.66 114.288 367.763 114.794 366.913Z" fill="#2A2B3C"/>
</g>
<g class="sheet del12">
<path d="M90.1645 259.875C91.3882 282.244 96.7596 304.012 100.771 325.921C102.925 337.682 104.709 349.553 105.217 361.54C105.427 366.545 106.763 379.16 110.711 378.38C119.276 376.69 121.796 328.209 123.313 302.497C124.01 290.707 124.395 278.776 123.905 266.965C123.523 257.785 121.932 248.198 115.957 241.15C111.36 235.725 103.446 231.907 97.1118 236.323C89.8222 241.405 89.7131 251.633 90.1645 259.875Z" fill="#BB6BD9"/>
<path d="M104.361 247.843C104.213 246.852 105.633 246.425 105.781 247.424C111.561 286.336 113.477 325.79 111.467 365.129C111.417 366.135 109.94 366.143 109.993 365.129C111.997 325.936 110.119 286.613 104.361 247.843Z" fill="#C0C0FF"/>
</g>
<g class="sheet">
<path d="M69.0778 299.056C69.1906 306.024 71.4512 313.011 74.1379 319.291C80.1902 333.434 89.7424 345.463 96.1877 359.382C98.0845 363.478 99.5845 367.685 100.787 372.064C101.386 374.249 101.974 376.897 103.989 378.109C105.602 379.076 109.956 377.507 109.952 376.587C109.905 355.119 109.8 332.978 102.267 312.713C99.4969 305.264 95.7794 298.195 90.9099 292.064C87.2835 287.498 81.4879 282.16 75.4706 284.899C70.4513 287.186 68.9941 293.791 69.0778 299.056Z" fill="#56CCF2"/>
<path d="M82.6221 305.968C94.2948 326.929 106.261 349.073 106.781 374.107C106.802 375.121 105.325 375.121 105.304 374.107C104.79 349.362 92.8823 327.475 81.3496 306.761C80.8613 305.89 82.1396 305.098 82.6221 305.968Z" fill="#BB6BD9"/>
</g>
<g class="sheet del04">
<path d="M140.626 284.901C135.515 282.162 130.595 287.5 127.515 292.066C123.379 298.197 120.222 305.266 117.87 312.715C111.473 332.98 111.384 355.121 111.345 376.589C111.341 377.511 115.039 379.078 116.409 378.111C118.121 376.899 118.621 374.253 119.128 372.066C120.148 367.687 121.424 363.48 123.033 359.384C128.506 345.463 136.618 333.434 141.758 319.292C144.04 313.013 145.96 306.026 146.056 299.058C146.124 293.791 144.886 287.186 140.626 284.901Z" fill="#56CCF2"/>
<path d="M134.55 305.968C124.638 326.929 114.477 349.073 114.035 374.107C114.018 375.121 115.271 375.121 115.29 374.107C115.726 349.362 125.838 327.475 135.634 306.761C136.044 305.89 134.962 305.098 134.55 305.968Z" fill="#BB6BD9"/>
</g>
<path d="M123.554 430.187H97.7616L90.3474 370.955H130.965L123.554 430.187Z" fill="#BED0E2"/>
<g class="loop">
<path d="M407.576 235.604C405.856 235.604 404.236 234.945 402.998 233.738C401.722 232.49 401.016 230.821 401.014 229.034C401.01 227.25 401.708 225.579 402.981 224.327L433.665 193.923C433.966 193.625 434.457 193.625 434.76 193.931C435.06 194.235 435.056 194.724 434.752 195.028L404.066 225.435C403.094 226.39 402.561 227.669 402.563 229.034C402.565 230.398 403.104 231.675 404.078 232.629C405.055 233.58 406.337 234.122 407.702 234.054C409.064 234.02 410.325 233.451 411.253 232.453L440.77 200.9C441.06 200.59 441.55 200.573 441.865 200.865C442.176 201.158 442.192 201.647 441.9 201.963L412.385 233.514C411.173 234.818 409.523 235.563 407.741 235.604C407.685 235.604 407.631 235.604 407.576 235.604Z" fill="#2A2B3C"/>
<path d="M457.716 200.532C452.993 200.532 448.411 199.029 444.544 196.165C439.474 192.373 436.235 186.612 435.655 180.356C435.139 174.863 436.653 169.412 439.913 165.006C443.446 160.23 448.627 157.114 454.499 156.237C460.378 155.362 466.228 156.828 470.99 160.368C475.408 163.643 478.445 168.416 479.542 173.812C480.805 180.005 479.375 186.454 475.619 191.505C472.093 196.29 466.918 199.409 461.043 200.286C459.932 200.45 458.821 200.532 457.716 200.532ZM457.819 157.541C456.794 157.541 455.761 157.617 454.728 157.771C449.263 158.586 444.445 161.485 441.155 165.932C438.12 170.03 436.715 175.1 437.192 180.212C437.733 186.031 440.748 191.392 445.466 194.921C449.901 198.208 455.362 199.569 460.816 198.752C466.282 197.935 471.095 195.036 474.373 190.585L474.377 190.583C477.873 185.885 479.202 179.886 478.027 174.124C477.008 169.106 474.179 164.663 470.068 161.616C466.477 158.941 462.216 157.541 457.819 157.541Z" fill="#2A2B3C"/>
</g>
<path d="M519.102 400.599C519.01 399.959 518.459 399.614 517.989 399.574C517.53 399.533 507.759 398.813 507.759 398.813C507.759 398.813 500.98 392.115 500.234 391.374C499.489 390.633 498.039 390.857 497.468 391.019C497.386 391.039 495.987 391.476 493.669 392.186C491.413 385.712 487.411 379.755 480.376 379.755C480.182 379.755 479.978 379.765 479.784 379.775C477.773 377.147 475.302 376 473.158 376C456.771 376 448.94 396.367 446.48 406.718C440.109 408.677 435.586 410.077 435.004 410.25C431.451 411.356 431.338 411.467 430.869 414.796C430.522 417.323 421.22 488.826 421.22 488.826L493.71 502.323L532.988 493.879C532.977 493.879 519.194 401.228 519.102 400.599ZM489.667 393.424C487.85 393.982 485.777 394.622 483.531 395.312C483.531 394.885 483.531 394.459 483.531 393.992C483.531 389.964 482.97 386.716 482.071 384.149C485.696 384.606 488.115 388.705 489.667 393.424ZM477.579 384.951C478.59 387.457 479.243 391.06 479.243 395.931C479.243 396.174 479.243 396.408 479.243 396.641C475.251 397.869 470.922 399.198 466.573 400.538C469.013 391.171 473.577 386.655 477.579 384.951ZM472.709 380.374C473.413 380.374 474.128 380.607 474.812 381.074C469.554 383.53 463.928 389.72 461.549 402.08C458.078 403.146 454.678 404.191 451.533 405.165C454.321 395.738 460.937 380.374 472.709 380.374Z" fill="#95BF47"/>
<path d="M517.999 399.574C517.54 399.533 507.769 398.813 507.769 398.813C507.769 398.813 500.99 392.115 500.244 391.374C499.969 391.1 499.591 390.958 499.193 390.897L493.71 502.323L532.977 493.88C532.977 493.88 519.194 401.228 519.102 400.599C519.02 399.96 518.459 399.604 517.999 399.574Z" fill="#5E8E3E"/>
<path d="M480.376 421.138L475.537 435.457C475.537 435.457 471.29 433.204 466.093 433.204C458.466 433.204 458.088 437.964 458.088 439.161C458.088 445.697 475.241 448.203 475.241 463.527C475.241 475.583 467.553 483.336 457.18 483.336C444.734 483.336 438.373 475.643 438.373 475.643L441.701 464.704C441.701 464.704 448.246 470.285 453.759 470.285C457.363 470.285 458.834 467.464 458.834 465.404C458.834 456.87 444.764 456.494 444.764 442.48C444.764 430.678 453.279 419.261 470.483 419.261C477.099 419.251 480.376 421.138 480.376 421.138Z" fill="white"/>
<path class="movingGear" d="M610.539 53.4422L614 42.1192L607.049 39.3181C607.328 35.7833 606.969 32.3015 606.049 28.9805L612.339 24.9061L606.786 14.4623L599.891 17.3989C597.651 14.7796 594.966 12.5362 591.88 10.7905L593.442 3.46217L582.12 0L579.319 6.95091C575.797 6.67556 572.302 7.03057 568.982 7.95028L564.908 1.66189L554.463 7.21507L557.399 14.1101C554.779 16.3492 552.536 19.0343 550.79 22.1205L543.461 20.5578L540 31.8808L546.95 34.6819C546.675 38.2055 547.031 41.6985 547.949 45.0195L541.661 49.0939L547.216 59.5377L554.11 56.6011C556.35 59.2204 559.047 61.468 562.122 63.2095L560.558 70.5378L571.881 74L574.682 67.0491C578.218 67.3286 581.699 66.968 585.021 66.0497L589.095 72.3381L599.54 66.7849L596.603 59.8899C599.222 57.6494 601.47 54.9531 603.212 51.8781L610.539 53.4422ZM570.753 57.4341C559.469 53.9845 553.117 42.0381 556.565 30.7556C560.015 19.4718 571.961 13.1191 583.245 16.5687C594.53 20.0183 600.883 31.9633 597.433 43.2472C593.983 54.531 582.039 60.8823 570.753 57.4341Z" fill="#EDF1F4"/>
</svg>
