<svg width="97" height="100" viewBox="0 0 97 100" fill="none" xmlns="http://www.w3.org/2000/svg">
<path d="M80.5575 74.9937V35.4808H67.6683V84.6703L80.5575 74.9937Z" fill="#C4A2FC"/>
<path d="M96.6687 84.6703V35.4808H83.7795V74.9937L96.6687 84.6703Z" fill="#C4A2FC"/>
<path d="M96.5722 32.2554C95.7237 24.9361 89.5288 19.415 82.1686 19.415C74.8083 19.415 68.6134 24.9361 67.7649 32.2554H96.5722Z" fill="#C4A2FC"/>
<path d="M71.8412 90.3153L81.0248 99.5242C81.3282 99.8279 81.7391 100 82.1687 100C82.5984 100 83.0092 99.8279 83.3126 99.5242L92.4962 90.3153H71.8412Z" fill="#C4A2FC"/>
<path d="M82.1688 77.816L69.8113 87.0895H94.5263L82.1688 77.816Z" fill="#C4A2FC"/>
<path d="M75.724 0H4.83345C2.16431 0 0 2.16649 0 4.83831V67.7363C0 70.4081 2.16431 72.5746 4.83345 72.5746H75.724C78.3932 72.5746 80.5575 70.4081 80.5575 67.7363V4.83831C80.5575 2.16649 78.3932 0 75.724 0ZM77.3352 67.7363C77.3352 68.626 76.6129 69.3491 75.724 69.3491H4.83345C3.94463 69.3491 3.2223 68.626 3.2223 67.7363V12.9021H77.3352V67.7363ZM77.3352 9.67661H3.2223V4.83831C3.2223 3.9486 3.94463 3.22554 4.83345 3.22554H75.724C76.6129 3.22554 77.3352 3.9486 77.3352 4.83831V9.67661Z" fill="#151A6A"/>
<path d="M11.278 38.7064H27.3895C28.2783 38.7064 29.0006 37.9833 29.0006 37.0936V20.9659C29.0006 20.0762 28.2783 19.3531 27.3895 19.3531H11.278C10.3891 19.3531 9.66681 20.0762 9.66681 20.9659V37.0936C9.66681 37.9833 10.3891 38.7064 11.278 38.7064ZM12.8891 22.5787H25.7783V35.4808H12.8891V22.5787Z" fill="#151A6A"/>
<path d="M20.945 27.4171H17.7227V30.6426H20.945V27.4171Z" fill="#151A6A"/>
<path d="M20.945 51.6088H17.7227V54.8343H20.945V51.6088Z" fill="#151A6A"/>
<path d="M11.278 62.898H27.3895C28.2783 62.898 29.0006 62.175 29.0006 61.2853V45.1576C29.0006 44.2679 28.2783 43.5448 27.3895 43.5448H11.278C10.3891 43.5448 9.66681 44.2679 9.66681 45.1576V61.2853C9.66681 62.175 10.3891 62.898 11.278 62.898ZM12.8891 46.7703H25.7783V59.6725H12.8891V46.7703Z" fill="#151A6A"/>
<path d="M35.4451 22.5787H69.2792C70.168 22.5787 70.8904 21.8556 70.8904 20.9659C70.8904 20.0762 70.168 19.3531 69.2792 19.3531H35.4451C34.5563 19.3531 33.8339 20.0762 33.8339 20.9659C33.8339 21.8556 34.5563 22.5787 35.4451 22.5787Z" fill="#151A6A"/>
<path d="M35.4451 30.6426H62.8346C63.7234 30.6426 64.4458 29.9196 64.4458 29.0299C64.4458 28.1402 63.7234 27.4171 62.8346 27.4171H35.4451C34.5563 27.4171 33.8339 28.1402 33.8339 29.0299C33.8339 29.9196 34.5563 30.6426 35.4451 30.6426Z" fill="#151A6A"/>
<path d="M35.4451 46.7703H69.2792C70.168 46.7703 70.8904 46.0473 70.8904 45.1576C70.8904 44.2679 70.168 43.5448 69.2792 43.5448H35.4451C34.5563 43.5448 33.8339 44.2679 33.8339 45.1576C33.8339 46.0473 34.5563 46.7703 35.4451 46.7703Z" fill="#151A6A"/>
<path d="M35.4451 54.8343H62.8346C63.7234 54.8343 64.4458 54.1113 64.4458 53.2215C64.4458 52.3318 63.7234 51.6088 62.8346 51.6088H35.4451C34.5563 51.6088 33.8339 52.3318 33.8339 53.2215C33.8339 54.1113 34.5563 54.8343 35.4451 54.8343Z" fill="#151A6A"/>
</svg>
