<svg width="121" height="100" viewBox="0 0 121 100" fill="none" xmlns="http://www.w3.org/2000/svg">
<path d="M112.856 40.6476C112.802 40.2746 112.481 40.0733 112.207 40.0496C111.939 40.0259 106.238 39.6055 106.238 39.6055C106.238 39.6055 102.282 35.6977 101.847 35.2655C101.412 34.8332 100.567 34.9635 100.233 35.0582C100.185 35.0701 99.3692 35.3247 98.0169 35.7391C96.7004 31.9615 94.3652 28.4859 90.2608 28.4859C90.1476 28.4859 90.0285 28.4919 89.9153 28.4978C88.7418 26.9642 87.3002 26.2952 86.0492 26.2952C76.4881 26.2952 71.9191 38.1786 70.4834 44.218C66.7662 45.3607 64.1272 46.1778 63.7877 46.2785C61.7146 46.9239 61.6491 46.989 61.3751 48.9311C61.1725 50.4054 55.7457 92.1246 55.7457 92.1246L98.0407 99.9996L120.958 95.0733C120.952 95.0733 112.91 41.0147 112.856 40.6476ZM95.6817 36.4615C94.6214 36.7871 93.4121 37.1602 92.1016 37.5628C92.1016 37.3141 92.1016 37.0654 92.1016 36.7931C92.1016 34.4424 91.7739 32.5477 91.2497 31.0497C93.3644 31.3162 94.7763 33.7082 95.6817 36.4615ZM88.6286 31.5175C89.2183 32.98 89.5996 35.0819 89.5996 37.924C89.5996 38.0661 89.5996 38.2023 89.5996 38.3384C87.2704 39.0549 84.7446 39.8305 82.2069 40.6121C83.6306 35.147 86.2934 32.5122 88.6286 31.5175ZM85.7871 28.8471C86.1981 28.8471 86.6151 28.9833 87.0142 29.2557C83.9464 30.6885 80.664 34.3003 79.276 41.5121C77.2506 42.1338 75.2669 42.7437 73.4322 43.3121C75.0584 37.8115 78.9186 28.8471 85.7871 28.8471Z" fill="#C4A2FC"/>
<path d="M112.212 40.05C111.944 40.0263 106.243 39.6059 106.243 39.6059C106.243 39.6059 102.288 35.6981 101.853 35.2658C101.692 35.106 101.472 35.0231 101.239 34.9875L98.0405 100L120.951 95.0737C120.951 95.0737 112.909 41.0151 112.856 40.648C112.808 40.275 112.48 40.0678 112.212 40.05Z" fill="#C4A2FC"/>
<path d="M90.2608 52.6314L87.4372 60.9859C87.4372 60.9859 84.9591 59.6715 81.9269 59.6715C77.477 59.6715 77.2566 62.4484 77.2566 63.1471C77.2566 66.9602 87.2644 68.4227 87.2644 77.3634C87.2644 84.3975 82.7788 88.9212 76.7264 88.9212C69.4647 88.9212 65.7534 84.4331 65.7534 84.4331L67.6955 78.0502C67.6955 78.0502 71.5139 81.3068 74.7308 81.3068C76.8336 81.3068 77.6914 79.6607 77.6914 78.4588C77.6914 73.4792 69.4826 73.2602 69.4826 65.0833C69.4826 58.1972 74.4508 51.536 84.4884 51.536C88.3486 51.5301 90.2608 52.6314 90.2608 52.6314Z" fill="#EBF8E3"/>
<path d="M89.3185 0H5.95457C2.66632 0 0 2.68216 0 5.98994V79.8658C0 83.1736 2.66632 85.8558 5.95457 85.8558H89.3185C92.6068 85.8558 95.2731 83.1736 95.2731 79.8658V5.98994C95.2731 2.68216 92.6068 0 89.3185 0ZM91.3034 79.8658C91.3034 80.9673 90.4135 81.8625 89.3185 81.8625H5.95457C4.85959 81.8625 3.96971 80.9673 3.96971 79.8658V15.9732H91.3034V79.8658ZM91.3034 11.9799H3.96971V5.98994C3.96971 4.88845 4.85959 3.99329 5.95457 3.99329H89.3185C90.4135 3.99329 91.3034 4.88845 91.3034 5.98994V11.9799Z" fill="#151A6A"/>
<path d="M15.8788 29.9497H27.788C28.883 29.9497 29.7728 29.0545 29.7728 27.9531C29.7728 26.8516 28.883 25.9564 27.788 25.9564H15.8788C14.7839 25.9564 13.894 26.8516 13.894 27.9531C13.894 29.0545 14.7839 29.9497 15.8788 29.9497Z" fill="#151A6A"/>
<path d="M15.8788 43.926H35.7274C36.8224 43.926 37.7123 43.0309 37.7123 41.9294C37.7123 40.8279 36.8224 39.9327 35.7274 39.9327H15.8788C14.7839 39.9327 13.894 40.8279 13.894 41.9294C13.894 43.0309 14.7839 43.926 15.8788 43.926Z" fill="#151A6A"/>
<path d="M15.8788 71.8789H35.7274C36.8224 71.8789 37.7123 70.9837 37.7123 69.8823C37.7123 68.7808 36.8224 67.8856 35.7274 67.8856H15.8788C14.7839 67.8856 13.894 68.7808 13.894 69.8823C13.894 70.9837 14.7839 71.8789 15.8788 71.8789Z" fill="#151A6A"/>
<path d="M15.8788 57.903H27.788C28.883 57.903 29.7728 57.0078 29.7728 55.9063C29.7728 54.8048 28.883 53.9097 27.788 53.9097H15.8788C14.7839 53.9097 13.894 54.8048 13.894 55.9063C13.894 57.0078 14.7839 57.903 15.8788 57.903Z" fill="#151A6A"/>
<path d="M59.5457 43.926H79.3943C80.4893 43.926 81.3791 43.0309 81.3791 41.9294C81.3791 40.8279 80.4893 39.9327 79.3943 39.9327H59.5457C58.4507 39.9327 57.5609 40.8279 57.5609 41.9294C57.5609 43.0309 58.4507 43.926 59.5457 43.926Z" fill="#151A6A"/>
<path d="M59.5457 71.8789H79.3943C80.4893 71.8789 81.3791 70.9837 81.3791 69.8823C81.3791 68.7808 80.4893 67.8856 79.3943 67.8856H59.5457C58.4507 67.8856 57.5609 68.7808 57.5609 69.8823C57.5609 70.9837 58.4507 71.8789 59.5457 71.8789Z" fill="#151A6A"/>
<path d="M59.5457 57.903H71.4548C72.5498 57.903 73.4397 57.0078 73.4397 55.9063C73.4397 54.8048 72.5498 53.9097 71.4548 53.9097H59.5457C58.4507 53.9097 57.5609 54.8048 57.5609 55.9063C57.5609 57.0078 58.4507 57.903 59.5457 57.903Z" fill="#151A6A"/>
</svg>
