<svg width="81" height="81" viewBox="0 0 81 81" fill="none" xmlns="http://www.w3.org/2000/svg">
<circle cx="40.5" cy="40.5" r="40.5" fill="#EBF8E3"/>
<path d="M32.5486 22.202C36.6852 20.6451 41.2057 20.423 45.475 21.567C46.5009 21.8418 47.5554 21.233 47.8303 20.2071C48.1052 19.1812 47.4964 18.1267 46.4705 17.8519C41.4249 16.4999 36.0825 16.7623 31.1938 18.6024C26.305 20.4424 22.1153 23.7675 19.2133 28.1107C16.3112 32.454 14.8425 37.5972 15.0134 42.818C15.1843 48.0388 16.9863 53.0749 20.1662 57.219C23.3461 61.3632 27.7442 64.4072 32.7429 65.9235C37.7415 67.4398 43.0896 67.3523 48.036 65.6733C52.9824 63.9942 57.2785 60.8079 60.3212 56.5619C63.3638 52.316 65 47.2236 65 42C65 40.9379 64.139 40.0769 63.0769 40.0769C62.0148 40.0769 61.1538 40.9379 61.1538 42C61.1538 46.42 59.7694 50.7289 57.1948 54.3216C54.6203 57.9144 50.9851 60.6105 46.7997 62.0312C42.6143 63.452 38.089 63.526 33.8594 62.243C29.6297 60.9599 25.9082 58.3842 23.2175 54.8776C20.5268 51.3711 19.0021 47.1097 18.8575 42.6921C18.7129 38.2745 19.9556 33.9226 22.4112 30.2476C24.8668 26.5725 28.4119 23.7589 32.5486 22.202Z" fill="#AC79FF"/>
<path d="M60.7429 25.8804C61.3991 25.0453 61.254 23.8363 60.4189 23.1802C59.5837 22.524 58.3748 22.6691 57.7186 23.5042L37.904 48.7228L29.8214 40.6402C29.0704 39.8892 27.8527 39.8892 27.1017 40.6402C26.3507 41.3912 26.3507 42.6088 27.1017 43.3598L36.7171 52.9752C37.106 53.3641 37.6427 53.5679 38.1917 53.535C38.7407 53.5022 39.2493 53.2359 39.5891 52.8035L60.7429 25.8804Z" fill="#AC79FF"/>
</svg>
