<svg width="81" height="80" viewBox="0 0 81 80" fill="none" xmlns="http://www.w3.org/2000/svg">
<ellipse cx="40.5" cy="40" rx="40.5" ry="40" fill="#EBF8E3"/>
<path fill-rule="evenodd" clip-rule="evenodd" d="M38.0722 18.0191C39.1767 16.0883 41.6231 15.4268 43.5362 16.5415L50.4644 20.5784C52.3775 21.6932 53.033 24.1622 51.9285 26.093L37.1646 51.901C36.8542 52.4437 36.4227 52.906 35.9045 53.2514L27.4526 58.8833C28.1111 59.3158 28.8955 59.7611 29.7692 60.1286C32.3399 61.2096 35.5372 61.5851 38.7999 59.1154C42.2967 56.4686 43.1178 53.9378 43.6792 51.5581C43.7389 51.305 43.7965 51.0403 43.8559 50.7669C44.3444 48.5191 44.9607 45.6837 47.9708 43.8609C50.9103 42.0809 53.6839 41.7431 56.4336 42.3598C59.0428 42.945 61.5521 44.3797 64.0287 45.8794C64.9758 46.4529 65.283 47.6928 64.7147 48.6487C64.1464 49.6046 62.9179 49.9146 61.9707 49.341C59.4473 47.813 57.4566 46.7247 55.5659 46.3006C53.8156 45.9081 52.0893 46.0749 50.0288 47.3226C48.5595 48.2123 48.3089 49.2984 47.7564 51.6932C47.6984 51.945 47.6369 52.2112 47.5704 52.4931C46.8818 55.4119 45.703 58.9365 41.1999 62.345C36.4626 65.9307 31.6599 65.297 28.2307 63.8549C26.5351 63.1419 25.1402 62.2241 24.175 61.4934C23.6893 61.1258 23.3041 60.7993 23.0353 60.5596C22.9007 60.4396 22.7947 60.3409 22.7192 60.2691C22.6815 60.2331 22.6513 60.2038 22.629 60.182L22.6015 60.1547L22.5921 60.1454L22.5886 60.1418L22.5871 60.1403C22.5865 60.1398 22.586 60.1392 23.4145 59.3027C23.4145 59.3027 23.4145 59.3027 23.4144 59.3027L22.5858 60.139C21.9384 59.4857 21.8276 58.496 22.2533 57.7275C22.1484 57.3888 22.1006 57.0201 22.1239 56.6292L22.7796 45.6037L24.776 45.7246L22.7796 45.6037C22.8168 44.9781 22.9978 44.3698 23.3083 43.8271L38.0722 18.0191ZM48.4644 24.0745L41.5362 20.0376L39.5363 23.5337L46.4644 27.5706L48.4644 24.0745ZM44.4644 31.0667L37.5363 27.0298L26.7724 45.8456L25.0404 44.8363L26.7724 45.8456L26.2365 54.8562L33.7006 49.8825L44.4644 31.0667Z" fill="#AC79FF"/>
</svg>
