<svg width="91" height="100" viewBox="0 0 91 100" fill="none" xmlns="http://www.w3.org/2000/svg">
<path d="M79.0321 96.7742H46.774C45.8843 96.7742 45.1611 97.4973 45.1611 98.3871C45.1611 99.2769 45.8843 100 46.774 100H79.0321C79.9218 100 80.645 99.2769 80.645 98.3871C80.645 97.4973 79.9218 96.7742 79.0321 96.7742Z" fill="#C4A2FC"/>
<path d="M79.0321 90.3225H46.774C45.8843 90.3225 45.1611 91.0456 45.1611 91.9354C45.1611 92.8252 45.8843 93.5483 46.774 93.5483H79.0321C79.9218 93.5483 80.645 92.8252 80.645 91.9354C80.645 91.0456 79.9218 90.3225 79.0321 90.3225Z" fill="#C4A2FC"/>
<path d="M90.3225 46.7741C90.7365 31.6316 78.7957 19.0187 63.6532 18.6047C56.3817 18.4058 49.328 21.1047 44.0457 26.1047C38.7634 31.1074 35.6828 37.9999 35.4839 45.2741C34.5323 63.3386 48.3871 64.2257 48.3871 83.7418V83.8708H46.7742C45.8844 83.8708 45.1613 84.5939 45.1613 85.4837C45.1613 86.3735 45.8844 87.0966 46.7742 87.0966H79.0322C79.922 87.0966 80.6451 86.3735 80.6451 85.4837C80.6451 84.5939 79.922 83.8708 79.0322 83.8708H77.4193V83.2418C77.4193 65.5805 90.3225 63.4192 90.3225 46.7741ZM59.6774 83.8708H56.4516V72.5805C56.4516 71.6907 57.1747 70.9676 58.0645 70.9676C58.9543 70.9676 59.6774 71.6907 59.6774 72.5805V83.8708ZM69.3548 83.8708H66.129V72.5805C66.129 71.6907 66.8521 70.9676 67.7419 70.9676C68.6317 70.9676 69.3548 71.6907 69.3548 72.5805V83.8708ZM75.8064 53.4192C75.8091 53.9972 75.5 54.5321 75 54.8225L63.7097 61.2741C63.2097 61.5617 62.5941 61.5617 62.0968 61.2741L50.8064 54.8225C50.3064 54.5321 49.9973 53.9972 50 53.4192V40.3225C50.0027 39.7499 50.3118 39.223 50.8064 38.9354L62.0968 32.4031C62.5941 32.1155 63.2097 32.1155 63.7097 32.4031L75 38.9354C75.4946 39.223 75.8037 39.7499 75.8064 40.3225V53.4192Z" fill="#C4A2FC"/>
<path d="M46.7741 0H4.8387C2.16666 0 0 2.16666 0 4.83871V75.8064C0 78.4784 2.16666 80.6451 4.8387 80.6451H46.7741C49.4462 80.6451 51.6128 78.4784 51.6128 75.8064V4.83871C51.6128 2.16666 49.4462 0 46.7741 0ZM48.387 75.8064C48.387 76.6962 47.6639 77.4193 46.7741 77.4193H4.8387C3.94892 77.4193 3.2258 76.6962 3.2258 75.8064V16.129H48.387V75.8064ZM48.387 12.9032H3.2258V4.83871C3.2258 3.94892 3.94892 3.2258 4.8387 3.2258H46.7741C47.6639 3.2258 48.387 3.94892 48.387 4.83871V12.9032Z" fill="#151A6A"/>
<path d="M27.4194 8.06456C27.4194 8.95435 26.6963 9.67746 25.8065 9.67746C24.9167 9.67746 24.1936 8.95435 24.1936 8.06456C24.1936 7.17478 24.9167 6.45166 25.8065 6.45166C26.6963 6.45166 27.4194 7.17478 27.4194 8.06456Z" fill="#151A6A"/>
<path d="M27.4194 70.9676C27.4194 71.8574 26.6963 72.5805 25.8065 72.5805C24.9167 72.5805 24.1936 71.8574 24.1936 70.9676C24.1936 70.0779 24.9167 69.3547 25.8065 69.3547C26.6963 69.3547 27.4194 70.0779 27.4194 70.9676Z" fill="#151A6A"/>
<path d="M35.4839 70.9676C35.4839 71.8574 34.7607 72.5805 33.871 72.5805C32.9812 72.5805 32.2581 71.8574 32.2581 70.9676C32.2581 70.0779 32.9812 69.3547 33.871 69.3547C34.7607 69.3547 35.4839 70.0779 35.4839 70.9676Z" fill="#151A6A"/>
<path d="M19.3547 70.9676C19.3547 71.8574 18.6316 72.5805 17.7418 72.5805C16.852 72.5805 16.1289 71.8574 16.1289 70.9676C16.1289 70.0779 16.852 69.3547 17.7418 69.3547C18.6316 69.3547 19.3547 70.0779 19.3547 70.9676Z" fill="#151A6A"/>
<path d="M16.1291 45.9676C13.5189 45.9676 11.1667 47.5402 10.1694 49.9515C9.16943 52.3628 9.72319 55.137 11.5673 56.9811C13.4114 58.8278 16.1855 59.3789 18.5968 58.3789C21.0081 57.3816 22.5807 55.0295 22.5807 52.4192V49.1934H29.0323V57.258C29.0323 58.1477 29.7554 58.8709 30.6452 58.8709H40.3226C41.2124 58.8709 41.9355 58.1477 41.9355 57.258V47.5805C41.9355 46.6908 41.2124 45.9676 40.3226 45.9676H32.2581V39.516H35.4839C38.0941 39.516 40.4463 37.9435 41.4436 35.5322C42.4409 33.1209 41.8898 30.3467 40.0457 28.5026C38.2017 26.6558 35.4275 26.1048 33.0162 27.1048C30.6049 28.1021 29.0323 30.4542 29.0323 33.0644V36.2902H22.5807V28.2257C22.5807 27.3359 21.8576 26.6128 20.9678 26.6128H11.2904C10.4006 26.6128 9.67749 27.3359 9.67749 28.2257V37.9031C9.67749 38.7929 10.4006 39.516 11.2904 39.516H19.3549V45.9676H16.1291ZM19.3549 52.4192C19.3549 53.723 18.57 54.9004 17.363 55.4004C16.156 55.9004 14.7689 55.6235 13.8468 54.7015C12.9248 53.7795 12.6479 52.3924 13.1479 51.1854C13.6479 49.9784 14.8226 49.1934 16.1291 49.1934H19.3549V52.4192ZM32.2581 33.0644C32.2581 31.758 33.0431 30.5832 34.25 30.0832C35.457 29.5832 36.8441 29.8601 37.7662 30.7822C38.6882 31.7042 38.9651 33.0913 38.4651 34.2983C37.9651 35.5026 36.7904 36.2902 35.4839 36.2902H32.2581V33.0644ZM32.2581 49.1934H38.7097V55.6451H32.2581V49.1934ZM22.5807 39.516H29.0323V45.9676H22.5807V39.516ZM12.9033 36.2902V29.8386H19.3549V36.2902H12.9033Z" fill="#151A6A"/>
</svg>
