<svg width="102" height="100" viewBox="0 0 102 100" fill="none" xmlns="http://www.w3.org/2000/svg">
<path d="M100.008 57.3811H91.6472C86.8955 57.3866 82.6384 60.3212 80.9415 64.7587C78.5261 71.1525 72.4163 75.3933 65.5798 75.4151H62.3009V72.1362C62.2982 71.5078 61.9375 70.9394 61.3719 70.6662C60.8062 70.3929 60.1368 70.4694 59.645 70.8574L43.2504 83.9731C42.8624 84.2846 42.6356 84.7546 42.6356 85.2519C42.6356 85.7492 42.8597 86.2192 43.2504 86.5307L59.645 99.6463C60.1368 100.034 60.8062 100.111 61.3719 99.8376C61.9375 99.5643 62.2982 98.996 62.3009 98.3675V95.0886H65.5798C85.4992 95.0886 101.648 78.94 101.648 59.0206C101.648 58.1161 100.913 57.3811 100.008 57.3811Z" fill="#C4A2FC"/>
<path d="M50.2186 53.2825C52.6122 46.8722 58.7383 42.6233 65.5803 42.626H68.8592V45.9049C68.8565 46.5388 69.2199 47.1154 69.791 47.3886C70.362 47.6619 71.0397 47.5826 71.5315 47.1837L87.9261 34.068C88.3141 33.7565 88.5382 33.2865 88.5382 32.7892C88.5382 32.2919 88.3141 31.822 87.9261 31.5105L71.5315 18.3948C71.0397 17.9959 70.362 17.9166 69.791 18.1899C69.2199 18.4631 68.8565 19.0424 68.8592 19.6736V22.9525H65.5803C45.6609 22.9525 29.5122 39.1012 29.5122 59.0206C29.5122 59.925 30.2473 60.66 31.1517 60.66H39.5129C44.2646 60.6546 48.5217 57.7199 50.2186 53.2825Z" fill="#C4A2FC"/>
<path d="M72.138 59.0207C72.138 62.6412 69.2006 65.5785 65.5801 65.5785C61.9597 65.5785 59.0223 62.6412 59.0223 59.0207C59.0223 55.4003 61.9597 52.4629 65.5801 52.4629C69.2006 52.4629 72.138 55.4003 72.138 59.0207Z" fill="#C4A2FC"/>
<path d="M39.3488 0C23.4352 0 9.08718 9.58809 2.99659 24.2886C-3.09399 38.9918 0.272361 55.9164 11.5245 67.1686C22.7766 78.4207 39.7013 81.7871 54.4045 75.6965C69.1077 69.6086 78.6958 55.2606 78.6958 39.347C78.6958 17.616 61.0798 0 39.3488 0ZM39.3488 75.415C24.7604 75.415 11.6092 66.6275 6.02686 53.1512C0.444504 39.6721 3.52942 24.1574 13.8443 13.8425C24.1593 3.52757 39.674 0.442653 53.1531 6.025C66.6294 11.6074 75.4169 24.7585 75.4169 39.347C75.4169 59.2664 59.2682 75.415 39.3488 75.415Z" fill="#151A6A"/>
<path d="M19.6757 19.6409C30.5507 8.80133 48.1476 8.80133 59.0227 19.6409C59.3314 19.9469 59.7495 20.1191 60.1839 20.1191C60.6184 20.1163 61.0365 19.9442 61.3425 19.6354C61.6513 19.3266 61.8207 18.9086 61.8207 18.4741C61.8179 18.0397 61.6458 17.6216 61.337 17.3156C49.1723 5.16173 29.4632 5.16173 17.3012 17.3156C16.6591 17.9714 16.67 19.0261 17.3258 19.6682C17.9788 20.3076 19.0336 20.2967 19.6757 19.6409Z" fill="#151A6A"/>
<path d="M59.0222 59.0534C48.1472 69.893 30.5503 69.893 19.6753 59.0534C19.0359 58.4168 18.003 58.4168 17.3636 59.0534C16.7297 59.6928 16.7297 60.7257 17.3636 61.3651C29.5284 73.5189 49.2374 73.5189 61.3995 61.3651C62.0361 60.7257 62.0361 59.6928 61.3995 59.0534C61.0907 58.7256 60.6617 58.5425 60.2109 58.5425C59.7627 58.5425 59.331 58.7283 59.0222 59.0534Z" fill="#151A6A"/>
<path d="M46.1527 50.8233C47.0599 50.8233 47.7922 50.0882 47.7922 49.1838V29.5103C47.7922 28.6059 47.0599 27.8708 46.1527 27.8708C45.2483 27.8708 44.5133 28.6059 44.5133 29.5103V37.3633H34.1847V29.5103C34.1847 28.6059 33.4497 27.8708 32.5452 27.8708C31.6381 27.8708 30.9058 28.6059 30.9058 29.5103V49.1838C30.9058 50.0882 31.6381 50.8233 32.5452 50.8233C33.4497 50.8233 34.1847 50.0882 34.1847 49.1838V40.6422H44.5133V49.1838C44.5133 50.0882 45.2483 50.8233 46.1527 50.8233Z" fill="#151A6A"/>
<path d="M27.5285 35.068C27.5148 33.1444 26.7388 31.3082 25.3726 29.9584C24.0064 28.6085 22.1566 27.8571 20.2357 27.8708H14.7571C13.8527 27.8708 13.1177 28.6058 13.1177 29.5102V49.1837C13.1177 50.0882 13.8527 50.8232 14.7571 50.8232C15.6616 50.8232 16.3966 50.0882 16.3966 49.1837V42.2652H20.2329C22.1566 42.2816 24.0064 41.5329 25.3754 40.1831C26.7443 38.8306 27.5203 36.9916 27.5285 35.068ZM16.413 35.068C16.413 34.3139 16.413 32.4941 16.413 31.1497H20.2493C21.3286 31.0787 22.3915 31.4612 23.1812 32.2017C23.9709 32.9422 24.419 33.9778 24.419 35.0598C24.419 36.1419 23.9709 37.1774 23.1812 37.9179C22.3915 38.6584 21.3286 39.0382 20.2493 38.9699H16.3966C16.3966 37.6911 16.3966 35.9533 16.3966 35.068H16.413Z" fill="#151A6A"/>
<path d="M58.2847 27.8708H52.8089C51.9017 27.8708 51.1694 28.6059 51.1694 29.5103V49.1838C51.1694 50.0882 51.9017 50.8233 52.8089 50.8233C53.7133 50.8233 54.4483 50.0882 54.4483 49.1838V42.2653H58.2847C60.252 42.3582 62.1702 41.645 63.5938 40.2843C65.0201 38.9263 65.8262 37.0436 65.8262 35.0763C65.8262 33.1089 65.0201 31.2263 63.5938 29.8655C62.1702 28.5075 60.252 27.7916 58.2847 27.8845V27.8708ZM58.2847 38.97H54.4647C54.4647 37.6748 54.4647 35.937 54.4647 35.0517V31.1498H58.3011C59.3831 31.0787 60.4433 31.4613 61.2357 32.2017C62.0254 32.9422 62.4762 33.9778 62.4762 35.0599C62.4762 36.1419 62.0254 37.1775 61.2357 37.918C60.446 38.6585 59.3831 39.0383 58.3011 38.97H58.2847Z" fill="#151A6A"/>
</svg>
