<?xml version="1.0" encoding="utf-8"?>
<?xml-stylesheet href="../css/animation.css" type="text/css"?>

<svg width="532" viewBox="0 0 532 616" fill="none" xmlns="http://www.w3.org/2000/svg">
<path d="M92.9025 468.056C92.7169 467.454 92.5611 466.848 92.3988 466.247C93.2107 466.164 93.7011 464.668 92.7964 464.124C92.4352 463.906 92.0707 463.675 91.7062 463.448C88.3955 448.465 91.1329 432.749 99.1328 420.494C105.953 410.05 116.279 400.598 117.148 386.106C117.96 372.5 110.281 360.365 108.319 347.299C107.119 339.332 107.139 330.457 110.689 323.364C113.36 318.03 119.471 314.642 120.727 308.245C123.073 296.287 109.671 298.999 105.002 301.745C95.9944 307.037 89.1047 317.589 87.0865 329.761C85.0616 341.978 87.9017 353.255 93.4493 363.267C95.9779 367.83 97.2769 371.836 95.0665 377.162C93.5089 380.912 91.166 384.288 88.8594 387.359C84.3193 393.418 78.9175 398.311 72.9556 401.971C67.6732 405.215 61.9466 407.853 59.6964 415.251C58.1123 420.457 58.5962 426.269 60.2731 431.327C65.2639 446.396 78.6457 457.813 90.1552 465.055C90.4534 466.284 90.7584 467.512 91.1295 468.716C91.557 470.088 93.33 469.441 92.9025 468.056Z" fill="#343751"/>
<path d="M97.0115 373.019C96.3421 360.431 92.1334 347.522 83.0498 340.935C76.7267 336.343 70.798 333.747 67.4509 324.942C64.6208 317.498 64.0043 308.97 63.5039 300.871C62.755 288.732 61.8602 275.649 55.3615 265.839C49.1809 256.503 38.944 255.485 31.3351 262.896C20.8928 273.065 20.9956 290.842 23.2988 305.603C25.7511 321.327 30.6259 336.479 37.4593 350.048C41.2903 357.653 45.741 364.796 50.7385 371.268C56.137 378.254 62.861 383.955 67.4144 391.897C76.8957 408.43 72.74 430.049 68.4716 448.156C68.0971 447.13 66.6257 447.719 66.7715 449.046C67.0465 451.585 67.3249 454.129 67.6033 456.672C67.6729 457.323 68.2893 457.583 68.7301 457.492C81.7043 454.871 85.4722 437.959 88.3388 424.414C91.8881 407.639 97.9527 390.714 97.0115 373.019Z" fill="#5E8E3E"/>
<path d="M64.0475 407.305C58.6788 398.521 51.8024 392.512 44.495 386.452C35.8919 379.322 30.2349 370.534 24.3162 360.176C20.8928 354.191 15.7197 344.171 8.62119 346.792C2.29812 349.129 -0.0681067 359.257 0.00148686 366.507C0.203639 387.689 15.4248 401.369 29.1745 409.774C33.9532 412.696 38.8414 415.342 43.5903 418.343C48.9821 421.752 55.1296 425.383 58.0658 432.324C60.1801 437.324 61.3001 442.777 63.7823 447.579C66.4368 452.711 69.9165 456.94 73.9098 460.435C73.87 460.843 73.8469 461.243 73.8038 461.647C73.6448 463.11 75.4707 463.448 75.6298 461.981C77.7375 442.674 73.542 422.832 64.0475 407.305Z" fill="#5E8E3E"/>
<path d="M99.9807 587.342H54.2943L41.1643 445.996H113.114L99.9807 587.342Z" fill="#BED0E2"/>
<g class="boyLeftHand">
<path d="M528.01 64.8195C517.576 68.5923 508.745 72.4792 499.917 78.168C501.939 76.1294 504.929 71.7729 507.205 69.5862C510.068 66.8285 505.509 65.0902 501.042 68.7614C494.347 74.2599 482.631 87.0544 477.991 93.2465C469.13 101.697 465.345 103.059 453.959 110.051C449.505 112.783 467.489 122.376 471.271 122.896C475.792 123.513 476.071 120.24 478.791 117.059C484.374 110.541 492.215 106.278 501.207 102.704C509.595 99.3667 514.268 94.7861 520.752 90.5692C526.242 87.9426 524.58 86.2677 523.231 84.4024C523.066 84.174 522.808 84.0429 522.588 83.8653C523.273 82.9686 523.586 82.017 523.227 81.1161C522.66 79.6907 521.057 79.1112 519.107 79.0267C519.716 77.136 518.79 75.4146 515.859 75.0677C517.876 73.9892 527.401 69.7089 529.444 68.9729C533.682 67.4376 532.261 63.2799 528.01 64.8195Z" fill="#4C5072"/>
<path d="M505.618 86.8472C509.873 86.8472 517.753 80.9131 519.513 79.5427C519.8 79.3185 519.851 78.9083 519.627 78.6164C519.398 78.3373 518.984 78.2822 518.701 78.5022C513.925 82.2115 506.435 86.7753 504.654 85.2738C504.409 85.0666 504.316 84.8551 504.35 84.5717C504.62 82.2835 511.734 77.8889 516.159 75.6557C516.484 75.495 516.611 75.0974 516.45 74.7717C516.285 74.4461 515.884 74.3234 515.566 74.4841C514.331 75.1058 503.487 80.6847 503.047 84.4236C502.962 85.1469 503.225 85.7898 503.808 86.2847C504.269 86.678 504.891 86.8472 505.618 86.8472Z" fill="#2A2B3C"/>
<path d="M508.169 91.4871C509.197 91.4871 510.318 91.246 511.354 90.7469C515.643 88.6828 522.846 84.4744 522.918 84.4321C523.231 84.246 523.337 83.8442 523.155 83.527C522.973 83.214 522.571 83.104 522.254 83.2901C522.182 83.3324 515.021 87.5155 510.783 89.5541C508.592 90.6158 506.312 90.1251 505.911 89.2961C505.585 88.6236 506.549 87.3125 509.438 85.8998C509.764 85.7433 509.899 85.3457 509.743 85.02C509.582 84.6901 509.189 84.559 508.863 84.7197C504.193 86.9995 504.265 88.9282 504.722 89.8713C505.23 90.9245 506.592 91.4871 508.169 91.4871Z" fill="#2A2B3C"/>
<path d="M514.057 93.6272C517.182 93.6272 523.015 89.8586 524.284 89.0127C524.588 88.8097 524.669 88.3995 524.466 88.0992C524.258 87.7904 523.857 87.7143 523.552 87.913C520.219 90.1293 514.924 92.9462 513.541 92.223C513.084 91.9861 512.834 91.7154 512.792 91.4194C512.712 90.861 513.321 90.159 513.486 90.0025C513.752 89.7529 513.761 89.3384 513.511 89.0677C513.257 88.8055 512.843 88.797 512.581 89.0423C512.449 89.165 511.303 90.2901 511.485 91.597C511.557 92.1088 511.866 92.8363 512.931 93.3904C513.244 93.5553 513.625 93.6272 514.057 93.6272Z" fill="#2A2B3C"/>
<path d="M498.171 96.1395C498.366 96.1395 498.56 96.0507 498.691 95.8815C501.584 92.1848 496.691 86.5721 495.43 85.2314C496.035 84.0513 499.567 79.606 502.891 75.7106C503.128 75.4357 503.094 75.0169 502.815 74.7801C502.54 74.5348 502.121 74.5728 501.885 74.852C498.962 78.2822 494.056 84.2036 494.026 85.3963L494.022 85.6797L494.221 85.8785C494.28 85.9419 500.167 91.8507 497.655 95.0694C497.431 95.3528 497.482 95.7673 497.769 95.9957C497.888 96.0929 498.031 96.1395 498.171 96.1395Z" fill="#2A2B3C"/>
<path d="M312.559 60.277C323.142 50.0583 396.584 94.8496 418.236 128.153C439.887 161.457 414.167 201.875 403.436 197.189C392.706 192.507 290.815 81.2769 312.559 60.277Z" fill="#F2994A"/>
<path d="M468.859 86.1872C438.406 103.998 414.221 135.821 398.136 150.951C382.051 166.071 399.037 197.654 406.401 197.205C413.769 196.761 474.518 170.902 497.955 142.563C497.955 142.563 474.971 82.6132 468.859 86.1872Z" fill="#F2994A"/>
<path d="M404.583 173.482C419.378 178.198 471.41 155.007 490.625 146.04C493.345 144.809 496.436 143.316 497.951 142.563C491.606 150.883 474.578 165.073 449.437 179.983C418.02 198.605 406.917 199.654 403.432 197.193C399.947 194.731 369.481 170.445 333.855 118.751C333.86 118.751 386.336 167.666 404.583 173.482Z" fill="#F2994A"/>
</g>
<path d="M344.04 68.3384L352.639 145.456C352.639 145.456 361.779 160.345 374.235 169.607C358.717 122.968 361.712 82.7867 344.04 68.3384Z" fill="#2A2B3C"/>
<path d="M374.405 212.407C375.572 212.614 371.808 338.698 373.707 392.849C375.238 436.203 380.884 525.189 401.901 552.182C402.794 553.328 402.958 555.422 401.267 555.764C379.653 560.447 359.614 562.278 342.065 562.401C341.934 562.418 341.769 562.388 341.634 562.409C298.12 562.667 269.896 552.74 270.479 551.856C298.614 508.338 282.525 388.425 272.844 318.51C269.612 295.476 267.392 274.983 268.102 259.516C270.606 205.284 321.843 222.794 374.405 212.407Z" fill="#3F4261"/>
<path d="M272.852 318.51C282.533 388.425 289.567 506.908 270.488 551.856C270.073 552.829 298.128 562.667 341.642 562.409C341.9 562.413 342.073 562.401 342.073 562.401C326.881 538.021 306.435 462.959 304.984 434.701C303.533 406.443 318.058 250.815 318.058 250.815L273.702 280.647L272.852 318.51Z" fill="#343751"/>
<path d="M402.54 554.458C404.164 550.621 379.091 547.394 350.338 546.053C348.761 545.986 347.183 545.927 345.563 545.85C335.493 545.491 325.083 545.326 315.351 545.453C313.579 545.529 311.769 545.55 310.047 545.588C290.105 546.147 265.73 549.974 270.496 551.869C325.329 573.74 398.107 565.184 402.54 554.458Z" fill="#2A2B3B"/>
<path d="M281.269 408.829C250.355 408.008 222.744 399.841 194.85 387.414C203.529 354.724 206.346 317.33 211.709 291.335C216.374 268.546 221.137 248.494 226.982 234.155C247.483 183.882 271.786 215.004 324.791 222.799C330.197 250.033 282.216 405.728 281.269 408.829Z" fill="#3F4261"/>
<path d="M208.871 370.212C227.723 394.165 254.525 393.534 281.269 408.829C255.828 446.269 193.336 518.451 188.184 548.968C187.943 550.406 186.514 551.937 185.118 550.922C167.053 538.157 152.165 524.622 140.217 511.773C140.115 511.688 140.022 511.544 139.921 511.464C110.322 479.568 98.5637 452.055 99.6126 451.886C130.679 446.607 171.516 410.178 208.871 370.212Z" fill="#3F4261"/>
<path d="M99.6129 451.882C125.43 442.733 193.091 388.823 194.851 380.706C197.426 368.842 204.93 324.317 210.36 294.397C216.971 257.981 229.394 222.799 229.394 222.799L285.787 229.71C285.787 229.71 230.096 377.221 209.278 398.128C189.31 418.185 147.919 484.098 140.217 511.768C140.217 511.768 140.09 511.65 139.921 511.46C110.322 479.564 98.6105 452.237 99.6129 451.882Z" fill="#343751"/>
<path d="M186.937 550.972C190.862 549.577 176.295 528.915 157.854 506.816C156.835 505.61 155.815 504.405 154.771 503.161C148.232 495.493 141.316 487.715 134.646 480.63C133.394 479.37 132.155 478.054 130.958 476.811C117.068 462.485 97.7769 447.111 99.5956 451.903C120.545 507.095 176.037 554.957 186.937 550.972Z" fill="#2A2B3B"/>
<path d="M214.611 232.07C214.611 232.07 253.054 70.3178 291.221 57.9927C322.402 47.9221 349.564 59.0502 352.276 91.3135C354.779 121.102 366.715 165.475 371.254 180.608C375.792 195.746 389.64 223.742 389.64 223.742C389.64 223.742 288.011 253.252 214.611 232.07Z" fill="#F2994A"/>
<path d="M337.772 38.9047C337.772 38.9047 332.663 54.2285 332.096 58.014C331.923 59.1687 329.554 62.7596 327.55 64.1173C320.482 59.0503 314.632 60.243 312.408 58.014C314.125 53.2811 317.906 47.2285 319.611 38.9047C321.315 30.5767 337.772 38.9047 337.772 38.9047Z" fill="#4C5072"/>
<path d="M313.557 24.9005C313.557 24.9005 320.557 47.034 334.938 45.524C349.314 44.0098 336.072 13.929 333.8 13.3622C331.529 12.7954 317.153 11.6577 313.557 24.9005Z" fill="#4C5072"/>
<path d="M328.255 6.32424C332.295 5.804 336.072 5.85477 339.096 8.24025C342.424 10.8626 343.774 17.0632 342.966 22.0118C342.297 22.0837 341.604 22.1429 340.919 22.2106C340.356 20.5484 340.09 18.7973 339.815 17.0632C339.392 14.3774 339.02 20.8952 339.4 22.2867C337.59 22.3248 332.988 22.4432 331.267 22.1344C328.31 21.61 325.612 19.7701 322.786 18.5181C322.74 20.1296 322.596 21.7453 322.296 23.3822C321.771 26.271 321.348 31.0631 318.929 33.1398C314.065 37.3102 309.442 30.1537 308.605 26.0384C306.173 14.0898 317.36 4.34479 328.255 6.32424Z" fill="#2A2B3C"/>
<path d="M321.301 36.7267L321.339 35.6693C316.788 35.5001 313.278 33.9563 310.905 31.0717C306.045 25.1672 307.487 15.5533 307.504 15.4603L306.46 15.2953C306.396 15.7098 304.929 25.4802 310.089 31.7484C312.66 34.8699 316.433 36.5448 321.301 36.7267Z" fill="#2A2B3C"/>
<path d="M321.501 28.0219C321.501 28.0219 318.756 24.1434 314.878 25.2811C310.999 26.4189 311.38 35.9693 318.189 35.8762C325.003 35.7789 321.501 28.0219 321.501 28.0219Z" fill="#4C5072"/>
<path d="M319.78 34.0364C319.044 33.4189 317.978 34.4763 318.722 35.0938C319.877 36.0581 321.518 38.9766 319.475 39.9155C317.644 40.753 314.539 38.5578 316.134 36.5953C316.734 35.8509 315.681 34.7851 315.076 35.5337C312.725 38.4352 315.855 41.9796 319.128 41.5439C323.176 41.0025 322.097 35.9609 319.78 34.0364Z" fill="#FFD357"/>
<path d="M294.224 68.3384C294.224 68.3384 317.77 118.895 320.866 166.867C323.958 214.843 368.073 229.037 368.073 229.037C368.073 229.037 287.08 251.801 214.611 232.07C214.611 232.07 250.681 97.7721 294.224 68.3384Z" fill="#F2994A"/>
<path d="M317.584 277.783L281.269 408.829L282.973 452.157L317.584 277.783Z" fill="#2A2B3B"/>
<path d="M309.941 49.5548C309.941 48.066 311.781 46.7718 313.122 47.7277C320.676 53.1373 329.207 55.5524 338.482 54.8672C340.018 54.7572 341.21 56.7748 340.31 58.0521C337.674 61.7868 335.035 65.5215 332.4 69.252C330.84 71.4556 327.172 69.3451 328.746 67.1161C328.949 66.8327 329.152 66.5451 329.351 66.2575C329.012 66.1983 328.644 66.1094 328.196 65.9868C324.068 64.8702 320.278 62.8992 316.023 61.9687C314.192 61.5626 312.111 61.5246 310.952 59.7904C309.29 57.3077 309.941 52.2618 309.941 49.5548Z" fill="#F2994A"/>
<path d="M249.243 64.5572C253.418 61.8122 253.65 58.0986 253.946 53.3953C254.018 52.2449 254.094 51.014 254.234 49.7156C254.585 46.4419 257.322 45.2829 259.969 44.1621C262.312 43.1724 264.525 42.2334 264.457 39.8522C264.322 35.1573 267.434 29.2274 272.387 24.7525C275.585 21.8595 275.733 21.3773 275.97 19.2752C276.13 17.8583 276.372 15.7097 277.996 11.1417C281.68 0.758078 292.448 2.64025 292.554 2.67409L292.749 1.6336C292.63 1.61668 280.982 -0.434665 276.998 10.7864C275.335 15.4686 275.073 17.778 274.917 19.1568C274.709 20.9755 274.68 21.2504 271.672 23.9658C266.5 28.6395 263.247 34.8909 263.391 39.886C263.437 41.4594 261.961 42.1657 259.551 43.1851C256.894 44.3102 253.591 45.7059 253.172 49.5971C253.033 50.921 252.952 52.156 252.88 53.3276C252.593 57.904 252.381 61.2116 248.651 63.669L249.243 64.5572Z" fill="#2A2B3C"/>
<g class="girlHandT">
<path d="M299.571 68.3384C299.571 68.3384 276.063 166.431 264.783 181.586C253.502 196.74 327.863 206.121 327.863 206.121L288.752 176.299C288.752 176.299 309.688 109.116 299.571 68.3384Z" fill="#2A2B3C"/>
<path d="M376.671 250.714L227.367 304.434L223.416 304.02L194.617 207.297L346.654 152.516L353.125 154.258L376.671 250.714Z" fill="#BED0E2"/>
<path d="M380.394 249.373L227.367 304.434L199.921 211.189L353.125 154.258L380.394 249.373Z" fill="#EDF1F4"/>
<path d="M299.427 239.717C292.36 239.717 286.632 233.989 286.632 226.923C286.632 219.857 292.36 214.128 299.427 214.128C306.493 214.128 312.221 219.857 312.221 226.923C312.221 233.989 306.493 239.717 299.427 239.717Z" fill="#BED0E2"/>
<path d="M313.025 285.177C312.036 286.501 309.565 286.53 309.274 284.466C309.274 284.441 309.265 284.415 309.261 284.39C308.466 285.989 305.679 286.188 305.332 283.988C304.608 279.441 303.949 274.573 300.679 270.932C297.959 267.899 293.527 266.507 290.038 264.68C287.051 263.115 284.522 261.491 281.929 259.372C272.548 251.716 263.636 243.219 255.393 234.363C254.522 233.424 254.733 231.558 256.015 231.055C262.143 228.653 268.272 226.246 274.401 223.844C275.399 223.454 276.287 223.822 276.858 224.461C277.112 224.634 277.345 224.863 277.531 225.18C284.328 236.955 295.198 247.711 306.402 255.312C314.387 260.721 319.983 267.015 323.578 276.049C324.576 278.566 320.803 280.478 319.793 277.944C317.805 272.941 315.06 269.248 311.904 266.055C311.849 266.169 311.824 266.292 311.756 266.402C314.802 271.925 316.515 277.631 317.056 283.946C317.272 286.492 313.617 287.385 313.025 285.177Z" fill="#4C5072"/>
<path d="M314.891 274.011C314.916 274.011 314.946 274.011 314.975 274.002C315.263 273.96 315.462 273.689 315.415 273.397C315.123 271.536 312.336 266.376 312.222 266.156C312.082 265.898 311.765 265.809 311.507 265.941C311.249 266.08 311.156 266.402 311.295 266.66C312.078 268.106 314.155 272.162 314.375 273.562C314.413 273.825 314.637 274.011 314.891 274.011Z" fill="#2A2B3C"/>
<path d="M313.026 285.706C313.034 285.706 313.047 285.706 313.059 285.706C313.351 285.684 313.575 285.435 313.554 285.143C313.55 285.046 312.877 275.368 308.161 267.083C308.018 266.82 307.696 266.727 307.438 266.884C307.184 267.028 307.096 267.349 307.244 267.603C311.841 275.681 312.497 285.113 312.501 285.206C312.514 285.49 312.746 285.706 313.026 285.706Z" fill="#2A2B3C"/>
<path d="M309.256 284.923C309.278 284.923 309.299 284.923 309.32 284.919C309.608 284.885 309.815 284.623 309.781 284.331C309.73 283.916 308.516 274.193 304.718 269.21C304.541 268.973 304.206 268.944 303.978 269.113C303.745 269.29 303.703 269.62 303.876 269.857C307.501 274.607 308.719 284.365 308.732 284.458C308.766 284.724 308.994 284.923 309.256 284.923Z" fill="#2A2B3C"/>
<path d="M294.334 57.1216C307.975 62.6286 296.952 147.944 275.339 181.273C253.73 214.606 206.346 207.56 206.257 195.852C206.168 184.149 266.301 45.8075 294.334 57.1216Z" fill="#F2994A"/>
<path d="M323.379 247.034C305.598 216.568 273.796 192.35 258.688 176.252C243.579 160.146 211.984 177.102 212.424 184.466C212.864 191.834 238.665 252.609 266.977 276.074C266.977 276.074 326.953 253.15 323.379 247.034Z" fill="#F2994A"/>
<path d="M249.59 100.373C249.59 100.373 226.264 168.22 228.378 187.253C230.493 206.287 249.323 252.029 266.978 276.075C237.176 254.956 205.429 200.039 206.258 195.852C207.087 191.669 216.874 153.954 249.59 100.373Z" fill="#F2994A"/>
</g>
<path d="M255.73 61.1947C256.043 60.4418 256.289 59.6424 256.365 58.6992C256.001 55.3663 256.001 51.9742 258.036 49.0938C258.966 47.7742 260.205 47.1736 261.305 46.1458C264.342 43.2993 268.25 44.1198 267.43 36.7138C267.51 34.4383 267.772 32.8395 269.815 30.6993C274.303 26.0172 278.245 25.6873 278.887 17.9175C279.052 15.9043 278.837 13.7514 279.272 11.7466C280.249 7.21669 282.377 4.08257 286.611 2.0566C296.026 -2.45637 308.778 0.821556 315.448 8.34599C315.676 8.604 315.824 8.87467 315.913 9.14959C316.459 10.0674 316.434 11.3659 315.296 12.1188C311.21 14.8215 305.982 17.7103 302.653 21.2801C297.997 26.271 298.94 31.8033 300.598 37.6951C301.884 42.263 302.019 46.4546 299.291 50.5277C298.234 52.1011 296.656 52.9343 295.531 54.3893C291.001 60.2515 292.646 61.7868 294.896 67.8182C296.216 71.3499 296.99 75.3976 295.565 79.0478C294.926 80.6804 293.97 81.8689 292.824 82.7698C291.775 84.0936 290.354 85.2356 288.345 86.0604C280.038 89.4906 267.345 89.5541 258.759 87.5323C252.77 86.1196 245.914 82.6175 245.964 75.5288C246.011 69.785 251.598 65.6484 255.73 61.1947Z" fill="#2A2B3C"/>
<path d="M318.908 604.105C317.094 599.181 316.451 595.193 317.588 587.503C317.567 587.419 317.597 587.372 317.597 587.372C318.502 581.4 319.784 551.264 320.439 545.415C330.053 545.157 346.62 545.812 352.69 546.168C352.533 554.229 351.611 582.589 353.616 586.738C353.925 587.406 354.318 588.062 354.788 588.688C360.929 597.13 377.361 600.937 384.691 606.148C386.717 607.476 388.032 608.947 388.328 610.597C389.948 618.976 323.358 615.909 318.908 604.105Z" fill="#F2994A"/>
<path d="M387.965 609.662C388.155 609.975 388.218 610.242 388.278 610.589C390.198 619.538 322.11 616.683 317.846 605.276L317.808 605.23C317.466 604.642 317.216 603.978 317.013 603.276C315.241 597.384 317.288 588.7 317.601 587.478C317.563 587.432 317.605 587.393 317.605 587.393C335.932 595.772 354.775 588.658 354.775 588.658C360.168 596.077 373.436 599.943 381.561 604.227C384.797 605.682 387.144 607.492 387.965 609.662Z" fill="#BB6BD9"/>
<path d="M387.965 609.662C388.155 609.975 388.218 610.242 388.278 610.588C390.198 619.538 322.11 616.683 317.846 605.276L317.808 605.23C317.466 604.642 317.216 603.978 317.013 603.276C320.794 605.462 328.577 609.159 340.145 610.576C355.118 612.424 370.86 613.697 387.965 609.662Z" fill="#2A2B3B"/>
<path d="M92.0972 521.251C94.5673 516.624 97.1262 513.494 103.623 509.231C103.669 509.159 103.729 509.146 103.729 509.146C108.791 505.855 132.151 486.771 136.956 483.375C143.542 490.384 154.069 503.199 157.838 507.966C151.709 513.206 129.91 531.372 128.15 535.627C127.854 536.304 127.626 537.027 127.473 537.801C125.249 547.999 133.327 562.807 134.313 571.744C134.668 574.142 134.44 576.105 133.408 577.42C128.214 584.204 86.2392 532.421 92.0972 521.251Z" fill="#F2994A"/>
<path d="M133.856 576.532C133.746 576.883 133.594 577.107 133.374 577.382C127.965 584.767 84.827 532.007 90.5158 521.238L90.5242 521.175C90.7357 520.536 91.0656 519.906 91.4547 519.288C94.6777 514.048 102.528 509.806 103.644 509.222C103.653 509.163 103.712 509.171 103.712 509.171C109.634 528.433 127.478 537.776 127.478 537.776C125.524 546.734 131.454 559.216 133.658 568.136C134.723 571.515 134.931 574.48 133.856 576.532Z" fill="#BB6BD9"/>
<path d="M133.856 576.532C133.746 576.883 133.594 577.107 133.374 577.382C127.964 584.767 84.8269 532.007 90.5157 521.238L90.5241 521.175C90.7356 520.536 91.0655 519.906 91.4546 519.288C92.3344 523.564 94.7495 531.838 101.382 541.418C109.951 553.836 119.471 566.436 133.856 576.532Z" fill="#2A2B3B"/>
</svg>
