<svg width="40" height="41" viewBox="0 0 40 41" fill="none" xmlns="http://www.w3.org/2000/svg">
<path d="M9.82639 36.2031C9.82639 35.5327 10.0499 34.8064 9.77052 34.3036C9.49117 33.8566 8.70901 33.689 8.15032 33.4097C5.18926 31.8453 2.89863 29.6106 1.72538 26.4819C1.22256 25.2528 1.05496 23.8561 0.83148 22.5152C0.608004 21.1743 0.552135 19.8335 0.496266 18.4926C0.384528 15.5874 0.719742 12.6823 1.3343 9.83294C1.66951 8.21274 2.50755 6.81602 3.51319 5.5869C5.07752 3.63148 6.97707 2.01128 9.37944 1.22912C10.7762 0.782166 12.2288 0.55869 13.6813 0.391083C15.6368 0.167607 17.648 0 19.6035 0C21.5589 0 23.5143 0.167607 25.4697 0.335214C26.7547 0.446952 28.0397 0.670428 29.3247 0.949773C31.5594 1.45259 33.4031 2.73758 35.0233 4.30191C36.5876 5.81038 37.8726 7.59818 38.3196 9.77707C38.99 12.9616 39.3811 16.1461 39.1017 19.3865C38.9341 21.342 38.7107 23.2415 38.3754 25.1969C37.9844 27.4317 36.7552 29.1636 35.1909 30.7279C33.5707 32.404 31.727 33.7449 29.3805 34.2477C27.5927 34.6388 25.7491 34.8064 23.9612 35.0299C23.0115 35.1416 22.0058 35.1975 21.0002 35.1975C19.8828 35.1975 18.7096 35.1416 17.5922 35.1416C17.3128 35.1416 16.9217 35.3092 16.6983 35.5327C15.4133 36.8177 14.24 38.1026 13.0109 39.3876C12.117 40.2815 10.8879 40.3374 10.2175 39.4435C9.93813 39.0524 9.82639 38.4937 9.77052 38.0468C9.77052 37.3764 9.82639 36.8177 9.82639 36.2031ZM11.3907 34.4712C11.3907 35.0299 11.3907 35.5885 11.3907 36.1472C11.3907 36.7059 11.3907 37.2646 11.3907 37.8233C11.3907 37.9909 11.5025 38.2144 11.6142 38.2703C11.7259 38.3261 11.9494 38.1585 12.0611 38.0468C12.1729 37.9909 12.2288 37.8792 12.3405 37.7674C14.24 35.812 16.0837 33.9125 17.9833 32.0129C18.2067 31.7895 18.542 31.6218 18.8772 31.6218C21.5589 31.6218 24.2406 31.3984 26.9223 31.0632C28.4866 30.8397 29.9392 30.4486 31.2242 29.443C32.9003 28.1021 34.4646 26.6495 34.8557 24.4706C35.2468 22.4035 35.4703 20.2804 35.582 18.1574C35.6379 16.4255 35.4144 14.6377 35.2468 12.9057C35.0792 11.0621 34.6322 9.27425 33.2914 7.76579C31.9505 6.25733 30.442 4.8606 28.3749 4.46952C26.3636 4.07844 24.3523 3.85496 22.2852 3.74322C18.933 3.57562 15.525 3.68735 12.2288 4.30191C8.65314 4.91647 6.1949 6.98362 4.96579 10.3358C4.4071 11.8442 4.29536 13.5203 4.18362 15.1405C4.07188 17.2076 4.12775 19.3307 4.29536 21.3978C4.35123 22.6269 4.51883 23.9119 4.96579 25.0852C5.97143 27.8228 7.98271 29.6106 10.6644 30.6721C11.1672 30.8955 11.3907 31.119 11.3907 31.6777C11.3348 32.5158 11.3907 33.5214 11.3907 34.4712Z" fill="white"/>
<path d="M21.3911 22.5712C21.6146 22.4595 21.894 22.3477 22.1174 22.1801C22.3968 21.9567 22.5644 21.6214 22.8437 21.398C23.4024 20.8393 24.0729 20.6158 24.7433 21.0069C25.9724 21.8449 27.2015 22.683 28.3748 23.6327C28.8217 23.9679 28.9893 24.4708 28.71 25.0294C28.0954 26.4262 27.2015 27.5436 25.6372 27.9905C25.4137 28.0464 25.1902 28.0464 24.9668 27.9905C19.7709 26.1468 15.4132 23.2416 12.508 18.4369C11.5023 16.8167 10.776 15.0289 9.938 13.297C9.49105 12.4589 9.65866 11.6768 10.1615 10.8946C10.776 10.0007 11.5582 9.33027 12.508 8.88331C13.0667 8.60397 13.6812 8.65984 14.0723 9.16266C14.9662 10.28 15.8042 11.4533 16.5864 12.6824C17.1451 13.5763 16.8658 14.3026 16.0836 14.973C15.916 15.0848 15.8042 15.1965 15.6366 15.3082C15.1338 15.6993 15.0221 16.2022 15.2456 16.7608C16.1953 19.3867 17.9273 21.3421 20.609 22.3477C20.8325 22.4595 21.0559 22.4595 21.3911 22.5712Z" fill="white"/>
<path d="M29.4369 17.4311C29.4369 17.5987 29.5487 17.8222 29.4928 17.9898C29.3811 18.2133 29.2135 18.5485 28.99 18.6044C28.8224 18.6602 28.4313 18.325 28.3754 18.1574C28.2078 17.5987 28.2078 17.04 28.152 16.4814C27.9285 13.1851 25.4144 10.0564 22.2298 9.27425C21.5594 9.10665 20.8331 9.05078 20.1068 8.93904C19.9392 8.93904 19.8275 8.88317 19.6599 8.88317C19.2688 8.8273 18.9894 8.71556 18.9894 8.26861C19.0453 7.76579 19.4364 7.65405 19.8275 7.65405C24.1294 7.82166 27.8167 10.2799 29.0459 14.6935C29.2693 15.5874 29.3811 16.5372 29.4928 17.4311C29.4928 17.3753 29.4928 17.4311 29.4369 17.4311Z" fill="white"/>
<path d="M27.0339 16.8166C26.978 16.9284 27.0339 17.1518 26.9222 17.2636C26.7545 17.4312 26.5311 17.6547 26.3076 17.6547C26.14 17.6547 25.8606 17.3753 25.8606 17.2077C25.693 16.5931 25.693 15.8668 25.5254 15.2523C24.9667 13.1293 23.1789 11.6767 20.9442 11.4532C20.7207 11.4532 20.5531 11.3973 20.3296 11.3415C19.9944 11.2856 19.7709 11.0621 19.8268 10.7269C19.8827 10.3358 20.162 10.1682 20.4972 10.1682C23.7935 10.3917 26.5869 12.4588 26.978 16.0903C26.978 16.2579 27.0339 16.5373 27.0339 16.8166Z" fill="white"/>
<path d="M21.2795 12.6824C23.179 12.7382 24.6316 14.3584 24.5199 16.1463C24.5199 16.5373 24.3523 16.8725 23.9612 16.8167C23.7377 16.7608 23.5143 16.4815 23.2908 16.258C23.2349 16.2021 23.2908 16.0904 23.2908 16.0345C23.0114 14.5819 22.6204 14.1908 21.1119 13.9115C20.7208 13.8556 20.4415 13.6321 20.4415 13.2411C20.4973 12.85 20.7767 12.6824 21.1678 12.6824C21.2795 12.6824 21.3354 12.6824 21.2795 12.6824Z" fill="white"/>
</svg>
