<svg width="102" height="100" viewBox="0 0 102 100" fill="none" xmlns="http://www.w3.org/2000/svg">
<path d="M53.558 73.3873L45.8487 60.226C45.558 59.7287 45.558 59.1131 45.8487 58.6131L53.558 45.9679C53.7373 45.5378 54.0959 45.2045 54.5441 45.0539C54.9923 44.9034 55.4813 44.9545 55.886 45.1883C56.2935 45.4249 56.5787 45.8228 56.6657 46.2824C56.7526 46.7394 56.6358 47.2125 56.3451 47.5808L49.141 59.4034L56.3614 71.7421C56.5814 72.1131 56.6412 72.5539 56.5325 72.9679C56.4212 73.3819 56.1495 73.7367 55.7774 73.9518C55.0032 74.3953 54.0171 74.1427 53.558 73.3873Z" fill="#C4A2FC"/>
<path d="M64.8205 73.9839C64.4456 73.7688 64.174 73.414 64.0626 73C63.9539 72.586 64.0137 72.1452 64.2337 71.7742L71.4541 59.4355L64.25 47.6129C63.9594 47.2473 63.8426 46.7715 63.9295 46.3145C64.0164 45.8575 64.3016 45.457 64.7091 45.2231C65.1166 44.9866 65.6083 44.9382 66.0538 45.0887C66.4993 45.2366 66.8578 45.5699 67.0398 46.0027L74.7492 58.6479C75.0398 59.1479 75.0398 59.7608 74.7492 60.2608L67.0534 73.3871C66.8388 73.7608 66.4802 74.0323 66.0619 74.1452C65.6436 74.2581 65.1954 74.1989 64.8205 73.9839Z" fill="#C4A2FC"/>
<path d="M98.3307 54.629L92.3001 53.6452C91.9958 52.0914 91.5829 50.5618 91.0614 49.0645L95.788 45.1613C97.0132 44.1586 97.331 42.4274 96.5378 41.0645L94.6471 37.8387C93.8485 36.4758 92.1751 35.8844 90.6865 36.4355L84.9656 38.5484C83.9225 37.3575 82.7952 36.2419 81.5918 35.2097L83.7269 29.5484C84.2838 28.0753 83.6835 26.4194 82.3089 25.629L79.0492 23.7581C77.6719 22.9731 75.9225 23.2876 74.9093 24.5L71.0301 29.1774C69.5171 28.6613 67.9714 28.2527 66.4013 27.9516L65.4071 21.9839C65.1408 20.4113 63.7582 19.2688 62.1473 19.2903H58.3986C56.7904 19.2688 55.405 20.4113 55.1388 21.9839L54.1446 27.9516C52.5745 28.2527 51.0261 28.6613 49.5157 29.1774L45.6366 24.5645C44.6234 23.3522 42.8739 23.0376 41.4967 23.8226L38.2369 25.6936C36.8597 26.4839 36.2621 28.1398 36.8189 29.6129L38.9541 35.2742C37.7507 36.3065 36.6234 37.422 35.5802 38.6129L29.8593 36.5C28.3707 35.9489 26.6974 36.543 25.8987 37.9032L24.0081 41.129C23.2665 42.4919 23.6088 44.1855 24.823 45.1613L29.5497 49C29.0281 50.4946 28.6125 52.0269 28.311 53.5806L22.2804 54.5645C20.694 54.8279 19.5368 56.1962 19.5585 57.7903V61.5C19.5368 63.0941 20.694 64.4623 22.2804 64.7258L28.311 65.7097C28.6152 67.2634 29.0281 68.793 29.5497 70.2903L24.823 74.1935C23.5979 75.1962 23.2801 76.9274 24.0733 78.2903L25.9639 81.5161C26.7626 82.879 28.4359 83.4704 29.9245 82.9193L35.6454 80.8064C36.6885 81.9973 37.8159 83.1129 39.0193 84.1451L36.8841 89.8064C36.3273 91.2795 36.9276 92.9355 38.3021 93.7258L41.5619 95.5967C42.9391 96.3306 44.6505 95.9919 45.6366 94.7903L49.5157 90.1129C51.0261 90.629 52.5745 91.0403 54.1446 91.3387L55.1388 97.3064C55.405 98.8763 56.7904 100.021 58.3986 100H62.1473C63.7582 100.021 65.1408 98.8763 65.4071 97.3064L66.4013 91.3387C67.9714 91.0376 69.5171 90.629 71.0301 90.1129L74.9745 94.7903C75.9877 96.0027 77.7371 96.3172 79.1144 95.5322L82.3741 93.6613C83.7514 92.8709 84.349 91.215 83.7921 89.7419L81.657 84.0806C82.8604 83.0484 83.9877 81.9328 85.0308 80.7419L90.7517 82.8548C92.2403 83.4059 93.9164 82.8118 94.7123 81.4516L96.603 78.2258C97.3446 76.8629 97.0023 75.1693 95.788 74.1935L91.0614 70.3548C91.5829 68.8602 91.9986 67.3279 92.3001 65.7742L98.3307 64.7903C99.9171 64.5269 101.074 63.1559 101.053 61.5645V57.8548C101.074 56.2607 99.9171 54.8925 98.3307 54.629ZM60.3055 83.8709C50.4176 83.8709 41.5021 77.9758 37.7181 68.9355C33.9341 59.8951 36.0257 49.4892 43.0179 42.5699C50.0101 35.6505 60.5256 33.5807 69.661 37.3253C78.7965 41.0699 84.7537 49.8925 84.7537 59.6774C84.7537 73.0403 73.8091 83.8709 60.3055 83.8709Z" fill="#C4A2FC"/>
<path d="M36.0367 79.7581L29.9572 67.7419H4.88964C2.18947 67.7419 0 65.5753 0 62.9032V4.83871C0 2.16667 2.18947 0 4.88964 0H70.0849C72.7851 0 74.9745 2.16667 74.9745 4.83871V62.9032C74.9745 65.5753 72.7851 67.7419 70.0849 67.7419H45.0173L38.9379 79.7581C38.6581 80.2957 38.0985 80.6371 37.4873 80.6371C36.8761 80.6371 36.3165 80.2957 36.0367 79.7581ZM4.88964 3.22581C3.99049 3.22581 3.25976 3.94893 3.25976 4.83871V62.9032C3.25976 63.793 3.99049 64.5161 4.88964 64.5161H30.9677C31.5817 64.5188 32.1413 64.8602 32.4183 65.4032L37.4873 75.4194L42.5562 65.4032C42.8333 64.8602 43.3929 64.5188 44.0068 64.5161H70.0849C70.984 64.5161 71.7148 63.793 71.7148 62.9032V4.83871C71.7148 3.94893 70.984 3.22581 70.0849 3.22581H4.88964Z" fill="#151A6A"/>
<path d="M26.078 56.4516C21.5768 56.4516 17.9286 52.8414 17.9286 48.3871V43C17.9286 41.7177 17.4125 40.4865 16.4943 39.5806L11.8817 35.0161C11.5748 34.7123 11.4009 34.301 11.4009 33.8709C11.4009 33.4408 11.5748 33.0295 11.8817 32.7258L16.4943 28.1613C17.4125 27.2553 17.9286 26.0242 17.9286 24.7419V19.3548C17.9286 14.9005 21.5768 11.2903 26.078 11.2903C26.9771 11.2903 27.7079 12.0134 27.7079 12.9032C27.7079 13.793 26.9771 14.5161 26.078 14.5161C23.3778 14.5161 21.1883 16.6828 21.1883 19.3548V24.7419C21.1938 26.8817 20.3354 28.9381 18.8087 30.4516L15.3371 33.8709L18.8087 37.2903C20.3381 38.8064 21.1938 40.8602 21.1883 43V48.3871C21.1883 51.0591 23.3778 53.2258 26.078 53.2258C26.9771 53.2258 27.7079 53.9489 27.7079 54.8387C27.7079 55.7285 26.9771 56.4516 26.078 56.4516Z" fill="#151A6A"/>
<path d="M48.8964 56.4516C47.9972 56.4516 47.2665 55.7285 47.2665 54.8387C47.2665 53.9489 47.9972 53.2258 48.8964 53.2258C51.5965 53.2258 53.786 51.0591 53.786 48.3871V43C53.7806 40.8602 54.639 38.8037 56.1656 37.2903L59.6373 33.8709L56.1656 30.4516C54.6363 28.9354 53.7806 26.8817 53.786 24.7419V19.3548C53.786 16.6828 51.5965 14.5161 48.8964 14.5161C47.9972 14.5161 47.2665 13.793 47.2665 12.9032C47.2665 12.0134 47.9972 11.2903 48.8964 11.2903C53.3976 11.2903 57.0458 14.9005 57.0458 19.3548V24.7419C57.0458 26.0242 57.5619 27.2553 58.4801 28.1613L63.0926 32.7258C63.3996 33.0295 63.5734 33.4408 63.5734 33.8709C63.5734 34.301 63.3996 34.7123 63.0926 35.0161L58.4801 39.5806C57.5619 40.4892 57.0458 41.7177 57.0458 43V48.3871C57.0458 52.8414 53.3976 56.4516 48.8964 56.4516Z" fill="#151A6A"/>
<path d="M42.9147 33.871C42.9147 34.7607 42.1839 35.4839 41.2848 35.4839C40.3856 35.4839 39.6549 34.7607 39.6549 33.871C39.6549 32.9812 40.3856 32.2581 41.2848 32.2581C42.1839 32.2581 42.9147 32.9812 42.9147 33.871Z" fill="#151A6A"/>
<path d="M50.5262 33.871C50.5262 34.7607 49.7955 35.4839 48.8964 35.4839C47.9972 35.4839 47.2665 34.7607 47.2665 33.871C47.2665 32.9812 47.9972 32.2581 48.8964 32.2581C49.7955 32.2581 50.5262 32.9812 50.5262 33.871Z" fill="#151A6A"/>
<path d="M27.708 33.871C27.708 34.7607 26.9773 35.4839 26.0781 35.4839C25.179 35.4839 24.4482 34.7607 24.4482 33.871C24.4482 32.9812 25.179 32.2581 26.0781 32.2581C26.9773 32.2581 27.708 32.9812 27.708 33.871Z" fill="#151A6A"/>
<path d="M35.3195 33.871C35.3195 34.7607 34.5887 35.4839 33.6896 35.4839C32.7904 35.4839 32.0597 34.7607 32.0597 33.871C32.0597 32.9812 32.7904 32.2581 33.6896 32.2581C34.5887 32.2581 35.3195 32.9812 35.3195 33.871Z" fill="#151A6A"/>
</svg>
