<svg width="41" height="41" viewBox="0 0 41 41" fill="none" xmlns="http://www.w3.org/2000/svg">
<path d="M0.24054 40.0867L3.0662 29.3289C1.48383 26.3847 0.579619 23.1008 0.579619 19.8168C0.579619 8.83265 9.50871 0 20.3593 0C31.2098 0 40.1389 8.83265 40.1389 19.8168C40.1389 30.6878 31.3228 39.6337 20.3593 39.6337C17.0815 39.6337 13.9167 38.841 10.9781 37.2557L0.24054 40.0867ZM11.5432 33.1791L12.2213 33.632C14.7079 35.1041 17.5336 35.8968 20.3593 35.8968C29.1753 35.8968 36.409 28.6495 36.409 19.8168C36.409 10.9842 29.1753 3.73689 20.3593 3.73689C11.5432 3.73689 4.30949 10.9842 4.30949 19.8168C4.30949 22.7611 5.10068 25.592 6.68305 28.0833L7.13516 28.7627L5.55278 34.7644L11.5432 33.1791Z" fill="white"/>
<path fill-rule="evenodd" clip-rule="evenodd" d="M27.7057 22.5345C26.9145 22.0816 25.7843 21.5154 24.8801 21.8551C24.0889 22.1948 23.6368 23.3272 23.1847 23.8934C22.9586 24.2331 22.6195 24.2331 22.2805 24.1199C19.5678 22.9875 17.4203 21.1756 15.838 18.6844C15.6119 18.3447 15.6119 18.005 15.951 17.6652C16.4031 17.099 16.9682 16.5328 17.0812 15.7402C17.1943 15.0607 16.8552 14.1548 16.5161 13.4754C16.177 12.6827 15.7249 11.4371 14.8207 10.9841C14.0295 10.5312 13.0123 10.7576 12.3341 11.3238C11.2039 12.2298 10.6387 13.8151 10.6387 15.2872C10.6387 15.7402 10.7518 16.0799 10.7518 16.5328C10.9778 17.552 11.4299 18.4579 11.9951 19.2506C12.3341 19.93 12.7862 20.4962 13.2383 21.1756C14.7077 23.214 16.5161 24.9125 18.6636 26.2714C19.6809 26.9508 20.9241 27.517 22.0544 27.8568C23.4107 28.3097 24.541 28.7627 26.0103 28.5362C27.4797 28.1965 28.949 27.2906 29.6272 25.8184C29.8532 25.3655 29.8532 24.9125 29.7402 24.4596C29.7402 23.5537 28.4969 22.9875 27.7057 22.5345Z" fill="white"/>
</svg>
